<ttFont>
    <TTGlyph name="A" xMin="-75" yMin="0" xMax="1148" yMax="1456">
      <contour>
        <pt x="793" y="283" on="1"/>
        <pt x="391" y="283" on="1"/>
        <pt x="260" y="0" on="1"/>
        <pt x="-75" y="0" on="1"/>
        <pt x="648" y="1456" on="1"/>
        <pt x="1006" y="1456" on="1"/>
        <pt x="1148" y="0" on="1"/>
        <pt x="812" y="0" on="1"/>
      </contour>
      <contour>
        <pt x="511" y="543" on="1"/>
        <pt x="776" y="543" on="1"/>
        <pt x="744" y="1030" on="1"/>
        <pt x="738" y="1031" on="1"/>
      </contour>
    </TTGlyph>
    <TTGlyph name="A.smcp" xMin="-81" yMin="0" xMax="1112" yMax="1165">
      <contour>
        <pt x="737" y="176" on="1"/>
        <pt x="365" y="176" on="1"/>
        <pt x="274" y="0" on="1"/>
        <pt x="-81" y="0" on="1"/>
        <pt x="561" y="1165" on="1"/>
        <pt x="937" y="1165" on="1"/>
        <pt x="1112" y="0" on="1"/>
        <pt x="758" y="0" on="1"/>
      </contour>
      <contour>
        <pt x="498" y="435" on="1"/>
        <pt x="705" y="435" on="1"/>
        <pt x="667" y="750" on="1"/>
        <pt x="661" y="751" on="1"/>
      </contour>
    </TTGlyph>
    <TTGlyph name="AE" xMin="-67" yMin="0" xMax="1882" yMax="1456">
      <contour>
        <pt x="1647" y="0" on="1"/>
        <pt x="803" y="0" on="1"/>
        <pt x="856" y="329" on="1"/>
        <pt x="522" y="329" on="1"/>
        <pt x="318" y="0" on="1"/>
        <pt x="-67" y="0" on="1"/>
        <pt x="897" y="1456" on="1"/>
        <pt x="1882" y="1456" on="1"/>
        <pt x="1829" y="1192" on="1"/>
        <pt x="1327" y="1192" on="1"/>
        <pt x="1277" y="876" on="1"/>
        <pt x="1690" y="876" on="1"/>
        <pt x="1637" y="612" on="1"/>
        <pt x="1234" y="612" on="1"/>
        <pt x="1178" y="264" on="1"/>
        <pt x="1700" y="264" on="1"/>
      </contour>
      <contour>
        <pt x="899" y="599" on="1"/>
        <pt x="970" y="1039" on="1"/>
        <pt x="964" y="1041" on="1"/>
        <pt x="690" y="599" on="1"/>
      </contour>
    </TTGlyph>
    <TTGlyph name="AEacute" xMin="-67" yMin="0" xMax="1882" yMax="1827">
      <component glyphName="AE" x="0" y="0" flags="0x204"/>
      <component glyphName="acute" x="709" y="349" flags="0x4"/>
    </TTGlyph>
    <TTGlyph name="Aacute" xMin="-75" yMin="0" xMax="1241" yMax="1827">
      <component glyphName="A" x="0" y="0" flags="0x204"/>
      <component glyphName="acute" x="448" y="349" flags="0x4"/>
    </TTGlyph>
    <TTGlyph name="Aacute.smcp" xMin="-81" yMin="0" xMax="1161" yMax="1504">
      <component glyphName="A.smcp" x="0" y="0" flags="0x204"/>
      <component glyphName="acute" x="368" y="26" flags="0x4"/>
    </TTGlyph>
    <TTGlyph name="Abreve" xMin="-75" yMin="0" xMax="1238" yMax="1908">
      <component glyphName="A" x="0" y="0" flags="0x204"/>
      <component glyphName="breve" x="292" y="452" flags="0x4"/>
    </TTGlyph>
    <TTGlyph name="Abreve.smcp" xMin="-81" yMin="0" xMax="1158" yMax="1585">
      <component glyphName="A.smcp" x="0" y="0" flags="0x204"/>
      <component glyphName="breve" x="212" y="129" flags="0x4"/>
    </TTGlyph>
    <TTGlyph name="Acircumflex" xMin="-75" yMin="0" xMax="1230" yMax="1853">
      <component glyphName="A" x="0" y="0" flags="0x204"/>
      <component glyphName="circumflex" x="183" y="335" flags="0x4"/>
    </TTGlyph>
    <TTGlyph name="Acircumflex.smcp" xMin="-81" yMin="0" xMax="1150" yMax="1530">
      <component glyphName="A.smcp" x="0" y="0" flags="0x204"/>
      <component glyphName="circumflex" x="103" y="12" flags="0x4"/>
    </TTGlyph>
    <TTGlyph name="Adieresis" xMin="-75" yMin="0" xMax="1258" yMax="1805">
      <component glyphName="A" x="0" y="0" flags="0x204"/>
      <component glyphName="dieresis" x="190" y="349" flags="0x4"/>
    </TTGlyph>
    <TTGlyph name="Adieresis.smcp" xMin="-81" yMin="0" xMax="1178" yMax="1482">
      <component glyphName="A.smcp" x="0" y="0" flags="0x204"/>
      <component glyphName="dieresis" x="110" y="26" flags="0x4"/>
    </TTGlyph>
    <TTGlyph name="Agrave" xMin="-75" yMin="0" xMax="1148" yMax="1825">
      <component glyphName="A" x="0" y="0" flags="0x204"/>
      <component glyphName="grave" x="283" y="347" flags="0x4"/>
    </TTGlyph>
    <TTGlyph name="Agrave.smcp" xMin="-81" yMin="0" xMax="1112" yMax="1502">
      <component glyphName="A.smcp" x="0" y="0" flags="0x204"/>
      <component glyphName="grave" x="203" y="24" flags="0x4"/>
    </TTGlyph>
    <TTGlyph name="Alpha" xMin="-75" yMin="0" xMax="1148" yMax="1456">
      <component glyphName="A" x="0" y="0" flags="0x204"/>
    </TTGlyph>
    <TTGlyph name="Alphatonos" xMin="-75" yMin="0" xMax="1148" yMax="1618">
      <component glyphName="A" x="0" y="0" flags="0x204"/>
      <component glyphName="tonos" x="-224" y="0" flags="0x4"/>
    </TTGlyph>
    <TTGlyph name="Amacron" xMin="-75" yMin="0" xMax="1218" yMax="1774">
      <component glyphName="A" x="0" y="0" flags="0x204"/>
      <component glyphName="macron" x="205" y="316" flags="0x4"/>
    </TTGlyph>
    <TTGlyph name="Amacron.smcp" xMin="-81" yMin="0" xMax="1138" yMax="1453">
      <component glyphName="A.smcp" x="0" y="0" flags="0x204"/>
      <component glyphName="macron" x="125" y="-5" flags="0x4"/>
    </TTGlyph>
    <TTGlyph name="Aogonek" xMin="-75" yMin="-417" xMax="1148" yMax="1456">
      <component glyphName="A" x="0" y="0" flags="0x204"/>
      <component glyphName="ogonek" x="724" y="0" flags="0x4"/>
    </TTGlyph>
    <TTGlyph name="Aogonek.smcp" xMin="-81" yMin="-417" xMax="1112" yMax="1165">
      <component glyphName="A.smcp" x="0" y="0" flags="0x204"/>
      <component glyphName="ogonek" x="688" y="0" flags="0x4"/>
    </TTGlyph>
    <TTGlyph name="Aring" xMin="-75" yMin="0" xMax="1148" yMax="1934">
      <component glyphName="A" x="0" y="0" flags="0x204"/>
      <component glyphName="ring" x="377" y="447" flags="0x4"/>
    </TTGlyph>
    <TTGlyph name="Aring.smcp" xMin="-81" yMin="0" xMax="1112" yMax="1611">
      <component glyphName="A.smcp" x="0" y="0" flags="0x204"/>
      <component glyphName="ring" x="297" y="124" flags="0x4"/>
    </TTGlyph>
    <TTGlyph name="Aringacute" xMin="-75" yMin="0" xMax="1328" yMax="2169">
      <component glyphName="A" x="0" y="0" flags="0x204"/>
      <component glyphName="ringacute" x="348" y="387" flags="0x4"/>
    </TTGlyph>
    <TTGlyph name="Aringacute.smcp" xMin="-81" yMin="0" xMax="1248" yMax="1846">
      <component glyphName="A.smcp" x="0" y="0" flags="0x204"/>
      <component glyphName="ringacute" x="268" y="64" flags="0x4"/>
    </TTGlyph>
    <TTGlyph name="Atilde" xMin="-75" yMin="0" xMax="1253" yMax="1912">
      <component glyphName="A" x="0" y="0" flags="0x204"/>
      <component glyphName="tilde" x="244" y="381" flags="0x4"/>
    </TTGlyph>
    <TTGlyph name="Atilde.smcp" xMin="-81" yMin="0" xMax="1173" yMax="1589">
      <component glyphName="A.smcp" x="0" y="0" flags="0x204"/>
      <component glyphName="tilde" x="164" y="58" flags="0x4"/>
    </TTGlyph>
    <TTGlyph name="B" xMin="20" yMin="0" xMax="1285" yMax="1456">
      <contour>
        <pt x="20" y="0" on="1"/>
        <pt x="311" y="1456" on="1"/>
        <pt x="784" y="1456" on="1"/>
        <pt x="1024" y="1456" on="0"/>
        <pt x="1285" y="1251" on="0"/>
        <pt x="1246" y="1056" on="1"/>
        <pt x="1223" y="946" on="0"/>
        <pt x="1103" y="787" on="0"/>
        <pt x="999" y="748" on="1"/>
        <pt x="1112" y="719" on="0"/>
        <pt x="1189" y="545" on="0"/>
        <pt x="1166" y="431" on="1"/>
        <pt x="1120" y="205" on="0"/>
        <pt x="817" y="0" on="0"/>
        <pt x="559" y="0" on="1"/>
      </contour>
      <contour>
        <pt x="480" y="625" on="1"/>
        <pt x="407" y="260" on="1"/>
        <pt x="611" y="260" on="1"/>
        <pt x="700" y="260" on="0"/>
        <pt x="816" y="347" on="0"/>
        <pt x="834" y="433" on="1"/>
        <pt x="853" y="534" on="0"/>
        <pt x="794" y="625" on="0"/>
        <pt x="702" y="625" on="1"/>
      </contour>
      <contour>
        <pt x="524" y="849" on="1"/>
        <pt x="667" y="849" on="1"/>
        <pt x="762" y="851" on="0"/>
        <pt x="886" y="938" on="0"/>
        <pt x="904" y="1018" on="1"/>
        <pt x="923" y="1117" on="0"/>
        <pt x="840" y="1196" on="0"/>
        <pt x="732" y="1196" on="1"/>
        <pt x="594" y="1196" on="1"/>
      </contour>
    </TTGlyph>
    <TTGlyph name="B.smcp" xMin="25" yMin="0" xMax="1129" yMax="1165">
      <contour>
        <pt x="25" y="0" on="1"/>
        <pt x="258" y="1165" on="1"/>
        <pt x="732" y="1165" on="1"/>
        <pt x="922" y="1165" on="0"/>
        <pt x="1129" y="998" on="0"/>
        <pt x="1098" y="841" on="1"/>
        <pt x="1080" y="753" on="0"/>
        <pt x="953" y="626" on="0"/>
        <pt x="851" y="594" on="1"/>
        <pt x="976" y="569" on="0"/>
        <pt x="1076" y="428" on="0"/>
        <pt x="1057" y="330" on="1"/>
        <pt x="1021" y="155" on="0"/>
        <pt x="778" y="0" on="0"/>
        <pt x="563" y="0" on="1"/>
      </contour>
      <contour>
        <pt x="455" y="483" on="1"/>
        <pt x="410" y="258" on="1"/>
        <pt x="615" y="258" on="1"/>
        <pt x="668" y="258" on="0"/>
        <pt x="720" y="306" on="0"/>
        <pt x="731" y="359" on="1"/>
        <pt x="745" y="429" on="0"/>
        <pt x="717" y="483" on="0"/>
        <pt x="660" y="483" on="1"/>
      </contour>
      <contour>
        <pt x="497" y="691" on="1"/>
        <pt x="637" y="691" on="1"/>
        <pt x="683" y="691" on="0"/>
        <pt x="745" y="741" on="0"/>
        <pt x="755" y="788" on="1"/>
        <pt x="768" y="854" on="0"/>
        <pt x="731" y="907" on="0"/>
        <pt x="680" y="907" on="1"/>
        <pt x="540" y="907" on="1"/>
      </contour>
    </TTGlyph>
    <TTGlyph name="Beta" xMin="20" yMin="0" xMax="1285" yMax="1456">
      <component glyphName="B" x="0" y="0" flags="0x204"/>
    </TTGlyph>
    <TTGlyph name="C" xMin="53" yMin="-21" xMax="1310" yMax="1477">
      <contour>
        <pt x="1186" y="511" on="1"/>
        <pt x="1189" y="505" on="1"/>
        <pt x="1128" y="245" on="0"/>
        <pt x="834" y="-21" on="0"/>
        <pt x="584" y="-21" on="1"/>
        <pt x="343" y="-21" on="0"/>
        <pt x="53" y="318" on="0"/>
        <pt x="105" y="576" on="1"/>
        <pt x="166" y="880" on="1"/>
        <pt x="223" y="1166" on="0"/>
        <pt x="552" y="1477" on="0"/>
        <pt x="795" y="1477" on="1"/>
        <pt x="1043" y="1477" on="0"/>
        <pt x="1310" y="1189" on="0"/>
        <pt x="1277" y="942" on="1"/>
        <pt x="1275" y="937" on="1"/>
        <pt x="948" y="937" on="1"/>
        <pt x="972" y="1077" on="0"/>
        <pt x="888" y="1217" on="0"/>
        <pt x="765" y="1217" on="1"/>
        <pt x="673" y="1217" on="0"/>
        <pt x="530" y="1032" on="0"/>
        <pt x="500" y="882" on="1"/>
        <pt x="439" y="576" on="1"/>
        <pt x="406" y="414" on="0"/>
        <pt x="491" y="239" on="0"/>
        <pt x="603" y="239" on="1"/>
        <pt x="705" y="239" on="0"/>
        <pt x="829" y="373" on="0"/>
        <pt x="861" y="511" on="1"/>
      </contour>
    </TTGlyph>
    <TTGlyph name="C.smcp" xMin="47" yMin="-17" xMax="1134" yMax="1181">
      <contour>
        <pt x="1013" y="406" on="1"/>
        <pt x="1015" y="400" on="1"/>
        <pt x="975" y="178" on="0"/>
        <pt x="711" y="-17" on="0"/>
        <pt x="475" y="-17" on="1"/>
        <pt x="269" y="-17" on="0"/>
        <pt x="47" y="251" on="0"/>
        <pt x="89" y="461" on="1"/>
        <pt x="138" y="704" on="1"/>
        <pt x="183" y="931" on="0"/>
        <pt x="489" y="1181" on="0"/>
        <pt x="714" y="1181" on="1"/>
        <pt x="929" y="1181" on="0"/>
        <pt x="1134" y="968" on="0"/>
        <pt x="1090" y="766" on="1"/>
        <pt x="1088" y="761" on="1"/>
        <pt x="763" y="761" on="1"/>
        <pt x="783" y="860" on="0"/>
        <pt x="747" y="924" on="0"/>
        <pt x="663" y="924" on="1"/>
        <pt x="590" y="924" on="0"/>
        <pt x="491" y="805" on="0"/>
        <pt x="471" y="705" on="1"/>
        <pt x="422" y="461" on="1"/>
        <pt x="400" y="352" on="0"/>
        <pt x="447" y="241" on="0"/>
        <pt x="526" y="241" on="1"/>
        <pt x="601" y="241" on="0"/>
        <pt x="670" y="314" on="0"/>
        <pt x="688" y="406" on="1"/>
      </contour>
    </TTGlyph>
    <TTGlyph name="Cacute" xMin="53" yMin="-21" xMax="1310" yMax="1848">
      <component glyphName="C" x="0" y="0" flags="0x204"/>
      <component glyphName="acute" x="473" y="370" flags="0x4"/>
    </TTGlyph>
    <TTGlyph name="Cacute.smcp" xMin="47" yMin="-17" xMax="1134" yMax="1520">
      <component glyphName="C.smcp" x="0" y="0" flags="0x204"/>
      <component glyphName="acute" x="332" y="42" flags="0x4"/>
    </TTGlyph>
    <TTGlyph name="Ccaron" xMin="53" yMin="-21" xMax="1317" yMax="1898">
      <component glyphName="C" x="0" y="0" flags="0x204"/>
      <component glyphName="caron" x="233" y="370" flags="0x4"/>
    </TTGlyph>
    <TTGlyph name="Ccaron.smcp" xMin="47" yMin="-17" xMax="1176" yMax="1570">
      <component glyphName="C.smcp" x="0" y="0" flags="0x204"/>
      <component glyphName="caron" x="92" y="42" flags="0x4"/>
    </TTGlyph>
    <TTGlyph name="Ccedilla" xMin="53" yMin="-470" xMax="1310" yMax="1477">
      <component glyphName="C" x="0" y="0" flags="0x204"/>
      <component glyphName="cedilla" x="377" y="0" flags="0x4"/>
    </TTGlyph>
    <TTGlyph name="Ccedilla.smcp" xMin="47" yMin="-470" xMax="1134" yMax="1181">
      <component glyphName="C.smcp" x="0" y="0" flags="0x204"/>
      <component glyphName="cedilla" x="305" y="0" flags="0x4"/>
    </TTGlyph>
    <TTGlyph name="Ccircumflex" xMin="53" yMin="-21" xMax="1310" yMax="1874">
      <component glyphName="C" x="0" y="0" flags="0x204"/>
      <component glyphName="circumflex" x="208" y="356" flags="0x4"/>
    </TTGlyph>
    <TTGlyph name="Ccircumflex.smcp" xMin="47" yMin="-17" xMax="1134" yMax="1546">
      <component glyphName="C.smcp" x="0" y="0" flags="0x204"/>
      <component glyphName="circumflex" x="67" y="28" flags="0x4"/>
    </TTGlyph>
    <TTGlyph name="Chi" xMin="-55" yMin="0" xMax="1366" yMax="1456">
      <component glyphName="X" x="0" y="0" flags="0x204"/>
    </TTGlyph>
    <TTGlyph name="D" xMin="20" yMin="0" xMax="1300" yMax="1456">
      <contour>
        <pt x="772" y="1456" on="1"/>
        <pt x="999" y="1456" on="0"/>
        <pt x="1300" y="1104" on="0"/>
        <pt x="1249" y="849" on="1"/>
        <pt x="1196" y="587" on="1"/>
        <pt x="1140" y="304" on="0"/>
        <pt x="797" y="0" on="0"/>
        <pt x="555" y="0" on="1"/>
        <pt x="20" y="0" on="1"/>
        <pt x="311" y="1456" on="1"/>
      </contour>
      <contour>
        <pt x="594" y="1196" on="1"/>
        <pt x="407" y="260" on="1"/>
        <pt x="584" y="260" on="1"/>
        <pt x="692" y="260" on="0"/>
        <pt x="830" y="432" on="0"/>
        <pt x="861" y="587" on="1"/>
        <pt x="914" y="851" on="1"/>
        <pt x="945" y="1009" on="0"/>
        <pt x="822" y="1196" on="0"/>
        <pt x="697" y="1196" on="1"/>
      </contour>
    </TTGlyph>
    <TTGlyph name="D.smcp" xMin="25" yMin="0" xMax="1150" yMax="1165">
      <contour>
        <pt x="709" y="1165" on="1"/>
        <pt x="912" y="1165" on="0"/>
        <pt x="1150" y="894" on="0"/>
        <pt x="1109" y="687" on="1"/>
        <pt x="1067" y="477" on="1"/>
        <pt x="1022" y="251" on="0"/>
        <pt x="698" y="0" on="0"/>
        <pt x="476" y="0" on="1"/>
        <pt x="25" y="0" on="1"/>
        <pt x="258" y="1165" on="1"/>
      </contour>
      <contour>
        <pt x="540" y="907" on="1"/>
        <pt x="410" y="258" on="1"/>
        <pt x="528" y="258" on="1"/>
        <pt x="599" y="258" on="0"/>
        <pt x="714" y="380" on="0"/>
        <pt x="733" y="477" on="1"/>
        <pt x="776" y="688" on="1"/>
        <pt x="797" y="793" on="0"/>
        <pt x="735" y="907" on="0"/>
        <pt x="657" y="907" on="1"/>
      </contour>
    </TTGlyph>
    <TTGlyph name="Dcaron" xMin="20" yMin="0" xMax="1300" yMax="1877">
      <component glyphName="D" x="0" y="0" flags="0x204"/>
      <component glyphName="caron" x="142" y="349" flags="0x4"/>
    </TTGlyph>
    <TTGlyph name="Dcaron.smcp" xMin="25" yMin="0" xMax="1150" yMax="1554">
      <component glyphName="D.smcp" x="0" y="0" flags="0x204"/>
      <component glyphName="caron" x="21" y="26" flags="0x4"/>
    </TTGlyph>
    <TTGlyph name="Dcroat" xMin="50" yMin="0" xMax="1330" yMax="1456">
      <contour>
        <pt x="802" y="1456" on="1"/>
        <pt x="1029" y="1456" on="0"/>
        <pt x="1330" y="1104" on="0"/>
        <pt x="1279" y="849" on="1"/>
        <pt x="1226" y="587" on="1"/>
        <pt x="1170" y="304" on="0"/>
        <pt x="827" y="0" on="0"/>
        <pt x="585" y="0" on="1"/>
        <pt x="50" y="0" on="1"/>
        <pt x="179" y="647" on="1"/>
        <pt x="70" y="647" on="1"/>
        <pt x="108" y="838" on="1"/>
        <pt x="217" y="838" on="1"/>
        <pt x="341" y="1456" on="1"/>
      </contour>
      <contour>
        <pt x="715" y="647" on="1"/>
        <pt x="514" y="647" on="1"/>
        <pt x="437" y="260" on="1"/>
        <pt x="614" y="260" on="1"/>
        <pt x="722" y="260" on="0"/>
        <pt x="860" y="432" on="0"/>
        <pt x="891" y="587" on="1"/>
        <pt x="944" y="851" on="1"/>
        <pt x="975" y="1009" on="0"/>
        <pt x="852" y="1196" on="0"/>
        <pt x="727" y="1196" on="1"/>
        <pt x="624" y="1196" on="1"/>
        <pt x="552" y="838" on="1"/>
        <pt x="753" y="838" on="1"/>
      </contour>
    </TTGlyph>
    <TTGlyph name="Dcroat.smcp" xMin="-24" yMin="0" xMax="1150" yMax="1165">
      <component glyphName="D.smcp" x="0" y="0" flags="0x204"/>
      <component glyphName="crossbar" x="-226" y="-150" flags="0x4"/>
    </TTGlyph>
    <TTGlyph name="Delta" xMin="-66" yMin="0" xMax="1345" yMax="1456">
      <contour>
        <pt x="926" y="1456" on="1"/>
        <pt x="927" y="1454" on="1"/>
        <pt x="930" y="1456" on="1"/>
        <pt x="1107" y="1456" on="1"/>
        <pt x="1345" y="0" on="1"/>
        <pt x="-66" y="0" on="1"/>
        <pt x="749" y="1456" on="1"/>
      </contour>
      <contour>
        <pt x="426" y="260" on="1"/>
        <pt x="956" y="260" on="1"/>
        <pt x="846" y="1029" on="1"/>
        <pt x="840" y="1031" on="1"/>
      </contour>
    </TTGlyph>
    <TTGlyph name="E" xMin="20" yMin="0" xMax="1263" yMax="1456">
      <contour>
        <pt x="1000" y="623" on="1"/>
        <pt x="479" y="623" on="1"/>
        <pt x="407" y="260" on="1"/>
        <pt x="1022" y="260" on="1"/>
        <pt x="970" y="0" on="1"/>
        <pt x="20" y="0" on="1"/>
        <pt x="311" y="1456" on="1"/>
        <pt x="1263" y="1456" on="1"/>
        <pt x="1211" y="1196" on="1"/>
        <pt x="594" y="1196" on="1"/>
        <pt x="531" y="883" on="1"/>
        <pt x="1052" y="883" on="1"/>
      </contour>
    </TTGlyph>
    <TTGlyph name="E.smcp" xMin="25" yMin="0" xMax="1074" yMax="1165">
      <contour>
        <pt x="857" y="473" on="1"/>
        <pt x="453" y="473" on="1"/>
        <pt x="410" y="258" on="1"/>
        <pt x="893" y="258" on="1"/>
        <pt x="841" y="0" on="1"/>
        <pt x="25" y="0" on="1"/>
        <pt x="258" y="1165" on="1"/>
        <pt x="1074" y="1165" on="1"/>
        <pt x="1022" y="907" on="1"/>
        <pt x="540" y="907" on="1"/>
        <pt x="505" y="732" on="1"/>
        <pt x="908" y="732" on="1"/>
      </contour>
    </TTGlyph>
    <TTGlyph name="Eacute" xMin="20" yMin="0" xMax="1263" yMax="1827">
      <component glyphName="E" x="0" y="0" flags="0x204"/>
      <component glyphName="acute" x="392" y="349" flags="0x4"/>
    </TTGlyph>
    <TTGlyph name="Eacute.smcp" xMin="25" yMin="0" xMax="1077" yMax="1504">
      <component glyphName="E.smcp" x="0" y="0" flags="0x204"/>
      <component glyphName="acute" x="284" y="26" flags="0x4"/>
    </TTGlyph>
    <TTGlyph name="Ebreve" xMin="20" yMin="0" xMax="1263" yMax="1908">
      <component glyphName="E" x="0" y="0" flags="0x204"/>
      <component glyphName="breve" x="236" y="452" flags="0x4"/>
    </TTGlyph>
    <TTGlyph name="Ebreve.smcp" xMin="25" yMin="0" xMax="1074" yMax="1585">
      <component glyphName="E.smcp" x="0" y="0" flags="0x204"/>
      <component glyphName="breve" x="128" y="129" flags="0x4"/>
    </TTGlyph>
    <TTGlyph name="Ecaron" xMin="20" yMin="0" xMax="1263" yMax="1877">
      <component glyphName="E" x="0" y="0" flags="0x204"/>
      <component glyphName="caron" x="152" y="349" flags="0x4"/>
    </TTGlyph>
    <TTGlyph name="Ecaron.smcp" xMin="25" yMin="0" xMax="1128" yMax="1554">
      <component glyphName="E.smcp" x="0" y="0" flags="0x204"/>
      <component glyphName="caron" x="44" y="26" flags="0x4"/>
    </TTGlyph>
    <TTGlyph name="Ecircumflex" xMin="20" yMin="0" xMax="1263" yMax="1853">
      <component glyphName="E" x="0" y="0" flags="0x204"/>
      <component glyphName="circumflex" x="127" y="335" flags="0x4"/>
    </TTGlyph>
    <TTGlyph name="Ecircumflex.smcp" xMin="25" yMin="0" xMax="1074" yMax="1530">
      <component glyphName="E.smcp" x="0" y="0" flags="0x204"/>
      <component glyphName="circumflex" x="19" y="12" flags="0x4"/>
    </TTGlyph>
    <TTGlyph name="Edieresis" xMin="20" yMin="0" xMax="1263" yMax="1805">
      <component glyphName="E" x="0" y="0" flags="0x204"/>
      <component glyphName="dieresis" x="134" y="349" flags="0x4"/>
    </TTGlyph>
    <TTGlyph name="Edieresis.smcp" xMin="25" yMin="0" xMax="1094" yMax="1482">
      <component glyphName="E.smcp" x="0" y="0" flags="0x204"/>
      <component glyphName="dieresis" x="26" y="26" flags="0x4"/>
    </TTGlyph>
    <TTGlyph name="Edotaccent" xMin="20" yMin="0" xMax="1263" yMax="1862">
      <component glyphName="E" x="0" y="0" flags="0x204"/>
      <component glyphName="dotaccent" x="322" y="387" flags="0x4"/>
    </TTGlyph>
    <TTGlyph name="Edotaccent.smcp" xMin="25" yMin="0" xMax="1074" yMax="1539">
      <component glyphName="E.smcp" x="0" y="0" flags="0x204"/>
      <component glyphName="dotaccent" x="214" y="64" flags="0x4"/>
    </TTGlyph>
    <TTGlyph name="Egrave" xMin="20" yMin="0" xMax="1263" yMax="1825">
      <component glyphName="E" x="0" y="0" flags="0x204"/>
      <component glyphName="grave" x="227" y="347" flags="0x4"/>
    </TTGlyph>
    <TTGlyph name="Egrave.smcp" xMin="25" yMin="0" xMax="1074" yMax="1502">
      <component glyphName="E.smcp" x="0" y="0" flags="0x204"/>
      <component glyphName="grave" x="119" y="24" flags="0x4"/>
    </TTGlyph>
    <TTGlyph name="Emacron" xMin="20" yMin="0" xMax="1263" yMax="1774">
      <component glyphName="E" x="0" y="0" flags="0x204"/>
      <component glyphName="macron" x="149" y="316" flags="0x4"/>
    </TTGlyph>
    <TTGlyph name="Emacron.smcp" xMin="25" yMin="0" xMax="1074" yMax="1453">
      <component glyphName="E.smcp" x="0" y="0" flags="0x204"/>
      <component glyphName="macron" x="41" y="-5" flags="0x4"/>
    </TTGlyph>
    <TTGlyph name="Eng" xMin="23" yMin="-437" xMax="1455" yMax="1456">
      <contour>
        <pt x="1455" y="1456" on="1"/>
        <pt x="1161" y="-15" on="1"/>
        <pt x="1117" y="-231" on="0"/>
        <pt x="875" y="-437" on="0"/>
        <pt x="687" y="-437" on="1"/>
        <pt x="647" y="-437" on="0"/>
        <pt x="575" y="-429" on="0"/>
        <pt x="538" y="-420" on="1"/>
        <pt x="602" y="-165" on="1"/>
        <pt x="628" y="-171" on="0"/>
        <pt x="663" y="-177" on="0"/>
        <pt x="693" y="-177" on="1"/>
        <pt x="738" y="-177" on="0"/>
        <pt x="811" y="-92" on="0"/>
        <pt x="827" y="-15" on="1"/>
        <pt x="830" y="0" on="1"/>
        <pt x="539" y="881" on="1"/>
        <pt x="533" y="880" on="1"/>
        <pt x="357" y="0" on="1"/>
        <pt x="23" y="0" on="1"/>
        <pt x="314" y="1456" on="1"/>
        <pt x="648" y="1456" on="1"/>
        <pt x="939" y="576" on="1"/>
        <pt x="945" y="577" on="1"/>
        <pt x="1121" y="1456" on="1"/>
      </contour>
    </TTGlyph>
    <TTGlyph name="Eogonek" xMin="20" yMin="-417" xMax="1263" yMax="1456">
      <component glyphName="E" x="0" y="0" flags="0x204"/>
      <component glyphName="ogonek" x="401" y="0" flags="0x4"/>
    </TTGlyph>
    <TTGlyph name="Eogonek.smcp" xMin="25" yMin="-417" xMax="1074" yMax="1165">
      <component glyphName="E.smcp" x="0" y="0" flags="0x204"/>
      <component glyphName="ogonek" x="369" y="0" flags="0x4"/>
    </TTGlyph>
    <TTGlyph name="Epsilon" xMin="20" yMin="0" xMax="1263" yMax="1456">
      <component glyphName="E" x="0" y="0" flags="0x204"/>
    </TTGlyph>
    <TTGlyph name="Epsilontonos" xMin="-10" yMin="0" xMax="1363" yMax="1620">
      <component glyphName="E" x="100" y="0" flags="0x4"/>
      <component glyphName="tonos" x="-431" y="2" flags="0x4"/>
    </TTGlyph>
    <TTGlyph name="Eta" xMin="20" yMin="0" xMax="1453" yMax="1456">
      <component glyphName="H" x="0" y="0" flags="0x204"/>
    </TTGlyph>
    <TTGlyph name="Etatonos" xMin="25" yMin="0" xMax="1553" yMax="1616">
      <component glyphName="H" x="100" y="0" flags="0x4"/>
      <component glyphName="tonos" x="-396" y="-2" flags="0x4"/>
    </TTGlyph>
    <TTGlyph name="Eth" xMin="50" yMin="0" xMax="1330" yMax="1456">
      <contour>
        <pt x="802" y="1456" on="1"/>
        <pt x="1029" y="1456" on="0"/>
        <pt x="1330" y="1104" on="0"/>
        <pt x="1279" y="849" on="1"/>
        <pt x="1226" y="587" on="1"/>
        <pt x="1170" y="304" on="0"/>
        <pt x="827" y="0" on="0"/>
        <pt x="585" y="0" on="1"/>
        <pt x="50" y="0" on="1"/>
        <pt x="179" y="647" on="1"/>
        <pt x="70" y="647" on="1"/>
        <pt x="108" y="838" on="1"/>
        <pt x="217" y="838" on="1"/>
        <pt x="341" y="1456" on="1"/>
      </contour>
      <contour>
        <pt x="715" y="647" on="1"/>
        <pt x="514" y="647" on="1"/>
        <pt x="437" y="260" on="1"/>
        <pt x="614" y="260" on="1"/>
        <pt x="722" y="260" on="0"/>
        <pt x="860" y="432" on="0"/>
        <pt x="891" y="587" on="1"/>
        <pt x="944" y="851" on="1"/>
        <pt x="975" y="1009" on="0"/>
        <pt x="852" y="1196" on="0"/>
        <pt x="727" y="1196" on="1"/>
        <pt x="624" y="1196" on="1"/>
        <pt x="552" y="838" on="1"/>
        <pt x="753" y="838" on="1"/>
      </contour>
    </TTGlyph>
    <TTGlyph name="Eth.smcp" xMin="-24" yMin="0" xMax="1150" yMax="1165">
      <component glyphName="D.smcp" x="0" y="0" flags="0x204"/>
      <component glyphName="crossbar" x="-226" y="-150" flags="0x4"/>
    </TTGlyph>
    <TTGlyph name="Euro" xMin="71" yMin="-21" xMax="1158" yMax="1477">
      <contour>
        <pt x="894" y="442" on="1"/>
        <pt x="540" y="442" on="1"/>
        <pt x="537" y="428" on="1"/>
        <pt x="517" y="339" on="0"/>
        <pt x="595" y="239" on="0"/>
        <pt x="691" y="239" on="1"/>
        <pt x="741" y="239" on="0"/>
        <pt x="851" y="256" on="0"/>
        <pt x="902" y="272" on="1"/>
        <pt x="871" y="10" on="1"/>
        <pt x="813" y="-5" on="0"/>
        <pt x="697" y="-21" on="0"/>
        <pt x="639" y="-21" on="1"/>
        <pt x="417" y="-21" on="0"/>
        <pt x="162" y="242" on="0"/>
        <pt x="202" y="428" on="1"/>
        <pt x="205" y="442" on="1"/>
        <pt x="71" y="442" on="1"/>
        <pt x="110" y="652" on="1"/>
        <pt x="243" y="652" on="1"/>
        <pt x="267" y="767" on="1"/>
        <pt x="134" y="767" on="1"/>
        <pt x="179" y="977" on="1"/>
        <pt x="311" y="977" on="1"/>
        <pt x="314" y="990" on="1"/>
        <pt x="356" y="1212" on="0"/>
        <pt x="695" y="1477" on="0"/>
        <pt x="936" y="1477" on="1"/>
        <pt x="988" y="1477" on="0"/>
        <pt x="1099" y="1460" on="0"/>
        <pt x="1158" y="1446" on="1"/>
        <pt x="1084" y="1182" on="1"/>
        <pt x="1038" y="1198" on="0"/>
        <pt x="937" y="1217" on="0"/>
        <pt x="884" y="1217" on="1"/>
        <pt x="798" y="1217" on="0"/>
        <pt x="665" y="1081" on="0"/>
        <pt x="650" y="992" on="1"/>
        <pt x="647" y="977" on="1"/>
        <pt x="1002" y="977" on="1"/>
        <pt x="957" y="767" on="1"/>
        <pt x="603" y="767" on="1"/>
        <pt x="578" y="652" on="1"/>
        <pt x="933" y="652" on="1"/>
      </contour>
    </TTGlyph>
    <TTGlyph name="F" xMin="20" yMin="0" xMax="1272" yMax="1456">
      <contour>
        <pt x="1003" y="586" on="1"/>
        <pt x="472" y="586" on="1"/>
        <pt x="355" y="0" on="1"/>
        <pt x="20" y="0" on="1"/>
        <pt x="311" y="1456" on="1"/>
        <pt x="1272" y="1456" on="1"/>
        <pt x="1220" y="1196" on="1"/>
        <pt x="594" y="1196" on="1"/>
        <pt x="524" y="846" on="1"/>
        <pt x="1055" y="846" on="1"/>
      </contour>
    </TTGlyph>
    <TTGlyph name="F.smcp" xMin="25" yMin="0" xMax="1106" yMax="1165">
      <contour>
        <pt x="881" y="443" on="1"/>
        <pt x="447" y="443" on="1"/>
        <pt x="359" y="0" on="1"/>
        <pt x="25" y="0" on="1"/>
        <pt x="258" y="1165" on="1"/>
        <pt x="1106" y="1165" on="1"/>
        <pt x="1054" y="907" on="1"/>
        <pt x="540" y="907" on="1"/>
        <pt x="499" y="702" on="1"/>
        <pt x="932" y="702" on="1"/>
      </contour>
    </TTGlyph>
    <TTGlyph name="G" xMin="59" yMin="-21" xMax="1316" yMax="1477">
      <contour>
        <pt x="1138" y="201" on="1"/>
        <pt x="1049" y="112" on="0"/>
        <pt x="760" y="-21" on="0"/>
        <pt x="560" y="-21" on="1"/>
        <pt x="324" y="-21" on="0"/>
        <pt x="59" y="316" on="0"/>
        <pt x="111" y="576" on="1"/>
        <pt x="172" y="880" on="1"/>
        <pt x="228" y="1161" on="0"/>
        <pt x="595" y="1477" on="0"/>
        <pt x="841" y="1477" on="1"/>
        <pt x="1088" y="1477" on="0"/>
        <pt x="1316" y="1211" on="0"/>
        <pt x="1289" y="991" on="1"/>
        <pt x="1287" y="986" on="1"/>
        <pt x="972" y="986" on="1"/>
        <pt x="979" y="1101" on="0"/>
        <pt x="903" y="1217" on="0"/>
        <pt x="800" y="1217" on="1"/>
        <pt x="705" y="1217" on="0"/>
        <pt x="534" y="1027" on="0"/>
        <pt x="505" y="882" on="1"/>
        <pt x="444" y="576" on="1"/>
        <pt x="411" y="414" on="0"/>
        <pt x="498" y="239" on="0"/>
        <pt x="612" y="239" on="1"/>
        <pt x="687" y="239" on="0"/>
        <pt x="789" y="269" on="0"/>
        <pt x="822" y="294" on="1"/>
        <pt x="868" y="524" on="1"/>
        <pt x="670" y="524" on="1"/>
        <pt x="715" y="748" on="1"/>
        <pt x="1248" y="748" on="1"/>
      </contour>
    </TTGlyph>
    <TTGlyph name="G.smcp" xMin="47" yMin="-17" xMax="1172" yMax="1181">
      <contour>
        <pt x="1040" y="163" on="1"/>
        <pt x="949" y="83" on="0"/>
        <pt x="698" y="-17" on="0"/>
        <pt x="508" y="-17" on="1"/>
        <pt x="296" y="-17" on="0"/>
        <pt x="47" y="253" on="0"/>
        <pt x="89" y="461" on="1"/>
        <pt x="138" y="704" on="1"/>
        <pt x="182" y="929" on="0"/>
        <pt x="506" y="1181" on="0"/>
        <pt x="729" y="1181" on="1"/>
        <pt x="940" y="1181" on="0"/>
        <pt x="1172" y="985" on="0"/>
        <pt x="1129" y="798" on="1"/>
        <pt x="1127" y="792" on="1"/>
        <pt x="802" y="792" on="1"/>
        <pt x="818" y="865" on="0"/>
        <pt x="767" y="924" on="0"/>
        <pt x="678" y="924" on="1"/>
        <pt x="605" y="924" on="0"/>
        <pt x="490" y="802" on="0"/>
        <pt x="471" y="705" on="1"/>
        <pt x="422" y="461" on="1"/>
        <pt x="400" y="355" on="0"/>
        <pt x="469" y="241" on="0"/>
        <pt x="559" y="241" on="1"/>
        <pt x="622" y="241" on="0"/>
        <pt x="698" y="257" on="0"/>
        <pt x="728" y="274" on="1"/>
        <pt x="757" y="420" on="1"/>
        <pt x="580" y="420" on="1"/>
        <pt x="622" y="632" on="1"/>
        <pt x="1133" y="632" on="1"/>
      </contour>
    </TTGlyph>
    <TTGlyph name="Gamma" xMin="20" yMin="0" xMax="1227" yMax="1456">
      <contour>
        <pt x="1175" y="1196" on="1"/>
        <pt x="595" y="1196" on="1"/>
        <pt x="356" y="0" on="1"/>
        <pt x="20" y="0" on="1"/>
        <pt x="311" y="1456" on="1"/>
        <pt x="1227" y="1456" on="1"/>
      </contour>
    </TTGlyph>
    <TTGlyph name="Gbreve" xMin="59" yMin="-21" xMax="1316" yMax="1929">
      <component glyphName="G" x="0" y="0" flags="0x204"/>
      <component glyphName="breve" x="321" y="473" flags="0x4"/>
    </TTGlyph>
    <TTGlyph name="Gbreve.smcp" xMin="47" yMin="-17" xMax="1172" yMax="1601">
      <component glyphName="G.smcp" x="0" y="0" flags="0x204"/>
      <component glyphName="breve" x="204" y="145" flags="0x4"/>
    </TTGlyph>
    <TTGlyph name="Gcircumflex" xMin="59" yMin="-21" xMax="1316" yMax="1874">
      <component glyphName="G" x="0" y="0" flags="0x204"/>
      <component glyphName="circumflex" x="212" y="356" flags="0x4"/>
    </TTGlyph>
    <TTGlyph name="Gcircumflex.smcp" xMin="47" yMin="-17" xMax="1172" yMax="1546">
      <component glyphName="G.smcp" x="0" y="0" flags="0x204"/>
      <component glyphName="circumflex" x="95" y="28" flags="0x4"/>
    </TTGlyph>
    <TTGlyph name="Gcommaaccent" xMin="59" yMin="-498" xMax="1316" yMax="1477">
      <component glyphName="G" x="0" y="0" flags="0x204"/>
      <component glyphName="commaaccent" x="379" y="-377" flags="0x4"/>
    </TTGlyph>
    <TTGlyph name="Gcommaaccent.smcp" xMin="47" yMin="-498" xMax="1172" yMax="1181">
      <component glyphName="G.smcp" x="0" y="0" flags="0x204"/>
      <component glyphName="commaaccent" x="324" y="-377" flags="0x4"/>
    </TTGlyph>
    <TTGlyph name="H" xMin="20" yMin="0" xMax="1453" yMax="1456">
      <contour>
        <pt x="1162" y="0" on="1"/>
        <pt x="829" y="0" on="1"/>
        <pt x="946" y="586" on="1"/>
        <pt x="472" y="586" on="1"/>
        <pt x="355" y="0" on="1"/>
        <pt x="20" y="0" on="1"/>
        <pt x="311" y="1456" on="1"/>
        <pt x="646" y="1456" on="1"/>
        <pt x="524" y="846" on="1"/>
        <pt x="998" y="846" on="1"/>
        <pt x="1120" y="1456" on="1"/>
        <pt x="1453" y="1456" on="1"/>
      </contour>
    </TTGlyph>
    <TTGlyph name="H.smcp" xMin="25" yMin="0" xMax="1291" yMax="1165">
      <contour>
        <pt x="1058" y="0" on="1"/>
        <pt x="724" y="0" on="1"/>
        <pt x="812" y="443" on="1"/>
        <pt x="447" y="443" on="1"/>
        <pt x="359" y="0" on="1"/>
        <pt x="25" y="0" on="1"/>
        <pt x="258" y="1165" on="1"/>
        <pt x="592" y="1165" on="1"/>
        <pt x="499" y="702" on="1"/>
        <pt x="864" y="702" on="1"/>
        <pt x="957" y="1165" on="1"/>
        <pt x="1291" y="1165" on="1"/>
      </contour>
    </TTGlyph>
    <TTGlyph name="Hbar" xMin="23" yMin="0" xMax="1512" yMax="1456">
      <contour>
        <pt x="1407" y="1213" on="1"/>
        <pt x="1512" y="1213" on="1"/>
        <pt x="1475" y="1030" on="1"/>
        <pt x="1371" y="1030" on="1"/>
        <pt x="1165" y="0" on="1"/>
        <pt x="832" y="0" on="1"/>
        <pt x="949" y="586" on="1"/>
        <pt x="475" y="586" on="1"/>
        <pt x="358" y="0" on="1"/>
        <pt x="23" y="0" on="1"/>
        <pt x="229" y="1030" on="1"/>
        <pt x="134" y="1030" on="1"/>
        <pt x="171" y="1213" on="1"/>
        <pt x="265" y="1213" on="1"/>
        <pt x="314" y="1456" on="1"/>
        <pt x="649" y="1456" on="1"/>
        <pt x="600" y="1213" on="1"/>
        <pt x="1074" y="1213" on="1"/>
        <pt x="1123" y="1456" on="1"/>
        <pt x="1456" y="1456" on="1"/>
      </contour>
      <contour>
        <pt x="527" y="846" on="1"/>
        <pt x="1001" y="846" on="1"/>
        <pt x="1038" y="1030" on="1"/>
        <pt x="564" y="1030" on="1"/>
      </contour>
    </TTGlyph>
    <TTGlyph name="Hcircumflex" xMin="20" yMin="0" xMax="1453" yMax="1853">
      <component glyphName="H" x="0" y="0" flags="0x204"/>
      <component glyphName="circumflex" x="252" y="335" flags="0x4"/>
    </TTGlyph>
    <TTGlyph name="Hcircumflex.smcp" xMin="25" yMin="0" xMax="1291" yMax="1530">
      <component glyphName="H.smcp" x="0" y="0" flags="0x204"/>
      <component glyphName="circumflex" x="128" y="12" flags="0x4"/>
    </TTGlyph>
    <TTGlyph name="I" xMin="40" yMin="0" xMax="664" yMax="1456">
      <contour>
        <pt x="373" y="0" on="1"/>
        <pt x="40" y="0" on="1"/>
        <pt x="331" y="1456" on="1"/>
        <pt x="664" y="1456" on="1"/>
      </contour>
    </TTGlyph>
    <TTGlyph name="I.smcp" xMin="25" yMin="0" xMax="593" yMax="1165">
      <contour>
        <pt x="360" y="0" on="1"/>
        <pt x="25" y="0" on="1"/>
        <pt x="258" y="1165" on="1"/>
        <pt x="593" y="1165" on="1"/>
      </contour>
    </TTGlyph>
    <TTGlyph name="IJ" xMin="40" yMin="-21" xMax="1804" yMax="1456">
      <component glyphName="I" x="0" y="0" flags="0x4"/>
      <component glyphName="J" x="584" y="0" flags="0x4"/>
    </TTGlyph>
    <TTGlyph name="Iacute" xMin="40" yMin="0" xMax="923" yMax="1827">
      <component glyphName="I" x="0" y="0" flags="0x204"/>
      <component glyphName="acute" x="130" y="349" flags="0x4"/>
    </TTGlyph>
    <TTGlyph name="Iacute.smcp" xMin="25" yMin="0" xMax="845" yMax="1504">
      <component glyphName="I.smcp" x="0" y="0" flags="0x204"/>
      <component glyphName="acute" x="52" y="26" flags="0x4"/>
    </TTGlyph>
    <TTGlyph name="Ibreve" xMin="40" yMin="0" xMax="922" yMax="1908">
      <component glyphName="I" x="0" y="0" flags="0x204"/>
      <component glyphName="breve" x="-24" y="452" flags="0x4"/>
    </TTGlyph>
    <TTGlyph name="Ibreve.smcp" xMin="25" yMin="0" xMax="844" yMax="1585">
      <component glyphName="I.smcp" x="0" y="0" flags="0x204"/>
      <component glyphName="breve" x="-102" y="129" flags="0x4"/>
    </TTGlyph>
    <TTGlyph name="Icircumflex" xMin="40" yMin="0" xMax="914" yMax="1853">
      <component glyphName="I" x="0" y="0" flags="0x204"/>
      <component glyphName="circumflex" x="-133" y="335" flags="0x4"/>
    </TTGlyph>
    <TTGlyph name="Icircumflex.smcp" xMin="25" yMin="0" xMax="836" yMax="1530">
      <component glyphName="I.smcp" x="0" y="0" flags="0x204"/>
      <component glyphName="circumflex" x="-211" y="12" flags="0x4"/>
    </TTGlyph>
    <TTGlyph name="Idieresis" xMin="40" yMin="0" xMax="942" yMax="1805">
      <component glyphName="I" x="0" y="0" flags="0x204"/>
      <component glyphName="dieresis" x="-126" y="349" flags="0x4"/>
    </TTGlyph>
    <TTGlyph name="Idieresis.smcp" xMin="25" yMin="0" xMax="864" yMax="1482">
      <component glyphName="I.smcp" x="0" y="0" flags="0x204"/>
      <component glyphName="dieresis" x="-204" y="26" flags="0x4"/>
    </TTGlyph>
    <TTGlyph name="Idotaccent" xMin="40" yMin="0" xMax="743" yMax="1862">
      <component glyphName="I" x="0" y="0" flags="0x204"/>
      <component glyphName="dotaccent" x="60" y="387" flags="0x4"/>
    </TTGlyph>
    <TTGlyph name="Idotaccent.smcp" xMin="25" yMin="0" xMax="667" yMax="1539">
      <component glyphName="I.smcp" x="0" y="0" flags="0x204"/>
      <component glyphName="dotaccent" x="-16" y="64" flags="0x4"/>
    </TTGlyph>
    <TTGlyph name="Igrave" xMin="40" yMin="0" xMax="698" yMax="1825">
      <component glyphName="I" x="0" y="0" flags="0x204"/>
      <component glyphName="grave" x="-33" y="347" flags="0x4"/>
    </TTGlyph>
    <TTGlyph name="Igrave.smcp" xMin="25" yMin="0" xMax="620" yMax="1502">
      <component glyphName="I.smcp" x="0" y="0" flags="0x204"/>
      <component glyphName="grave" x="-111" y="24" flags="0x4"/>
    </TTGlyph>
    <TTGlyph name="Imacron" xMin="40" yMin="0" xMax="902" yMax="1774">
      <component glyphName="I" x="0" y="0" flags="0x204"/>
      <component glyphName="macron" x="-111" y="316" flags="0x4"/>
    </TTGlyph>
    <TTGlyph name="Imacron.smcp" xMin="25" yMin="0" xMax="824" yMax="1453">
      <component glyphName="I.smcp" x="0" y="0" flags="0x204"/>
      <component glyphName="macron" x="-189" y="-5" flags="0x4"/>
    </TTGlyph>
    <TTGlyph name="Iogonek" xMin="-108" yMin="-417" xMax="664" yMax="1456">
      <component glyphName="I" x="0" y="0" flags="0x204"/>
      <component glyphName="ogonek" x="-50" y="0" flags="0x4"/>
    </TTGlyph>
    <TTGlyph name="Iogonek.smcp" xMin="-121" yMin="-417" xMax="593" yMax="1165">
      <component glyphName="I.smcp" x="0" y="0" flags="0x204"/>
      <component glyphName="ogonek" x="-63" y="0" flags="0x4"/>
    </TTGlyph>
    <TTGlyph name="Iota" xMin="40" yMin="0" xMax="664" yMax="1456">
      <component glyphName="I" x="0" y="0" flags="0x204"/>
    </TTGlyph>
    <TTGlyph name="Iotadieresis" xMin="40" yMin="0" xMax="942" yMax="1805">
      <component glyphName="I" x="0" y="0" flags="0x204"/>
      <component glyphName="dieresis" x="-126" y="349" flags="0x4"/>
    </TTGlyph>
    <TTGlyph name="Iotatonos" xMin="35" yMin="0" xMax="764" yMax="1620">
      <component glyphName="I" x="100" y="0" flags="0x4"/>
      <component glyphName="tonos" x="-386" y="2" flags="0x4"/>
    </TTGlyph>
    <TTGlyph name="Itilde" xMin="40" yMin="0" xMax="937" yMax="1912">
      <component glyphName="I" x="0" y="0" flags="0x204"/>
      <component glyphName="tilde" x="-72" y="381" flags="0x4"/>
    </TTGlyph>
    <TTGlyph name="Itilde.smcp" xMin="25" yMin="0" xMax="859" yMax="1589">
      <component glyphName="I.smcp" x="0" y="0" flags="0x204"/>
      <component glyphName="tilde" x="-150" y="58" flags="0x4"/>
    </TTGlyph>
    <TTGlyph name="J" xMin="13" yMin="-21" xMax="1220" yMax="1456">
      <contour>
        <pt x="887" y="1456" on="1"/>
        <pt x="1220" y="1456" on="1"/>
        <pt x="1020" y="457" on="1"/>
        <pt x="973" y="222" on="0"/>
        <pt x="657" y="-21" on="0"/>
        <pt x="448" y="-21" on="1"/>
        <pt x="239" y="-21" on="0"/>
        <pt x="13" y="211" on="0"/>
        <pt x="61" y="431" on="1"/>
        <pt x="63" y="436" on="1"/>
        <pt x="390" y="436" on="1"/>
        <pt x="367" y="324" on="0"/>
        <pt x="433" y="239" on="0"/>
        <pt x="500" y="239" on="1"/>
        <pt x="555" y="239" on="0"/>
        <pt x="666" y="355" on="0"/>
        <pt x="687" y="457" on="1"/>
      </contour>
    </TTGlyph>
    <TTGlyph name="J.smcp" xMin="-36" yMin="-21" xMax="1048" yMax="1165">
      <contour>
        <pt x="713" y="1165" on="1"/>
        <pt x="1048" y="1165" on="1"/>
        <pt x="895" y="399" on="1"/>
        <pt x="854" y="196" on="0"/>
        <pt x="569" y="-21" on="0"/>
        <pt x="372" y="-21" on="1"/>
        <pt x="177" y="-21" on="0"/>
        <pt x="-36" y="189" on="0"/>
        <pt x="6" y="378" on="1"/>
        <pt x="8" y="383" on="1"/>
        <pt x="335" y="383" on="1"/>
        <pt x="319" y="306" on="0"/>
        <pt x="377" y="238" on="0"/>
        <pt x="424" y="238" on="1"/>
        <pt x="467" y="238" on="0"/>
        <pt x="545" y="325" on="0"/>
        <pt x="560" y="399" on="1"/>
      </contour>
    </TTGlyph>
    <TTGlyph name="Jcircumflex" xMin="13" yMin="-21" xMax="1446" yMax="1853">
      <component glyphName="J" x="0" y="0" flags="0x204"/>
      <component glyphName="circumflex" x="399" y="335" flags="0x4"/>
    </TTGlyph>
    <TTGlyph name="Jcircumflex.smcp" xMin="-36" yMin="-21" xMax="1282" yMax="1535">
      <component glyphName="J.smcp" x="0" y="0" flags="0x204"/>
      <component glyphName="circumflex" x="235" y="17" flags="0x4"/>
    </TTGlyph>
    <TTGlyph name="K" xMin="25" yMin="0" xMax="1414" yMax="1456">
      <contour>
        <pt x="580" y="578" on="1"/>
        <pt x="475" y="578" on="1"/>
        <pt x="360" y="0" on="1"/>
        <pt x="25" y="0" on="1"/>
        <pt x="316" y="1456" on="1"/>
        <pt x="651" y="1456" on="1"/>
        <pt x="536" y="880" on="1"/>
        <pt x="639" y="880" on="1"/>
        <pt x="973" y="1456" on="1"/>
        <pt x="1414" y="1456" on="1"/>
        <pt x="889" y="738" on="1"/>
        <pt x="1139" y="0" on="1"/>
        <pt x="754" y="0" on="1"/>
      </contour>
    </TTGlyph>
    <TTGlyph name="K.smcp" xMin="25" yMin="0" xMax="1241" yMax="1165">
      <contour>
        <pt x="538" y="419" on="1"/>
        <pt x="443" y="419" on="1"/>
        <pt x="359" y="0" on="1"/>
        <pt x="25" y="0" on="1"/>
        <pt x="258" y="1165" on="1"/>
        <pt x="592" y="1165" on="1"/>
        <pt x="506" y="734" on="1"/>
        <pt x="583" y="734" on="1"/>
        <pt x="814" y="1165" on="1"/>
        <pt x="1241" y="1165" on="1"/>
        <pt x="871" y="624" on="1"/>
        <pt x="1013" y="0" on="1"/>
        <pt x="584" y="0" on="1"/>
      </contour>
    </TTGlyph>
    <TTGlyph name="Kappa" xMin="25" yMin="0" xMax="1414" yMax="1456">
      <component glyphName="K" x="0" y="0" flags="0x4"/>
    </TTGlyph>
    <TTGlyph name="Kcommaaccent" xMin="25" yMin="-496" xMax="1414" yMax="1456">
      <component glyphName="K" x="0" y="0" flags="0x4"/>
      <component glyphName="commaaccent" x="338" y="-375" flags="0x4"/>
    </TTGlyph>
    <TTGlyph name="Kcommaaccent.smcp" xMin="25" yMin="-498" xMax="1241" yMax="1165">
      <component glyphName="K.smcp" x="0" y="0" flags="0x204"/>
      <component glyphName="commaaccent" x="265" y="-377" flags="0x4"/>
    </TTGlyph>
    <TTGlyph name="L" xMin="20" yMin="0" xMax="982" yMax="1456">
      <contour>
        <pt x="407" y="260" on="1"/>
        <pt x="982" y="260" on="1"/>
        <pt x="930" y="0" on="1"/>
        <pt x="20" y="0" on="1"/>
        <pt x="311" y="1456" on="1"/>
        <pt x="646" y="1456" on="1"/>
      </contour>
    </TTGlyph>
    <TTGlyph name="L.smcp" xMin="25" yMin="0" xMax="830" yMax="1165">
      <contour>
        <pt x="410" y="258" on="1"/>
        <pt x="830" y="258" on="1"/>
        <pt x="778" y="0" on="1"/>
        <pt x="25" y="0" on="1"/>
        <pt x="258" y="1165" on="1"/>
        <pt x="592" y="1165" on="1"/>
      </contour>
    </TTGlyph>
    <TTGlyph name="Lacute" xMin="20" yMin="0" xMax="982" yMax="1827">
      <component glyphName="L" x="0" y="0" flags="0x204"/>
      <component glyphName="acute" x="116" y="349" flags="0x4"/>
    </TTGlyph>
    <TTGlyph name="Lacute.smcp" xMin="25" yMin="0" xMax="830" yMax="1504">
      <component glyphName="L.smcp" x="0" y="0" flags="0x204"/>
      <component glyphName="acute" x="35" y="26" flags="0x4"/>
    </TTGlyph>
    <TTGlyph name="Lambda" xMin="-81" yMin="0" xMax="1149" yMax="1456">
      <contour>
        <pt x="271" y="0" on="1"/>
        <pt x="-81" y="0" on="1"/>
        <pt x="646" y="1456" on="1"/>
        <pt x="1004" y="1456" on="1"/>
        <pt x="1149" y="0" on="1"/>
        <pt x="798" y="0" on="1"/>
        <pt x="767" y="1061" on="1"/>
        <pt x="765" y="1141" on="1"/>
        <pt x="759" y="1142" on="1"/>
        <pt x="727" y="1065" on="1"/>
      </contour>
    </TTGlyph>
    <TTGlyph name="Lcaron" xMin="20" yMin="0" xMax="1064" yMax="1460">
      <component glyphName="L" x="0" y="0" flags="0x204"/>
      <component glyphName="commaaccent" x="798" y="1175" flags="0x4"/>
    </TTGlyph>
    <TTGlyph name="Lcaron.smcp" xMin="25" yMin="0" xMax="973" yMax="1168">
      <component glyphName="L.smcp" x="0" y="0" flags="0x204"/>
      <component glyphName="commaaccent" x="707" y="883" flags="0x4"/>
    </TTGlyph>
    <TTGlyph name="Lcommaaccent" xMin="20" yMin="-496" xMax="982" yMax="1456">
      <component glyphName="L" x="0" y="0" flags="0x204"/>
      <component glyphName="commaaccent" x="284" y="-375" flags="0x4"/>
    </TTGlyph>
    <TTGlyph name="Lcommaaccent.smcp" xMin="25" yMin="-498" xMax="830" yMax="1165">
      <component glyphName="L.smcp" x="0" y="0" flags="0x204"/>
      <component glyphName="commaaccent" x="196" y="-377" flags="0x4"/>
    </TTGlyph>
    <TTGlyph name="Ldot" xMin="20" yMin="0" xMax="982" yMax="1456">
      <component glyphName="L" x="0" y="0" flags="0x204"/>
      <component glyphName="dotaccent" x="283" y="-537" flags="0x4"/>
    </TTGlyph>
    <TTGlyph name="Ldot.smcp" xMin="25" yMin="0" xMax="909" yMax="1165">
      <component glyphName="L.smcp" x="0" y="0" flags="0x204"/>
      <component glyphName="dotaccent" x="226" y="-707" flags="0x4"/>
    </TTGlyph>
    <TTGlyph name="Lslash" xMin="12" yMin="0" xMax="974" yMax="1456">
      <contour>
        <pt x="528" y="906" on="1"/>
        <pt x="749" y="967" on="1"/>
        <pt x="708" y="759" on="1"/>
        <pt x="486" y="698" on="1"/>
        <pt x="399" y="260" on="1"/>
        <pt x="974" y="260" on="1"/>
        <pt x="922" y="0" on="1"/>
        <pt x="12" y="0" on="1"/>
        <pt x="132" y="600" on="1"/>
        <pt x="30" y="572" on="1"/>
        <pt x="72" y="780" on="1"/>
        <pt x="173" y="808" on="1"/>
        <pt x="303" y="1456" on="1"/>
        <pt x="638" y="1456" on="1"/>
      </contour>
    </TTGlyph>
    <TTGlyph name="M" xMin="20" yMin="0" xMax="1768" yMax="1456">
      <contour>
        <pt x="750" y="1456" on="1"/>
        <pt x="831" y="439" on="1"/>
        <pt x="837" y="438" on="1"/>
        <pt x="1328" y="1456" on="1"/>
        <pt x="1768" y="1456" on="1"/>
        <pt x="1477" y="0" on="1"/>
        <pt x="1142" y="0" on="1"/>
        <pt x="1214" y="361" on="1"/>
        <pt x="1369" y="985" on="1"/>
        <pt x="1363" y="987" on="1"/>
        <pt x="859" y="0" on="1"/>
        <pt x="634" y="0" on="1"/>
        <pt x="527" y="978" on="1"/>
        <pt x="521" y="978" on="1"/>
        <pt x="427" y="361" on="1"/>
        <pt x="355" y="0" on="1"/>
        <pt x="20" y="0" on="1"/>
        <pt x="311" y="1456" on="1"/>
      </contour>
    </TTGlyph>
    <TTGlyph name="M.smcp" xMin="25" yMin="0" xMax="1503" yMax="1165">
      <contour>
        <pt x="1054" y="585" on="1"/>
        <pt x="1048" y="587" on="1"/>
        <pt x="752" y="0" on="1"/>
        <pt x="530" y="0" on="1"/>
        <pt x="473" y="541" on="1"/>
        <pt x="467" y="541" on="1"/>
        <pt x="359" y="0" on="1"/>
        <pt x="25" y="0" on="1"/>
        <pt x="258" y="1165" on="1"/>
        <pt x="666" y="1165" on="1"/>
        <pt x="714" y="384" on="1"/>
        <pt x="720" y="383" on="1"/>
        <pt x="1084" y="1165" on="1"/>
        <pt x="1503" y="1165" on="1"/>
        <pt x="1270" y="0" on="1"/>
        <pt x="937" y="0" on="1"/>
      </contour>
    </TTGlyph>
    <TTGlyph name="Mu" xMin="20" yMin="0" xMax="1768" yMax="1456">
      <component glyphName="M" x="0" y="0" flags="0x204"/>
    </TTGlyph>
    <TTGlyph name="N" xMin="20" yMin="0" xMax="1453" yMax="1456">
      <contour>
        <pt x="1162" y="0" on="1"/>
        <pt x="828" y="0" on="1"/>
        <pt x="540" y="894" on="1"/>
        <pt x="534" y="893" on="1"/>
        <pt x="355" y="0" on="1"/>
        <pt x="20" y="0" on="1"/>
        <pt x="311" y="1456" on="1"/>
        <pt x="646" y="1456" on="1"/>
        <pt x="934" y="562" on="1"/>
        <pt x="940" y="563" on="1"/>
        <pt x="1119" y="1456" on="1"/>
        <pt x="1453" y="1456" on="1"/>
      </contour>
    </TTGlyph>
    <TTGlyph name="N.smcp" xMin="25" yMin="0" xMax="1263" yMax="1165">
      <contour>
        <pt x="1030" y="0" on="1"/>
        <pt x="696" y="0" on="1"/>
        <pt x="485" y="602" on="1"/>
        <pt x="479" y="602" on="1"/>
        <pt x="359" y="0" on="1"/>
        <pt x="25" y="0" on="1"/>
        <pt x="258" y="1165" on="1"/>
        <pt x="592" y="1165" on="1"/>
        <pt x="802" y="564" on="1"/>
        <pt x="808" y="564" on="1"/>
        <pt x="929" y="1165" on="1"/>
        <pt x="1263" y="1165" on="1"/>
      </contour>
    </TTGlyph>
    <TTGlyph name="Nacute" xMin="20" yMin="0" xMax="1453" yMax="1827">
      <component glyphName="N" x="0" y="0" flags="0x204"/>
      <component glyphName="acute" x="515" y="349" flags="0x4"/>
    </TTGlyph>
    <TTGlyph name="Nacute.smcp" xMin="25" yMin="0" xMax="1263" yMax="1504">
      <component glyphName="N.smcp" x="0" y="0" flags="0x204"/>
      <component glyphName="acute" x="376" y="26" flags="0x4"/>
    </TTGlyph>
    <TTGlyph name="Ncaron" xMin="20" yMin="0" xMax="1453" yMax="1877">
      <component glyphName="N" x="0" y="0" flags="0x204"/>
      <component glyphName="caron" x="275" y="349" flags="0x4"/>
    </TTGlyph>
    <TTGlyph name="Ncaron.smcp" xMin="25" yMin="0" xMax="1263" yMax="1554">
      <component glyphName="N.smcp" x="0" y="0" flags="0x204"/>
      <component glyphName="caron" x="136" y="26" flags="0x4"/>
    </TTGlyph>
    <TTGlyph name="Ncommaaccent" xMin="20" yMin="-496" xMax="1453" yMax="1456">
      <component glyphName="N" x="0" y="0" flags="0x204"/>
      <component glyphName="commaaccent" x="402" y="-375" flags="0x4"/>
    </TTGlyph>
    <TTGlyph name="Ncommaaccent.smcp" xMin="25" yMin="-498" xMax="1263" yMax="1165">
      <component glyphName="N.smcp" x="0" y="0" flags="0x204"/>
      <component glyphName="commaaccent" x="327" y="-377" flags="0x4"/>
    </TTGlyph>
    <TTGlyph name="Ntilde" xMin="20" yMin="0" xMax="1453" yMax="1912">
      <component glyphName="N" x="0" y="0" flags="0x204"/>
      <component glyphName="tilde" x="311" y="381" flags="0x4"/>
    </TTGlyph>
    <TTGlyph name="Ntilde.smcp" xMin="25" yMin="0" xMax="1263" yMax="1589">
      <component glyphName="N.smcp" x="0" y="0" flags="0x204"/>
      <component glyphName="tilde" x="172" y="58" flags="0x4"/>
    </TTGlyph>
    <TTGlyph name="Nu" xMin="20" yMin="0" xMax="1453" yMax="1456">
      <component glyphName="N" x="0" y="0" flags="0x204"/>
    </TTGlyph>
    <TTGlyph name="O" xMin="59" yMin="-21" xMax="1375" yMax="1477">
      <contour>
        <pt x="1271" y="597" on="1"/>
        <pt x="1213" y="308" on="0"/>
        <pt x="856" y="-21" on="0"/>
        <pt x="597" y="-21" on="1"/>
        <pt x="353" y="-21" on="0"/>
        <pt x="59" y="336" on="0"/>
        <pt x="111" y="597" on="1"/>
        <pt x="164" y="859" on="1"/>
        <pt x="222" y="1149" on="0"/>
        <pt x="570" y="1477" on="0"/>
        <pt x="829" y="1477" on="1"/>
        <pt x="1073" y="1477" on="0"/>
        <pt x="1375" y="1118" on="0"/>
        <pt x="1324" y="859" on="1"/>
      </contour>
      <contour>
        <pt x="991" y="861" on="1"/>
        <pt x="1023" y="1021" on="0"/>
        <pt x="900" y="1217" on="0"/>
        <pt x="777" y="1217" on="1"/>
        <pt x="668" y="1217" on="0"/>
        <pt x="529" y="1023" on="0"/>
        <pt x="497" y="861" on="1"/>
        <pt x="444" y="597" on="1"/>
        <pt x="411" y="433" on="0"/>
        <pt x="524" y="239" on="0"/>
        <pt x="649" y="239" on="1"/>
        <pt x="756" y="239" on="0"/>
        <pt x="906" y="437" on="0"/>
        <pt x="938" y="597" on="1"/>
      </contour>
    </TTGlyph>
    <TTGlyph name="O.smcp" xMin="41" yMin="-21" xMax="1167" yMax="1181">
      <contour>
        <pt x="1077" y="461" on="1"/>
        <pt x="1032" y="234" on="0"/>
        <pt x="709" y="-21" on="0"/>
        <pt x="485" y="-21" on="1"/>
        <pt x="280" y="-21" on="0"/>
        <pt x="41" y="253" on="0"/>
        <pt x="83" y="461" on="1"/>
        <pt x="132" y="704" on="1"/>
        <pt x="176" y="929" on="0"/>
        <pt x="499" y="1181" on="0"/>
        <pt x="724" y="1181" on="1"/>
        <pt x="929" y="1181" on="0"/>
        <pt x="1167" y="911" on="0"/>
        <pt x="1126" y="704" on="1"/>
      </contour>
      <contour>
        <pt x="793" y="705" on="1"/>
        <pt x="811" y="800" on="0"/>
        <pt x="749" y="924" on="0"/>
        <pt x="673" y="924" on="1"/>
        <pt x="599" y="924" on="0"/>
        <pt x="482" y="793" on="0"/>
        <pt x="465" y="705" on="1"/>
        <pt x="416" y="461" on="1"/>
        <pt x="396" y="365" on="0"/>
        <pt x="457" y="238" on="0"/>
        <pt x="537" y="238" on="1"/>
        <pt x="607" y="238" on="0"/>
        <pt x="726" y="373" on="0"/>
        <pt x="744" y="461" on="1"/>
      </contour>
    </TTGlyph>
    <TTGlyph name="OE" xMin="68" yMin="-21" xMax="2018" yMax="1477">
      <contour>
        <pt x="1725" y="0" on="1"/>
        <pt x="863" y="0" on="1"/>
        <pt x="776" y="-10" on="0"/>
        <pt x="655" y="-21" on="0"/>
        <pt x="594" y="-21" on="1"/>
        <pt x="347" y="-21" on="0"/>
        <pt x="68" y="316" on="0"/>
        <pt x="120" y="576" on="1"/>
        <pt x="181" y="880" on="1"/>
        <pt x="237" y="1162" on="0"/>
        <pt x="622" y="1477" on="0"/>
        <pt x="891" y="1477" on="1"/>
        <pt x="950" y="1477" on="0"/>
        <pt x="1086" y="1465" on="0"/>
        <pt x="1154" y="1456" on="1"/>
        <pt x="2018" y="1456" on="1"/>
        <pt x="1966" y="1196" on="1"/>
        <pt x="1349" y="1196" on="1"/>
        <pt x="1286" y="883" on="1"/>
        <pt x="1807" y="883" on="1"/>
        <pt x="1755" y="623" on="1"/>
        <pt x="1234" y="623" on="1"/>
        <pt x="1162" y="260" on="1"/>
        <pt x="1777" y="260" on="1"/>
      </contour>
      <contour>
        <pt x="646" y="239" on="1"/>
        <pt x="687" y="239" on="0"/>
        <pt x="779" y="245" on="0"/>
        <pt x="825" y="252" on="1"/>
        <pt x="1015" y="1203" on="1"/>
        <pt x="969" y="1209" on="0"/>
        <pt x="882" y="1217" on="0"/>
        <pt x="839" y="1217" on="1"/>
        <pt x="725" y="1217" on="0"/>
        <pt x="546" y="1043" on="0"/>
        <pt x="514" y="882" on="1"/>
        <pt x="453" y="576" on="1"/>
        <pt x="418" y="400" on="0"/>
        <pt x="521" y="239" on="0"/>
      </contour>
    </TTGlyph>
    <TTGlyph name="Oacute" xMin="59" yMin="-21" xMax="1375" yMax="1848">
      <component glyphName="O" x="0" y="0" flags="0x204"/>
      <component glyphName="acute" x="502" y="370" flags="0x4"/>
    </TTGlyph>
    <TTGlyph name="Oacute.smcp" xMin="41" yMin="-21" xMax="1167" yMax="1525">
      <component glyphName="O.smcp" x="0" y="0" flags="0x204"/>
      <component glyphName="acute" x="342" y="47" flags="0x4"/>
    </TTGlyph>
    <TTGlyph name="Obreve" xMin="59" yMin="-21" xMax="1375" yMax="1929">
      <component glyphName="O" x="0" y="0" flags="0x204"/>
      <component glyphName="breve" x="346" y="473" flags="0x4"/>
    </TTGlyph>
    <TTGlyph name="Obreve.smcp" xMin="41" yMin="-21" xMax="1167" yMax="1606">
      <component glyphName="O.smcp" x="0" y="0" flags="0x204"/>
      <component glyphName="breve" x="186" y="150" flags="0x4"/>
    </TTGlyph>
    <TTGlyph name="Ocircumflex" xMin="59" yMin="-21" xMax="1375" yMax="1874">
      <component glyphName="O" x="0" y="0" flags="0x204"/>
      <component glyphName="circumflex" x="237" y="356" flags="0x4"/>
    </TTGlyph>
    <TTGlyph name="Ocircumflex.smcp" xMin="41" yMin="-21" xMax="1167" yMax="1551">
      <component glyphName="O.smcp" x="0" y="0" flags="0x204"/>
      <component glyphName="circumflex" x="77" y="33" flags="0x4"/>
    </TTGlyph>
    <TTGlyph name="Odieresis" xMin="59" yMin="-21" xMax="1375" yMax="1826">
      <component glyphName="O" x="0" y="0" flags="0x204"/>
      <component glyphName="dieresis" x="244" y="370" flags="0x4"/>
    </TTGlyph>
    <TTGlyph name="Odieresis.smcp" xMin="41" yMin="-21" xMax="1167" yMax="1503">
      <component glyphName="O.smcp" x="0" y="0" flags="0x204"/>
      <component glyphName="dieresis" x="84" y="47" flags="0x4"/>
    </TTGlyph>
    <TTGlyph name="Ograve" xMin="59" yMin="-21" xMax="1375" yMax="1846">
      <component glyphName="O" x="0" y="0" flags="0x204"/>
      <component glyphName="grave" x="337" y="368" flags="0x4"/>
    </TTGlyph>
    <TTGlyph name="Ograve.smcp" xMin="41" yMin="-21" xMax="1167" yMax="1523">
      <component glyphName="O.smcp" x="0" y="0" flags="0x204"/>
      <component glyphName="grave" x="177" y="45" flags="0x4"/>
    </TTGlyph>
    <TTGlyph name="Ohorn" xMin="66" yMin="-21" xMax="1708" yMax="1596">
      <contour>
        <pt x="1278" y="597" on="1"/>
        <pt x="1221" y="311" on="0"/>
        <pt x="839" y="-21" on="0"/>
        <pt x="577" y="-21" on="1"/>
        <pt x="335" y="-21" on="0"/>
        <pt x="66" y="334" on="0"/>
        <pt x="118" y="597" on="1"/>
        <pt x="171" y="859" on="1"/>
        <pt x="228" y="1144" on="0"/>
        <pt x="610" y="1477" on="0"/>
        <pt x="874" y="1477" on="1"/>
        <pt x="993" y="1477" on="0"/>
        <pt x="1190" y="1379" on="0"/>
        <pt x="1254" y="1292" on="1"/>
        <pt x="1343" y="1327" on="0"/>
        <pt x="1465" y="1484" on="0"/>
        <pt x="1488" y="1596" on="1"/>
        <pt x="1708" y="1596" on="1"/>
        <pt x="1668" y="1396" on="0"/>
        <pt x="1480" y="1143" on="0"/>
        <pt x="1337" y="1087" on="1"/>
        <pt x="1345" y="1033" on="0"/>
        <pt x="1342" y="918" on="0"/>
        <pt x="1331" y="859" on="1"/>
      </contour>
      <contour>
        <pt x="998" y="861" on="1"/>
        <pt x="1031" y="1027" on="0"/>
        <pt x="942" y="1217" on="0"/>
        <pt x="822" y="1217" on="1"/>
        <pt x="710" y="1217" on="0"/>
        <pt x="534" y="1014" on="0"/>
        <pt x="504" y="861" on="1"/>
        <pt x="451" y="597" on="1"/>
        <pt x="417" y="429" on="0"/>
        <pt x="507" y="239" on="0"/>
        <pt x="629" y="239" on="1"/>
        <pt x="738" y="239" on="0"/>
        <pt x="914" y="443" on="0"/>
        <pt x="945" y="597" on="1"/>
      </contour>
    </TTGlyph>
    <TTGlyph name="Ohungarumlaut" xMin="59" yMin="-21" xMax="1503" yMax="1888">
      <component glyphName="O" x="0" y="0" flags="0x204"/>
      <component glyphName="hungarumlaut" x="243" y="370" flags="0x4"/>
    </TTGlyph>
    <TTGlyph name="Ohungarumlaut.smcp" xMin="41" yMin="-21" xMax="1343" yMax="1565">
      <component glyphName="O.smcp" x="0" y="0" flags="0x204"/>
      <component glyphName="hungarumlaut" x="83" y="47" flags="0x4"/>
    </TTGlyph>
    <TTGlyph name="Omacron" xMin="59" yMin="-21" xMax="1375" yMax="1795">
      <component glyphName="O" x="0" y="0" flags="0x204"/>
      <component glyphName="macron" x="259" y="337" flags="0x4"/>
    </TTGlyph>
    <TTGlyph name="Omacron.smcp" xMin="41" yMin="-21" xMax="1167" yMax="1472">
      <component glyphName="O.smcp" x="0" y="0" flags="0x204"/>
      <component glyphName="macron" x="99" y="14" flags="0x4"/>
    </TTGlyph>
    <TTGlyph name="Omega" xMin="41" yMin="0" xMax="1330" yMax="1477">
      <contour>
        <pt x="634" y="160" on="1"/>
        <pt x="642" y="201" on="1"/>
        <pt x="655" y="264" on="1"/>
        <pt x="656" y="268" on="1"/>
        <pt x="721" y="308" on="0"/>
        <pt x="836" y="557" on="0"/>
        <pt x="883" y="788" on="1"/>
        <pt x="899" y="869" on="1"/>
        <pt x="934" y="1048" on="0"/>
        <pt x="881" y="1211" on="0"/>
        <pt x="801" y="1206" on="1"/>
        <pt x="795" y="1207" on="1"/>
        <pt x="724" y="1211" on="0"/>
        <pt x="597" y="1033" on="0"/>
        <pt x="565" y="869" on="1"/>
        <pt x="549" y="788" on="1"/>
        <pt x="498" y="537" on="0"/>
        <pt x="515" y="307" on="0"/>
        <pt x="572" y="268" on="1"/>
        <pt x="571" y="264" on="1"/>
        <pt x="550" y="160" on="1"/>
        <pt x="518" y="0" on="1"/>
        <pt x="41" y="0" on="1"/>
        <pt x="94" y="264" on="1"/>
        <pt x="328" y="264" on="1"/>
        <pt x="228" y="351" on="0"/>
        <pt x="135" y="626" on="0"/>
        <pt x="168" y="788" on="1"/>
        <pt x="183" y="867" on="1"/>
        <pt x="240" y="1152" on="0"/>
        <pt x="604" y="1477" on="0"/>
        <pt x="851" y="1477" on="1"/>
        <pt x="1077" y="1477" on="0"/>
        <pt x="1330" y="1129" on="0"/>
        <pt x="1277" y="867" on="1"/>
        <pt x="1262" y="788" on="1"/>
        <pt x="1227" y="616" on="0"/>
        <pt x="1032" y="348" on="0"/>
        <pt x="902" y="264" on="1"/>
        <pt x="1133" y="264" on="1"/>
        <pt x="1080" y="0" on="1"/>
        <pt x="602" y="0" on="1"/>
      </contour>
    </TTGlyph>
    <TTGlyph name="Omegatonos" xMin="61" yMin="0" xMax="1350" yMax="1618">
      <component glyphName="Omega" x="20" y="0" flags="0x4"/>
      <component glyphName="tonos" x="-321" y="0" flags="0x4"/>
    </TTGlyph>
    <TTGlyph name="Omicron" xMin="59" yMin="-21" xMax="1375" yMax="1477">
      <component glyphName="O" x="0" y="0" flags="0x204"/>
    </TTGlyph>
    <TTGlyph name="Omicrontonos" xMin="79" yMin="-21" xMax="1395" yMax="1618">
      <component glyphName="O" x="20" y="0" flags="0x4"/>
      <component glyphName="tonos" x="-305" y="0" flags="0x4"/>
    </TTGlyph>
    <TTGlyph name="Oslash" xMin="88" yMin="-95" xMax="1420" yMax="1518">
      <contour>
        <pt x="1279" y="597" on="1"/>
        <pt x="1222" y="311" on="0"/>
        <pt x="840" y="-21" on="0"/>
        <pt x="578" y="-21" on="1"/>
        <pt x="509" y="-21" on="0"/>
        <pt x="386" y="10" on="0"/>
        <pt x="334" y="41" on="1"/>
        <pt x="234" y="-95" on="1"/>
        <pt x="99" y="-95" on="1"/>
        <pt x="246" y="106" on="1"/>
        <pt x="158" y="191" on="0"/>
        <pt x="88" y="446" on="0"/>
        <pt x="119" y="597" on="1"/>
        <pt x="172" y="859" on="1"/>
        <pt x="229" y="1144" on="0"/>
        <pt x="611" y="1477" on="0"/>
        <pt x="875" y="1477" on="1"/>
        <pt x="963" y="1477" on="0"/>
        <pt x="1118" y="1423" on="0"/>
        <pt x="1179" y="1373" on="1"/>
        <pt x="1285" y="1518" on="1"/>
        <pt x="1420" y="1518" on="1"/>
        <pt x="1254" y="1293" on="1"/>
        <pt x="1315" y="1208" on="0"/>
        <pt x="1357" y="986" on="0"/>
        <pt x="1332" y="859" on="1"/>
      </contour>
      <contour>
        <pt x="452" y="597" on="1"/>
        <pt x="439" y="531" on="0"/>
        <pt x="436" y="424" on="0"/>
        <pt x="448" y="389" on="1"/>
        <pt x="454" y="387" on="1"/>
        <pt x="990" y="1117" on="1"/>
        <pt x="968" y="1165" on="0"/>
        <pt x="884" y="1217" on="0"/>
        <pt x="823" y="1217" on="1"/>
        <pt x="711" y="1217" on="0"/>
        <pt x="535" y="1014" on="0"/>
        <pt x="505" y="861" on="1"/>
      </contour>
      <contour>
        <pt x="999" y="861" on="1"/>
        <pt x="1004" y="889" on="0"/>
        <pt x="1011" y="937" on="0"/>
        <pt x="1011" y="952" on="1"/>
        <pt x="1005" y="954" on="1"/>
        <pt x="507" y="277" on="1"/>
        <pt x="530" y="258" on="0"/>
        <pt x="591" y="239" on="0"/>
        <pt x="630" y="239" on="1"/>
        <pt x="739" y="239" on="0"/>
        <pt x="915" y="443" on="0"/>
        <pt x="946" y="597" on="1"/>
      </contour>
    </TTGlyph>
    <TTGlyph name="Oslashacute" xMin="88" yMin="-95" xMax="1420" yMax="1889">
      <component glyphName="Oslash" x="0" y="0" flags="0x204"/>
      <component glyphName="acute" x="528" y="411" flags="0x4"/>
    </TTGlyph>
    <TTGlyph name="Otilde" xMin="59" yMin="-21" xMax="1375" yMax="1933">
      <component glyphName="O" x="0" y="0" flags="0x204"/>
      <component glyphName="tilde" x="298" y="402" flags="0x4"/>
    </TTGlyph>
    <TTGlyph name="Otilde.smcp" xMin="41" yMin="-21" xMax="1167" yMax="1610">
      <component glyphName="O.smcp" x="0" y="0" flags="0x204"/>
      <component glyphName="tilde" x="138" y="79" flags="0x4"/>
    </TTGlyph>
    <TTGlyph name="P" xMin="20" yMin="0" xMax="1346" yMax="1456">
      <contour>
        <pt x="454" y="499" on="1"/>
        <pt x="355" y="0" on="1"/>
        <pt x="20" y="0" on="1"/>
        <pt x="311" y="1456" on="1"/>
        <pt x="870" y="1456" on="1"/>
        <pt x="1097" y="1456" on="0"/>
        <pt x="1346" y="1187" on="0"/>
        <pt x="1304" y="977" on="1"/>
        <pt x="1258" y="749" on="0"/>
        <pt x="927" y="499" on="0"/>
        <pt x="679" y="499" on="1"/>
      </contour>
      <contour>
        <pt x="506" y="759" on="1"/>
        <pt x="731" y="759" on="1"/>
        <pt x="821" y="759" on="0"/>
        <pt x="951" y="882" on="0"/>
        <pt x="970" y="975" on="1"/>
        <pt x="990" y="1077" on="0"/>
        <pt x="916" y="1196" on="0"/>
        <pt x="818" y="1196" on="1"/>
        <pt x="594" y="1196" on="1"/>
      </contour>
    </TTGlyph>
    <TTGlyph name="P.smcp" xMin="25" yMin="0" xMax="1193" yMax="1165">
      <contour>
        <pt x="426" y="337" on="1"/>
        <pt x="359" y="0" on="1"/>
        <pt x="25" y="0" on="1"/>
        <pt x="258" y="1165" on="1"/>
        <pt x="750" y="1165" on="1"/>
        <pt x="954" y="1165" on="0"/>
        <pt x="1193" y="928" on="0"/>
        <pt x="1158" y="751" on="1"/>
        <pt x="1119" y="558" on="0"/>
        <pt x="806" y="337" on="0"/>
        <pt x="584" y="337" on="1"/>
      </contour>
      <contour>
        <pt x="478" y="596" on="1"/>
        <pt x="636" y="596" on="1"/>
        <pt x="701" y="596" on="0"/>
        <pt x="813" y="687" on="0"/>
        <pt x="826" y="749" on="1"/>
        <pt x="839" y="817" on="0"/>
        <pt x="769" y="907" on="0"/>
        <pt x="698" y="907" on="1"/>
        <pt x="540" y="907" on="1"/>
      </contour>
    </TTGlyph>
    <TTGlyph name="Phi" xMin="81" yMin="0" xMax="1577" yMax="1456">
      <contour>
        <pt x="1113" y="1291" on="1"/>
        <pt x="1335" y="1276" on="0"/>
        <pt x="1577" y="963" on="0"/>
        <pt x="1529" y="719" on="1"/>
        <pt x="1477" y="459" on="0"/>
        <pt x="1134" y="175" on="0"/>
        <pt x="888" y="165" on="1"/>
        <pt x="855" y="0" on="1"/>
        <pt x="521" y="0" on="1"/>
        <pt x="554" y="165" on="1"/>
        <pt x="328" y="177" on="0"/>
        <pt x="81" y="479" on="0"/>
        <pt x="129" y="717" on="1"/>
        <pt x="183" y="985" on="0"/>
        <pt x="530" y="1280" on="0"/>
        <pt x="779" y="1291" on="1"/>
        <pt x="812" y="1456" on="1"/>
        <pt x="1146" y="1456" on="1"/>
      </contour>
      <contour>
        <pt x="456" y="717" on="1"/>
        <pt x="429" y="586" on="0"/>
        <pt x="513" y="457" on="0"/>
        <pt x="606" y="454" on="1"/>
        <pt x="612" y="455" on="1"/>
        <pt x="720" y="996" on="1"/>
        <pt x="714" y="999" on="1"/>
        <pt x="626" y="992" on="0"/>
        <pt x="481" y="845" on="0"/>
      </contour>
      <contour>
        <pt x="1203" y="719" on="1"/>
        <pt x="1230" y="858" on="0"/>
        <pt x="1151" y="996" on="0"/>
        <pt x="1060" y="1000" on="1"/>
        <pt x="1054" y="999" on="1"/>
        <pt x="946" y="459" on="1"/>
        <pt x="951" y="456" on="1"/>
        <pt x="1037" y="462" on="0"/>
        <pt x="1178" y="600" on="0"/>
      </contour>
    </TTGlyph>
    <TTGlyph name="Pi" xMin="20" yMin="0" xMax="1453" yMax="1456">
      <contour>
        <pt x="1162" y="0" on="1"/>
        <pt x="828" y="0" on="1"/>
        <pt x="1067" y="1196" on="1"/>
        <pt x="594" y="1196" on="1"/>
        <pt x="355" y="0" on="1"/>
        <pt x="20" y="0" on="1"/>
        <pt x="311" y="1456" on="1"/>
        <pt x="1453" y="1456" on="1"/>
      </contour>
    </TTGlyph>
    <TTGlyph name="Psi" xMin="90" yMin="0" xMax="1601" yMax="1456">
      <contour>
        <pt x="933" y="638" on="1"/>
        <pt x="938" y="635" on="1"/>
        <pt x="1022" y="650" on="0"/>
        <pt x="1138" y="817" on="0"/>
        <pt x="1169" y="969" on="1"/>
        <pt x="1266" y="1456" on="1"/>
        <pt x="1601" y="1456" on="1"/>
        <pt x="1504" y="969" on="1"/>
        <pt x="1446" y="684" on="0"/>
        <pt x="1122" y="382" on="0"/>
        <pt x="877" y="358" on="1"/>
        <pt x="806" y="0" on="1"/>
        <pt x="473" y="0" on="1"/>
        <pt x="544" y="357" on="1"/>
        <pt x="317" y="380" on="0"/>
        <pt x="90" y="703" on="0"/>
        <pt x="144" y="969" on="1"/>
        <pt x="241" y="1456" on="1"/>
        <pt x="574" y="1456" on="1"/>
        <pt x="477" y="969" on="1"/>
        <pt x="444" y="809" on="0"/>
        <pt x="504" y="647" on="0"/>
        <pt x="593" y="634" on="1"/>
        <pt x="599" y="634" on="1"/>
        <pt x="764" y="1456" on="1"/>
        <pt x="1097" y="1456" on="1"/>
      </contour>
    </TTGlyph>
    <TTGlyph name="Q" xMin="67" yMin="-235" xMax="1383" yMax="1477">
      <contour>
        <pt x="1279" y="597" on="1"/>
        <pt x="1251" y="459" on="0"/>
        <pt x="1138" y="237" on="0"/>
        <pt x="1057" y="157" on="1"/>
        <pt x="1232" y="-68" on="1"/>
        <pt x="995" y="-235" on="1"/>
        <pt x="809" y="9" on="1"/>
        <pt x="759" y="-5" on="0"/>
        <pt x="657" y="-21" on="0"/>
        <pt x="605" y="-21" on="1"/>
        <pt x="361" y="-21" on="0"/>
        <pt x="67" y="336" on="0"/>
        <pt x="119" y="597" on="1"/>
        <pt x="172" y="859" on="1"/>
        <pt x="230" y="1149" on="0"/>
        <pt x="578" y="1477" on="0"/>
        <pt x="837" y="1477" on="1"/>
        <pt x="1081" y="1477" on="0"/>
        <pt x="1383" y="1118" on="0"/>
        <pt x="1332" y="859" on="1"/>
      </contour>
      <contour>
        <pt x="999" y="861" on="1"/>
        <pt x="1031" y="1021" on="0"/>
        <pt x="908" y="1217" on="0"/>
        <pt x="785" y="1217" on="1"/>
        <pt x="676" y="1217" on="0"/>
        <pt x="537" y="1023" on="0"/>
        <pt x="505" y="861" on="1"/>
        <pt x="452" y="597" on="1"/>
        <pt x="419" y="433" on="0"/>
        <pt x="532" y="239" on="0"/>
        <pt x="657" y="239" on="1"/>
        <pt x="764" y="239" on="0"/>
        <pt x="914" y="437" on="0"/>
        <pt x="946" y="597" on="1"/>
      </contour>
    </TTGlyph>
    <TTGlyph name="Q.smcp" xMin="47" yMin="-150" xMax="1173" yMax="1181">
      <contour>
        <pt x="1083" y="461" on="1"/>
        <pt x="1062" y="358" on="0"/>
        <pt x="969" y="190" on="0"/>
        <pt x="902" y="129" on="1"/>
        <pt x="994" y="2" on="1"/>
        <pt x="756" y="-150" on="1"/>
        <pt x="648" y="-3" on="1"/>
        <pt x="610" y="-11" on="0"/>
        <pt x="531" y="-21" on="0"/>
        <pt x="491" y="-21" on="1"/>
        <pt x="286" y="-21" on="0"/>
        <pt x="47" y="252" on="0"/>
        <pt x="89" y="461" on="1"/>
        <pt x="138" y="704" on="1"/>
        <pt x="182" y="929" on="0"/>
        <pt x="505" y="1181" on="0"/>
        <pt x="730" y="1181" on="1"/>
        <pt x="935" y="1181" on="0"/>
        <pt x="1173" y="911" on="0"/>
        <pt x="1132" y="704" on="1"/>
      </contour>
      <contour>
        <pt x="799" y="705" on="1"/>
        <pt x="817" y="800" on="0"/>
        <pt x="755" y="924" on="0"/>
        <pt x="679" y="924" on="1"/>
        <pt x="605" y="924" on="0"/>
        <pt x="488" y="793" on="0"/>
        <pt x="471" y="705" on="1"/>
        <pt x="422" y="461" on="1"/>
        <pt x="402" y="365" on="0"/>
        <pt x="462" y="238" on="0"/>
        <pt x="543" y="238" on="1"/>
        <pt x="613" y="238" on="0"/>
        <pt x="732" y="373" on="0"/>
        <pt x="750" y="461" on="1"/>
      </contour>
    </TTGlyph>
    <TTGlyph name="R" xMin="20" yMin="0" xMax="1306" yMax="1456">
      <contour>
        <pt x="467" y="558" on="1"/>
        <pt x="356" y="0" on="1"/>
        <pt x="20" y="0" on="1"/>
        <pt x="311" y="1456" on="1"/>
        <pt x="839" y="1456" on="1"/>
        <pt x="1061" y="1456" on="0"/>
        <pt x="1306" y="1218" on="0"/>
        <pt x="1267" y="1019" on="1"/>
        <pt x="1242" y="897" on="0"/>
        <pt x="1101" y="740" on="0"/>
        <pt x="980" y="691" on="1"/>
        <pt x="1092" y="651" on="0"/>
        <pt x="1173" y="471" on="0"/>
        <pt x="1148" y="346" on="1"/>
        <pt x="1130" y="254" on="1"/>
        <pt x="1118" y="195" on="0"/>
        <pt x="1121" y="51" on="0"/>
        <pt x="1154" y="20" on="1"/>
        <pt x="1150" y="0" on="1"/>
        <pt x="806" y="0" on="1"/>
        <pt x="775" y="31" on="0"/>
        <pt x="783" y="184" on="0"/>
        <pt x="797" y="256" on="1"/>
        <pt x="815" y="344" on="1"/>
        <pt x="837" y="455" on="0"/>
        <pt x="765" y="558" on="0"/>
        <pt x="670" y="558" on="1"/>
      </contour>
      <contour>
        <pt x="519" y="818" on="1"/>
        <pt x="715" y="818" on="1"/>
        <pt x="794" y="818" on="0"/>
        <pt x="913" y="913" on="0"/>
        <pt x="930" y="998" on="1"/>
        <pt x="948" y="1093" on="0"/>
        <pt x="875" y="1196" on="0"/>
        <pt x="787" y="1196" on="1"/>
        <pt x="595" y="1196" on="1"/>
      </contour>
    </TTGlyph>
    <TTGlyph name="R.smcp" xMin="25" yMin="0" xMax="1111" yMax="1165">
      <contour>
        <pt x="436" y="387" on="1"/>
        <pt x="359" y="0" on="1"/>
        <pt x="25" y="0" on="1"/>
        <pt x="258" y="1165" on="1"/>
        <pt x="690" y="1165" on="1"/>
        <pt x="884" y="1165" on="0"/>
        <pt x="1111" y="967" on="0"/>
        <pt x="1080" y="808" on="1"/>
        <pt x="1058" y="702" on="0"/>
        <pt x="932" y="558" on="0"/>
        <pt x="827" y="513" on="1"/>
        <pt x="928" y="481" on="0"/>
        <pt x="1006" y="337" on="0"/>
        <pt x="986" y="237" on="1"/>
        <pt x="973" y="172" on="1"/>
        <pt x="964" y="115" on="0"/>
        <pt x="956" y="30" on="0"/>
        <pt x="968" y="12" on="1"/>
        <pt x="966" y="0" on="1"/>
        <pt x="621" y="0" on="1"/>
        <pt x="614" y="17" on="0"/>
        <pt x="629" y="120" on="0"/>
        <pt x="640" y="173" on="1"/>
        <pt x="652" y="236" on="1"/>
        <pt x="668" y="317" on="0"/>
        <pt x="607" y="387" on="0"/>
        <pt x="529" y="387" on="1"/>
      </contour>
      <contour>
        <pt x="488" y="646" on="1"/>
        <pt x="586" y="646" on="1"/>
        <pt x="638" y="646" on="0"/>
        <pt x="728" y="721" on="0"/>
        <pt x="740" y="780" on="1"/>
        <pt x="751" y="834" on="0"/>
        <pt x="692" y="907" on="0"/>
        <pt x="638" y="907" on="1"/>
        <pt x="540" y="907" on="1"/>
      </contour>
    </TTGlyph>
    <TTGlyph name="Racute" xMin="20" yMin="0" xMax="1306" yMax="1827">
      <component glyphName="R" x="0" y="0" flags="0x204"/>
      <component glyphName="acute" x="437" y="349" flags="0x4"/>
    </TTGlyph>
    <TTGlyph name="Racute.smcp" xMin="25" yMin="0" xMax="1111" yMax="1504">
      <component glyphName="R.smcp" x="0" y="0" flags="0x204"/>
      <component glyphName="acute" x="302" y="26" flags="0x4"/>
    </TTGlyph>
    <TTGlyph name="Rcaron" xMin="20" yMin="0" xMax="1306" yMax="1877">
      <component glyphName="R" x="0" y="0" flags="0x204"/>
      <component glyphName="caron" x="197" y="349" flags="0x4"/>
    </TTGlyph>
    <TTGlyph name="Rcaron.smcp" xMin="25" yMin="0" xMax="1146" yMax="1554">
      <component glyphName="R.smcp" x="0" y="0" flags="0x204"/>
      <component glyphName="caron" x="62" y="26" flags="0x4"/>
    </TTGlyph>
    <TTGlyph name="Rcommaaccent" xMin="20" yMin="-496" xMax="1306" yMax="1456">
      <component glyphName="R" x="0" y="0" flags="0x204"/>
      <component glyphName="commaaccent" x="324" y="-375" flags="0x4"/>
    </TTGlyph>
    <TTGlyph name="Rcommaaccent.smcp" xMin="25" yMin="-498" xMax="1111" yMax="1165">
      <component glyphName="R.smcp" x="0" y="0" flags="0x204"/>
      <component glyphName="commaaccent" x="253" y="-377" flags="0x4"/>
    </TTGlyph>
    <TTGlyph name="Rho" xMin="20" yMin="0" xMax="1346" yMax="1456">
      <component glyphName="P" x="0" y="0" flags="0x204"/>
    </TTGlyph>
    <TTGlyph name="S" xMin="49" yMin="-21" xMax="1236" yMax="1477">
      <contour>
        <pt x="810" y="363" on="1"/>
        <pt x="827" y="454" on="0"/>
        <pt x="743" y="537" on="0"/>
        <pt x="616" y="594" on="1"/>
        <pt x="377" y="679" on="0"/>
        <pt x="148" y="913" on="0"/>
        <pt x="184" y="1091" on="1"/>
        <pt x="221" y="1275" on="0"/>
        <pt x="534" y="1477" on="0"/>
        <pt x="752" y="1477" on="1"/>
        <pt x="979" y="1477" on="0"/>
        <pt x="1236" y="1237" on="0"/>
        <pt x="1191" y="1031" on="1"/>
        <pt x="1188" y="1025" on="1"/>
        <pt x="863" y="1025" on="1"/>
        <pt x="880" y="1113" on="0"/>
        <pt x="788" y="1217" on="0"/>
        <pt x="700" y="1217" on="1"/>
        <pt x="638" y="1217" on="0"/>
        <pt x="530" y="1144" on="0"/>
        <pt x="520" y="1093" on="1"/>
        <pt x="503" y="1010" on="0"/>
        <pt x="599" y="933" on="0"/>
        <pt x="765" y="867" on="1"/>
        <pt x="981" y="790" on="0"/>
        <pt x="1181" y="555" on="0"/>
        <pt x="1143" y="365" on="1"/>
        <pt x="1104" y="173" on="0"/>
        <pt x="798" y="-21" on="0"/>
        <pt x="576" y="-21" on="1"/>
        <pt x="356" y="-21" on="0"/>
        <pt x="49" y="198" on="0"/>
        <pt x="100" y="425" on="1"/>
        <pt x="102" y="431" on="1"/>
        <pt x="427" y="431" on="1"/>
        <pt x="404" y="321" on="0"/>
        <pt x="531" y="239" on="0"/>
        <pt x="628" y="239" on="1"/>
        <pt x="688" y="239" on="0"/>
        <pt x="799" y="310" on="0"/>
      </contour>
    </TTGlyph>
    <TTGlyph name="S.smcp" xMin="4" yMin="-21" xMax="1089" yMax="1182">
      <contour>
        <pt x="649" y="332" on="1"/>
        <pt x="659" y="381" on="0"/>
        <pt x="603" y="442" on="0"/>
        <pt x="514" y="463" on="1"/>
        <pt x="302" y="501" on="0"/>
        <pt x="142" y="663" on="0"/>
        <pt x="176" y="831" on="1"/>
        <pt x="207" y="986" on="0"/>
        <pt x="479" y="1182" on="0"/>
        <pt x="683" y="1182" on="1"/>
        <pt x="880" y="1182" on="0"/>
        <pt x="1089" y="974" on="0"/>
        <pt x="1052" y="810" on="1"/>
        <pt x="1049" y="804" on="1"/>
        <pt x="724" y="804" on="1"/>
        <pt x="737" y="871" on="0"/>
        <pt x="702" y="925" on="0"/>
        <pt x="632" y="925" on="1"/>
        <pt x="577" y="925" on="0"/>
        <pt x="515" y="872" on="0"/>
        <pt x="508" y="833" on="1"/>
        <pt x="497" y="779" on="0"/>
        <pt x="550" y="721" on="0"/>
        <pt x="656" y="698" on="1"/>
        <pt x="849" y="662" on="0"/>
        <pt x="1014" y="498" on="0"/>
        <pt x="982" y="337" on="1"/>
        <pt x="949" y="171" on="0"/>
        <pt x="660" y="-21" on="0"/>
        <pt x="450" y="-21" on="1"/>
        <pt x="226" y="-21" on="0"/>
        <pt x="4" y="196" on="0"/>
        <pt x="43" y="359" on="1"/>
        <pt x="45" y="365" on="1"/>
        <pt x="371" y="365" on="1"/>
        <pt x="360" y="292" on="0"/>
        <pt x="421" y="237" on="0"/>
        <pt x="501" y="237" on="1"/>
        <pt x="569" y="237" on="0"/>
        <pt x="640" y="289" on="0"/>
      </contour>
    </TTGlyph>
    <TTGlyph name="Sacute" xMin="49" yMin="-21" xMax="1255" yMax="1848">
      <component glyphName="S" x="0" y="0" flags="0x4"/>
      <component glyphName="acute" x="462" y="370" flags="0x4"/>
    </TTGlyph>
    <TTGlyph name="Sacute.smcp" xMin="4" yMin="-21" xMax="1089" yMax="1526">
      <component glyphName="S.smcp" x="0" y="0" flags="0x204"/>
      <component glyphName="acute" x="295" y="48" flags="0x4"/>
    </TTGlyph>
    <TTGlyph name="Scaron" xMin="49" yMin="-21" xMax="1306" yMax="1898">
      <component glyphName="S" x="0" y="0" flags="0x4"/>
      <component glyphName="caron" x="222" y="370" flags="0x4"/>
    </TTGlyph>
    <TTGlyph name="Scaron.smcp" xMin="4" yMin="-21" xMax="1139" yMax="1576">
      <component glyphName="S.smcp" x="0" y="0" flags="0x204"/>
      <component glyphName="caron" x="55" y="48" flags="0x4"/>
    </TTGlyph>
    <TTGlyph name="Scedilla" xMin="49" yMin="-478" xMax="1236" yMax="1477">
      <component glyphName="S" x="0" y="0" flags="0x4"/>
      <component glyphName="cedilla" x="408" y="-8" flags="0x4"/>
    </TTGlyph>
    <TTGlyph name="Scedilla.smcp" xMin="4" yMin="-476" xMax="1089" yMax="1182">
      <component glyphName="S.smcp" x="0" y="0" flags="0x204"/>
      <component glyphName="cedilla" x="280" y="-6" flags="0x4"/>
    </TTGlyph>
    <TTGlyph name="Scircumflex" xMin="49" yMin="-21" xMax="1244" yMax="1874">
      <component glyphName="S" x="0" y="0" flags="0x4"/>
      <component glyphName="circumflex" x="197" y="356" flags="0x4"/>
    </TTGlyph>
    <TTGlyph name="Scircumflex.smcp" xMin="4" yMin="-21" xMax="1089" yMax="1552">
      <component glyphName="S.smcp" x="0" y="0" flags="0x204"/>
      <component glyphName="circumflex" x="30" y="34" flags="0x4"/>
    </TTGlyph>
    <TTGlyph name="Sigma" xMin="-11" yMin="0" xMax="1236" yMax="1456">
      <contour>
        <pt x="875" y="731" on="1"/>
        <pt x="486" y="265" on="1"/>
        <pt x="488" y="260" on="1"/>
        <pt x="1008" y="260" on="1"/>
        <pt x="956" y="0" on="1"/>
        <pt x="-11" y="0" on="1"/>
        <pt x="19" y="152" on="1"/>
        <pt x="524" y="738" on="1"/>
        <pt x="250" y="1306" on="1"/>
        <pt x="280" y="1456" on="1"/>
        <pt x="1236" y="1456" on="1"/>
        <pt x="1184" y="1196" on="1"/>
        <pt x="673" y="1196" on="1"/>
        <pt x="878" y="745" on="1"/>
      </contour>
    </TTGlyph>
    <TTGlyph name="T" xMin="181" yMin="0" xMax="1259" yMax="1456">
      <contour>
        <pt x="1207" y="1196" on="1"/>
        <pt x="860" y="1196" on="1"/>
        <pt x="621" y="0" on="1"/>
        <pt x="286" y="0" on="1"/>
        <pt x="525" y="1196" on="1"/>
        <pt x="181" y="1196" on="1"/>
        <pt x="233" y="1456" on="1"/>
        <pt x="1259" y="1456" on="1"/>
      </contour>
    </TTGlyph>
    <TTGlyph name="T.smcp" xMin="133" yMin="0" xMax="1139" yMax="1165">
      <contour>
        <pt x="1087" y="907" on="1"/>
        <pt x="776" y="907" on="1"/>
        <pt x="595" y="0" on="1"/>
        <pt x="260" y="0" on="1"/>
        <pt x="441" y="907" on="1"/>
        <pt x="133" y="907" on="1"/>
        <pt x="185" y="1165" on="1"/>
        <pt x="1139" y="1165" on="1"/>
      </contour>
    </TTGlyph>
    <TTGlyph name="Tau" xMin="181" yMin="0" xMax="1259" yMax="1456">
      <component glyphName="T" x="0" y="0" flags="0x204"/>
    </TTGlyph>
    <TTGlyph name="Tbar" xMin="181" yMin="0" xMax="1259" yMax="1456">
      <contour>
        <pt x="933" y="723" on="1"/>
        <pt x="765" y="723" on="1"/>
        <pt x="621" y="0" on="1"/>
        <pt x="286" y="0" on="1"/>
        <pt x="430" y="723" on="1"/>
        <pt x="288" y="723" on="1"/>
        <pt x="326" y="914" on="1"/>
        <pt x="468" y="914" on="1"/>
        <pt x="525" y="1196" on="1"/>
        <pt x="181" y="1196" on="1"/>
        <pt x="233" y="1456" on="1"/>
        <pt x="1259" y="1456" on="1"/>
        <pt x="1207" y="1196" on="1"/>
        <pt x="860" y="1196" on="1"/>
        <pt x="803" y="914" on="1"/>
        <pt x="971" y="914" on="1"/>
      </contour>
    </TTGlyph>
    <TTGlyph name="Tbar.smcp" xMin="133" yMin="0" xMax="1139" yMax="1165">
      <component glyphName="T.smcp" x="0" y="0" flags="0x204"/>
      <component glyphName="crossbar" x="23" y="-89" flags="0x4"/>
    </TTGlyph>
    <TTGlyph name="Tcaron" xMin="181" yMin="0" xMax="1259" yMax="1877">
      <component glyphName="T" x="0" y="0" flags="0x204"/>
      <component glyphName="caron" x="140" y="349" flags="0x4"/>
    </TTGlyph>
    <TTGlyph name="Tcaron.smcp" xMin="133" yMin="0" xMax="1139" yMax="1554">
      <component glyphName="T.smcp" x="0" y="0" flags="0x204"/>
      <component glyphName="caron" x="45" y="26" flags="0x4"/>
    </TTGlyph>
    <TTGlyph name="Tcommaaccent.smcp" xMin="133" yMin="-498" xMax="1139" yMax="1165">
      <component glyphName="T.smcp" x="0" y="0" flags="0x204"/>
      <component glyphName="commaaccent" x="236" y="-377" flags="0x4"/>
    </TTGlyph>
    <TTGlyph name="Theta" xMin="54" yMin="-21" xMax="1370" yMax="1477">
      <contour>
        <pt x="840" y="589" on="1"/>
        <pt x="566" y="589" on="1"/>
        <pt x="618" y="848" on="1"/>
        <pt x="892" y="848" on="1"/>
      </contour>
      <contour>
        <pt x="1266" y="597" on="1"/>
        <pt x="1208" y="308" on="0"/>
        <pt x="851" y="-21" on="0"/>
        <pt x="592" y="-21" on="1"/>
        <pt x="348" y="-21" on="0"/>
        <pt x="54" y="336" on="0"/>
        <pt x="106" y="597" on="1"/>
        <pt x="159" y="859" on="1"/>
        <pt x="217" y="1149" on="0"/>
        <pt x="565" y="1477" on="0"/>
        <pt x="824" y="1477" on="1"/>
        <pt x="1068" y="1477" on="0"/>
        <pt x="1370" y="1118" on="0"/>
        <pt x="1319" y="859" on="1"/>
      </contour>
      <contour>
        <pt x="986" y="861" on="1"/>
        <pt x="1018" y="1021" on="0"/>
        <pt x="895" y="1217" on="0"/>
        <pt x="772" y="1217" on="1"/>
        <pt x="663" y="1217" on="0"/>
        <pt x="524" y="1023" on="0"/>
        <pt x="492" y="861" on="1"/>
        <pt x="439" y="597" on="1"/>
        <pt x="406" y="433" on="0"/>
        <pt x="519" y="239" on="0"/>
        <pt x="644" y="239" on="1"/>
        <pt x="751" y="239" on="0"/>
        <pt x="901" y="437" on="0"/>
        <pt x="933" y="597" on="1"/>
      </contour>
    </TTGlyph>
    <TTGlyph name="Thorn" xMin="22" yMin="0" xMax="1246" yMax="1456">
      <contour>
        <pt x="648" y="1456" on="1"/>
        <pt x="596" y="1198" on="1"/>
        <pt x="769" y="1198" on="1"/>
        <pt x="1003" y="1198" on="0"/>
        <pt x="1246" y="940" on="0"/>
        <pt x="1207" y="738" on="1"/>
        <pt x="1162" y="518" on="0"/>
        <pt x="840" y="278" on="0"/>
        <pt x="585" y="278" on="1"/>
        <pt x="412" y="278" on="1"/>
        <pt x="357" y="0" on="1"/>
        <pt x="22" y="0" on="1"/>
        <pt x="313" y="1456" on="1"/>
      </contour>
      <contour>
        <pt x="545" y="940" on="1"/>
        <pt x="464" y="538" on="1"/>
        <pt x="637" y="538" on="1"/>
        <pt x="729" y="538" on="0"/>
        <pt x="854" y="652" on="0"/>
        <pt x="871" y="736" on="1"/>
        <pt x="889" y="828" on="0"/>
        <pt x="817" y="938" on="0"/>
        <pt x="717" y="938" on="1"/>
        <pt x="547" y="938" on="1"/>
      </contour>
    </TTGlyph>
    <TTGlyph name="U" xMin="65" yMin="-21" xMax="1437" yMax="1456">
      <contour>
        <pt x="1437" y="1456" on="1"/>
        <pt x="1246" y="502" on="1"/>
        <pt x="1193" y="236" on="0"/>
        <pt x="837" y="-21" on="0"/>
        <pt x="578" y="-21" on="1"/>
        <pt x="338" y="-21" on="0"/>
        <pt x="65" y="257" on="0"/>
        <pt x="114" y="502" on="1"/>
        <pt x="305" y="1456" on="1"/>
        <pt x="640" y="1456" on="1"/>
        <pt x="449" y="502" on="1"/>
        <pt x="420" y="359" on="0"/>
        <pt x="515" y="239" on="0"/>
        <pt x="630" y="239" on="1"/>
        <pt x="735" y="239" on="0"/>
        <pt x="885" y="369" on="0"/>
        <pt x="911" y="502" on="1"/>
        <pt x="1102" y="1456" on="1"/>
      </contour>
    </TTGlyph>
    <TTGlyph name="U.smcp" xMin="53" yMin="-21" xMax="1239" yMax="1165">
      <contour>
        <pt x="1239" y="1165" on="1"/>
        <pt x="1090" y="422" on="1"/>
        <pt x="1046" y="200" on="0"/>
        <pt x="738" y="-21" on="0"/>
        <pt x="504" y="-21" on="1"/>
        <pt x="290" y="-21" on="0"/>
        <pt x="53" y="218" on="0"/>
        <pt x="94" y="422" on="1"/>
        <pt x="243" y="1165" on="1"/>
        <pt x="576" y="1165" on="1"/>
        <pt x="427" y="422" on="1"/>
        <pt x="407" y="322" on="0"/>
        <pt x="468" y="238" on="0"/>
        <pt x="556" y="238" on="1"/>
        <pt x="638" y="238" on="0"/>
        <pt x="735" y="328" on="0"/>
        <pt x="754" y="422" on="1"/>
        <pt x="903" y="1165" on="1"/>
      </contour>
    </TTGlyph>
    <TTGlyph name="Uacute" xMin="65" yMin="-21" xMax="1437" yMax="1827">
      <component glyphName="U" x="0" y="0" flags="0x204"/>
      <component glyphName="acute" x="503" y="349" flags="0x4"/>
    </TTGlyph>
    <TTGlyph name="Uacute.smcp" xMin="53" yMin="-21" xMax="1239" yMax="1509">
      <component glyphName="U.smcp" x="0" y="0" flags="0x204"/>
      <component glyphName="acute" x="355" y="31" flags="0x4"/>
    </TTGlyph>
    <TTGlyph name="Ubreve" xMin="65" yMin="-21" xMax="1437" yMax="1908">
      <component glyphName="U" x="0" y="0" flags="0x204"/>
      <component glyphName="breve" x="347" y="452" flags="0x4"/>
    </TTGlyph>
    <TTGlyph name="Ubreve.smcp" xMin="53" yMin="-21" xMax="1239" yMax="1590">
      <component glyphName="U.smcp" x="0" y="0" flags="0x204"/>
      <component glyphName="breve" x="199" y="134" flags="0x4"/>
    </TTGlyph>
    <TTGlyph name="Ucircumflex" xMin="65" yMin="-21" xMax="1437" yMax="1853">
      <component glyphName="U" x="0" y="0" flags="0x204"/>
      <component glyphName="circumflex" x="238" y="335" flags="0x4"/>
    </TTGlyph>
    <TTGlyph name="Ucircumflex.smcp" xMin="53" yMin="-21" xMax="1239" yMax="1535">
      <component glyphName="U.smcp" x="0" y="0" flags="0x204"/>
      <component glyphName="circumflex" x="90" y="17" flags="0x4"/>
    </TTGlyph>
    <TTGlyph name="Udieresis" xMin="65" yMin="-21" xMax="1437" yMax="1805">
      <component glyphName="U" x="0" y="0" flags="0x204"/>
      <component glyphName="dieresis" x="245" y="349" flags="0x4"/>
    </TTGlyph>
    <TTGlyph name="Udieresis.smcp" xMin="53" yMin="-21" xMax="1239" yMax="1487">
      <component glyphName="U.smcp" x="0" y="0" flags="0x204"/>
      <component glyphName="dieresis" x="97" y="31" flags="0x4"/>
    </TTGlyph>
    <TTGlyph name="Ugrave" xMin="65" yMin="-21" xMax="1437" yMax="1825">
      <component glyphName="U" x="0" y="0" flags="0x204"/>
      <component glyphName="grave" x="338" y="347" flags="0x4"/>
    </TTGlyph>
    <TTGlyph name="Ugrave.smcp" xMin="53" yMin="-21" xMax="1239" yMax="1507">
      <component glyphName="U.smcp" x="0" y="0" flags="0x204"/>
      <component glyphName="grave" x="190" y="29" flags="0x4"/>
    </TTGlyph>
    <TTGlyph name="Uhorn" xMin="65" yMin="-21" xMax="1812" yMax="1616">
      <contour>
        <pt x="1437" y="1456" on="1"/>
        <pt x="1402" y="1280" on="1"/>
        <pt x="1407" y="1278" on="1"/>
        <pt x="1480" y="1296" on="0"/>
        <pt x="1567" y="1465" on="0"/>
        <pt x="1598" y="1616" on="1"/>
        <pt x="1810" y="1616" on="1"/>
        <pt x="1812" y="1611" on="1"/>
        <pt x="1762" y="1349" on="0"/>
        <pt x="1553" y="1089" on="0"/>
        <pt x="1359" y="1066" on="1"/>
        <pt x="1246" y="502" on="1"/>
        <pt x="1193" y="236" on="0"/>
        <pt x="837" y="-21" on="0"/>
        <pt x="578" y="-21" on="1"/>
        <pt x="338" y="-21" on="0"/>
        <pt x="65" y="257" on="0"/>
        <pt x="114" y="502" on="1"/>
        <pt x="305" y="1456" on="1"/>
        <pt x="640" y="1456" on="1"/>
        <pt x="449" y="502" on="1"/>
        <pt x="420" y="359" on="0"/>
        <pt x="515" y="239" on="0"/>
        <pt x="630" y="239" on="1"/>
        <pt x="735" y="239" on="0"/>
        <pt x="885" y="369" on="0"/>
        <pt x="911" y="502" on="1"/>
        <pt x="1102" y="1456" on="1"/>
      </contour>
    </TTGlyph>
    <TTGlyph name="Uhungarumlaut" xMin="65" yMin="-21" xMax="1504" yMax="1867">
      <component glyphName="U" x="0" y="0" flags="0x204"/>
      <component glyphName="hungarumlaut" x="244" y="349" flags="0x4"/>
    </TTGlyph>
    <TTGlyph name="Uhungarumlaut.smcp" xMin="53" yMin="-21" xMax="1356" yMax="1549">
      <component glyphName="U.smcp" x="0" y="0" flags="0x204"/>
      <component glyphName="hungarumlaut" x="96" y="31" flags="0x4"/>
    </TTGlyph>
    <TTGlyph name="Umacron" xMin="65" yMin="-21" xMax="1437" yMax="1774">
      <component glyphName="U" x="0" y="0" flags="0x204"/>
      <component glyphName="macron" x="260" y="316" flags="0x4"/>
    </TTGlyph>
    <TTGlyph name="Umacron.smcp" xMin="53" yMin="-21" xMax="1239" yMax="1458">
      <component glyphName="U.smcp" x="0" y="0" flags="0x204"/>
      <component glyphName="macron" x="112" y="0" flags="0x4"/>
    </TTGlyph>
    <TTGlyph name="Uogonek" xMin="65" yMin="-417" xMax="1437" yMax="1456">
      <component glyphName="U" x="0" y="0" flags="0x204"/>
      <component glyphName="ogonek" x="520" y="0" flags="0x4"/>
    </TTGlyph>
    <TTGlyph name="Uogonek.smcp" xMin="53" yMin="-417" xMax="1239" yMax="1165">
      <component glyphName="U.smcp" x="0" y="0" flags="0x204"/>
      <component glyphName="ogonek" x="450" y="0" flags="0x4"/>
    </TTGlyph>
    <TTGlyph name="Upsilon" xMin="205" yMin="0" xMax="1442" yMax="1456">
      <component glyphName="Y" x="0" y="0" flags="0x204"/>
    </TTGlyph>
    <TTGlyph name="Upsilondieresis" xMin="205" yMin="0" xMax="1442" yMax="1805">
      <component glyphName="Y" x="0" y="0" flags="0x204"/>
      <component glyphName="dieresis" x="207" y="349" flags="0x4"/>
    </TTGlyph>
    <TTGlyph name="Upsilontonos" xMin="-39" yMin="0" xMax="1542" yMax="1618">
      <component glyphName="Y" x="100" y="0" flags="0x4"/>
      <component glyphName="tonos" x="-460" y="0" flags="0x4"/>
    </TTGlyph>
    <TTGlyph name="Uring" xMin="65" yMin="-21" xMax="1437" yMax="1934">
      <component glyphName="U" x="0" y="0" flags="0x204"/>
      <component glyphName="ring" x="432" y="447" flags="0x4"/>
    </TTGlyph>
    <TTGlyph name="Uring.smcp" xMin="53" yMin="-21" xMax="1239" yMax="1616">
      <component glyphName="U.smcp" x="0" y="0" flags="0x204"/>
      <component glyphName="ring" x="284" y="129" flags="0x4"/>
    </TTGlyph>
    <TTGlyph name="Utilde" xMin="65" yMin="-21" xMax="1437" yMax="1912">
      <component glyphName="U" x="0" y="0" flags="0x204"/>
      <component glyphName="tilde" x="299" y="381" flags="0x4"/>
    </TTGlyph>
    <TTGlyph name="Utilde.smcp" xMin="53" yMin="-21" xMax="1239" yMax="1594">
      <component glyphName="U.smcp" x="0" y="0" flags="0x204"/>
      <component glyphName="tilde" x="151" y="63" flags="0x4"/>
    </TTGlyph>
    <TTGlyph name="V" xMin="165" yMin="0" xMax="1391" yMax="1456">
      <contour>
        <pt x="594" y="395" on="1"/>
        <pt x="595" y="350" on="1"/>
        <pt x="601" y="349" on="1"/>
        <pt x="616" y="391" on="1"/>
        <pt x="1041" y="1456" on="1"/>
        <pt x="1391" y="1456" on="1"/>
        <pt x="724" y="0" on="1"/>
        <pt x="363" y="0" on="1"/>
        <pt x="165" y="1456" on="1"/>
        <pt x="513" y="1456" on="1"/>
      </contour>
    </TTGlyph>
    <TTGlyph name="V.smcp" xMin="152" yMin="0" xMax="1254" yMax="1165">
      <contour>
        <pt x="530" y="316" on="1"/>
        <pt x="530" y="306" on="1"/>
        <pt x="907" y="1165" on="1"/>
        <pt x="1254" y="1165" on="1"/>
        <pt x="658" y="0" on="1"/>
        <pt x="282" y="0" on="1"/>
        <pt x="152" y="1165" on="1"/>
        <pt x="500" y="1165" on="1"/>
      </contour>
    </TTGlyph>
    <TTGlyph name="W" xMin="174" yMin="0" xMax="1851" yMax="1456">
      <contour>
        <pt x="1211" y="549" on="1"/>
        <pt x="1217" y="549" on="1"/>
        <pt x="1529" y="1456" on="1"/>
        <pt x="1851" y="1456" on="1"/>
        <pt x="1312" y="0" on="1"/>
        <pt x="998" y="0" on="1"/>
        <pt x="918" y="853" on="1"/>
        <pt x="912" y="853" on="1"/>
        <pt x="562" y="0" on="1"/>
        <pt x="248" y="0" on="1"/>
        <pt x="174" y="1456" on="1"/>
        <pt x="498" y="1456" on="1"/>
        <pt x="520" y="551" on="1"/>
        <pt x="526" y="550" on="1"/>
        <pt x="897" y="1456" on="1"/>
        <pt x="1128" y="1456" on="1"/>
      </contour>
    </TTGlyph>
    <TTGlyph name="W.smcp" xMin="176" yMin="0" xMax="1596" yMax="1165">
      <contour>
        <pt x="1036" y="590" on="1"/>
        <pt x="1042" y="589" on="1"/>
        <pt x="1249" y="1165" on="1"/>
        <pt x="1596" y="1165" on="1"/>
        <pt x="1121" y="0" on="1"/>
        <pt x="790" y="0" on="1"/>
        <pt x="763" y="552" on="1"/>
        <pt x="757" y="553" on="1"/>
        <pt x="514" y="0" on="1"/>
        <pt x="184" y="0" on="1"/>
        <pt x="176" y="1165" on="1"/>
        <pt x="522" y="1165" on="1"/>
        <pt x="496" y="589" on="1"/>
        <pt x="502" y="587" on="1"/>
        <pt x="753" y="1165" on="1"/>
        <pt x="1017" y="1165" on="1"/>
      </contour>
    </TTGlyph>
    <TTGlyph name="Wacute" xMin="174" yMin="0" xMax="1851" yMax="1827">
      <component glyphName="W" x="0" y="0" flags="0x204"/>
      <component glyphName="acute" x="640" y="349" flags="0x4"/>
    </TTGlyph>
    <TTGlyph name="Wcircumflex" xMin="174" yMin="0" xMax="1851" yMax="1853">
      <component glyphName="W" x="0" y="0" flags="0x204"/>
      <component glyphName="circumflex" x="375" y="335" flags="0x4"/>
    </TTGlyph>
    <TTGlyph name="Wcircumflex.smcp" xMin="176" yMin="0" xMax="1596" yMax="1530">
      <component glyphName="W.smcp" x="0" y="0" flags="0x204"/>
      <component glyphName="circumflex" x="246" y="12" flags="0x4"/>
    </TTGlyph>
    <TTGlyph name="Wdieresis" xMin="174" yMin="0" xMax="1851" yMax="1805">
      <component glyphName="W" x="0" y="0" flags="0x204"/>
      <component glyphName="dieresis" x="382" y="349" flags="0x4"/>
    </TTGlyph>
    <TTGlyph name="Wgrave" xMin="174" yMin="0" xMax="1851" yMax="1825">
      <component glyphName="W" x="0" y="0" flags="0x204"/>
      <component glyphName="grave" x="475" y="347" flags="0x4"/>
    </TTGlyph>
    <TTGlyph name="X" xMin="-55" yMin="0" xMax="1366" yMax="1456">
      <contour>
        <pt x="692" y="973" on="1"/>
        <pt x="698" y="972" on="1"/>
        <pt x="980" y="1456" on="1"/>
        <pt x="1366" y="1456" on="1"/>
        <pt x="868" y="734" on="1"/>
        <pt x="1163" y="0" on="1"/>
        <pt x="758" y="0" on="1"/>
        <pt x="626" y="493" on="1"/>
        <pt x="620" y="494" on="1"/>
        <pt x="331" y="0" on="1"/>
        <pt x="-55" y="0" on="1"/>
        <pt x="454" y="734" on="1"/>
        <pt x="188" y="1456" on="1"/>
        <pt x="570" y="1456" on="1"/>
      </contour>
    </TTGlyph>
    <TTGlyph name="X.smcp" xMin="-65" yMin="0" xMax="1209" yMax="1165">
      <contour>
        <pt x="616" y="813" on="1"/>
        <pt x="621" y="812" on="1"/>
        <pt x="827" y="1165" on="1"/>
        <pt x="1209" y="1165" on="1"/>
        <pt x="788" y="588" on="1"/>
        <pt x="982" y="0" on="1"/>
        <pt x="603" y="0" on="1"/>
        <pt x="535" y="362" on="1"/>
        <pt x="529" y="363" on="1"/>
        <pt x="317" y="0" on="1"/>
        <pt x="-65" y="0" on="1"/>
        <pt x="368" y="588" on="1"/>
        <pt x="176" y="1165" on="1"/>
        <pt x="556" y="1165" on="1"/>
      </contour>
    </TTGlyph>
    <TTGlyph name="Xi" xMin="-3" yMin="0" xMax="1176" yMax="1456">
      <contour>
        <pt x="49" y="260" on="1"/>
        <pt x="989" y="260" on="1"/>
        <pt x="937" y="0" on="1"/>
        <pt x="-3" y="0" on="1"/>
      </contour>
      <contour>
        <pt x="288" y="856" on="1"/>
        <pt x="992" y="856" on="1"/>
        <pt x="943" y="608" on="1"/>
        <pt x="239" y="608" on="1"/>
      </contour>
      <contour>
        <pt x="320" y="1456" on="1"/>
        <pt x="1176" y="1456" on="1"/>
        <pt x="1124" y="1196" on="1"/>
        <pt x="268" y="1196" on="1"/>
      </contour>
    </TTGlyph>
    <TTGlyph name="Y" xMin="205" yMin="0" xMax="1442" yMax="1456">
      <contour>
        <pt x="697" y="843" on="1"/>
        <pt x="703" y="842" on="1"/>
        <pt x="1080" y="1456" on="1"/>
        <pt x="1442" y="1456" on="1"/>
        <pt x="797" y="515" on="1"/>
        <pt x="694" y="0" on="1"/>
        <pt x="361" y="0" on="1"/>
        <pt x="468" y="533" on="1"/>
        <pt x="205" y="1456" on="1"/>
        <pt x="566" y="1456" on="1"/>
      </contour>
    </TTGlyph>
    <TTGlyph name="Y.smcp" xMin="146" yMin="0" xMax="1181" yMax="1165">
      <contour>
        <pt x="574" y="729" on="1"/>
        <pt x="579" y="728" on="1"/>
        <pt x="824" y="1165" on="1"/>
        <pt x="1181" y="1165" on="1"/>
        <pt x="677" y="416" on="1"/>
        <pt x="594" y="0" on="1"/>
        <pt x="260" y="0" on="1"/>
        <pt x="346" y="427" on="1"/>
        <pt x="146" y="1165" on="1"/>
        <pt x="502" y="1165" on="1"/>
      </contour>
    </TTGlyph>
    <TTGlyph name="Yacute" xMin="205" yMin="0" xMax="1442" yMax="1827">
      <component glyphName="Y" x="0" y="0" flags="0x204"/>
      <component glyphName="acute" x="465" y="349" flags="0x4"/>
    </TTGlyph>
    <TTGlyph name="Yacute.smcp" xMin="146" yMin="0" xMax="1181" yMax="1504">
      <component glyphName="Y.smcp" x="0" y="0" flags="0x204"/>
      <component glyphName="acute" x="298" y="26" flags="0x4"/>
    </TTGlyph>
    <TTGlyph name="Ycircumflex" xMin="205" yMin="0" xMax="1442" yMax="1853">
      <component glyphName="Y" x="0" y="0" flags="0x204"/>
      <component glyphName="circumflex" x="200" y="335" flags="0x4"/>
    </TTGlyph>
    <TTGlyph name="Ycircumflex.smcp" xMin="146" yMin="0" xMax="1181" yMax="1530">
      <component glyphName="Y.smcp" x="0" y="0" flags="0x204"/>
      <component glyphName="circumflex" x="33" y="12" flags="0x4"/>
    </TTGlyph>
    <TTGlyph name="Ydieresis" xMin="205" yMin="0" xMax="1442" yMax="1805">
      <component glyphName="Y" x="0" y="0" flags="0x204"/>
      <component glyphName="dieresis" x="207" y="349" flags="0x4"/>
    </TTGlyph>
    <TTGlyph name="Ydieresis.smcp" xMin="146" yMin="0" xMax="1181" yMax="1482">
      <component glyphName="Y.smcp" x="0" y="0" flags="0x204"/>
      <component glyphName="dieresis" x="40" y="26" flags="0x4"/>
    </TTGlyph>
    <TTGlyph name="Ygrave" xMin="205" yMin="0" xMax="1442" yMax="1825">
      <component glyphName="Y" x="0" y="0" flags="0x204"/>
      <component glyphName="grave" x="300" y="347" flags="0x4"/>
    </TTGlyph>
    <TTGlyph name="Z" xMin="-5" yMin="0" xMax="1190" yMax="1456">
      <contour>
        <pt x="438" y="260" on="1"/>
        <pt x="1015" y="260" on="1"/>
        <pt x="963" y="0" on="1"/>
        <pt x="9" y="0" on="1"/>
        <pt x="-5" y="152" on="1"/>
        <pt x="715" y="1196" on="1"/>
        <pt x="228" y="1196" on="1"/>
        <pt x="280" y="1456" on="1"/>
        <pt x="1190" y="1456" on="1"/>
        <pt x="1161" y="1310" on="1"/>
      </contour>
    </TTGlyph>
    <TTGlyph name="Z.smcp" xMin="-22" yMin="0" xMax="1132" yMax="1165">
      <contour>
        <pt x="459" y="263" on="1"/>
        <pt x="461" y="258" on="1"/>
        <pt x="948" y="258" on="1"/>
        <pt x="896" y="0" on="1"/>
        <pt x="-22" y="0" on="1"/>
        <pt x="2" y="122" on="1"/>
        <pt x="649" y="902" on="1"/>
        <pt x="647" y="907" on="1"/>
        <pt x="190" y="907" on="1"/>
        <pt x="242" y="1165" on="1"/>
        <pt x="1132" y="1165" on="1"/>
        <pt x="1109" y="1048" on="1"/>
      </contour>
    </TTGlyph>
    <TTGlyph name="Zacute" xMin="-5" yMin="0" xMax="1192" yMax="1830">
      <component glyphName="Z" x="0" y="0" flags="0x4"/>
      <component glyphName="acute" x="399" y="352" flags="0x4"/>
    </TTGlyph>
    <TTGlyph name="Zacute.smcp" xMin="-22" yMin="0" xMax="1132" yMax="1507">
      <component glyphName="Z.smcp" x="0" y="0" flags="0x204"/>
      <component glyphName="acute" x="326" y="29" flags="0x4"/>
    </TTGlyph>
    <TTGlyph name="Zcaron" xMin="-5" yMin="0" xMax="1243" yMax="1880">
      <component glyphName="Z" x="0" y="0" flags="0x4"/>
      <component glyphName="caron" x="159" y="352" flags="0x4"/>
    </TTGlyph>
    <TTGlyph name="Zcaron.smcp" xMin="-22" yMin="0" xMax="1170" yMax="1557">
      <component glyphName="Z.smcp" x="0" y="0" flags="0x204"/>
      <component glyphName="caron" x="86" y="29" flags="0x4"/>
    </TTGlyph>
    <TTGlyph name="Zdotaccent" xMin="-5" yMin="0" xMax="1190" yMax="1865">
      <component glyphName="Z" x="0" y="0" flags="0x4"/>
      <component glyphName="dotaccent" x="329" y="390" flags="0x4"/>
    </TTGlyph>
    <TTGlyph name="Zdotaccent.smcp" xMin="-22" yMin="0" xMax="1132" yMax="1542">
      <component glyphName="Z.smcp" x="0" y="0" flags="0x204"/>
      <component glyphName="dotaccent" x="256" y="67" flags="0x4"/>
    </TTGlyph>
    <TTGlyph name="Zeta" xMin="-5" yMin="0" xMax="1190" yMax="1456">
      <component glyphName="Z" x="0" y="0" flags="0x4"/>
    </TTGlyph>
    <TTGlyph name="a" xMin="-9" yMin="-21" xMax="1031" yMax="1102">
      <contour>
        <pt x="577" y="1" on="1"/>
        <pt x="569" y="28" on="0"/>
        <pt x="559" y="89" on="0"/>
        <pt x="558" y="122" on="1"/>
        <pt x="502" y="56" on="0"/>
        <pt x="365" y="-21" on="0"/>
        <pt x="279" y="-21" on="1"/>
        <pt x="145" y="-21" on="0"/>
        <pt x="-9" y="160" on="0"/>
        <pt x="20" y="305" on="1"/>
        <pt x="54" y="476" on="0"/>
        <pt x="305" y="641" on="0"/>
        <pt x="539" y="641" on="1"/>
        <pt x="643" y="641" on="1"/>
        <pt x="659" y="718" on="1"/>
        <pt x="673" y="793" on="0"/>
        <pt x="635" y="861" on="0"/>
        <pt x="578" y="861" on="1"/>
        <pt x="533" y="861" on="0"/>
        <pt x="475" y="805" on="0"/>
        <pt x="465" y="748" on="1"/>
        <pt x="142" y="749" on="1"/>
        <pt x="140" y="755" on="1"/>
        <pt x="166" y="913" on="0"/>
        <pt x="443" y="1102" on="0"/>
        <pt x="649" y="1102" on="1"/>
        <pt x="826" y="1102" on="0"/>
        <pt x="1031" y="899" on="0"/>
        <pt x="994" y="716" on="1"/>
        <pt x="913" y="308" on="1"/>
        <pt x="894" y="215" on="0"/>
        <pt x="893" y="75" on="0"/>
        <pt x="907" y="0" on="1"/>
      </contour>
      <contour>
        <pt x="430" y="220" on="1"/>
        <pt x="468" y="220" on="0"/>
        <pt x="544" y="257" on="0"/>
        <pt x="572" y="286" on="1"/>
        <pt x="607" y="461" on="1"/>
        <pt x="506" y="461" on="1"/>
        <pt x="444" y="461" on="0"/>
        <pt x="368" y="382" on="0"/>
        <pt x="357" y="323" on="1"/>
        <pt x="346" y="274" on="0"/>
        <pt x="388" y="220" on="0"/>
      </contour>
    </TTGlyph>
    <TTGlyph name="aacute" xMin="-9" yMin="-21" xMax="1074" yMax="1505">
      <component glyphName="a" x="0" y="0" flags="0x204"/>
      <component glyphName="acute" x="281" y="27" flags="0x4"/>
    </TTGlyph>
    <TTGlyph name="abreve" xMin="-9" yMin="-21" xMax="1071" yMax="1586">
      <component glyphName="a" x="0" y="0" flags="0x204"/>
      <component glyphName="breve" x="125" y="130" flags="0x4"/>
    </TTGlyph>
    <TTGlyph name="acircumflex" xMin="-9" yMin="-21" xMax="1063" yMax="1531">
      <component glyphName="a" x="0" y="0" flags="0x204"/>
      <component glyphName="circumflex" x="16" y="13" flags="0x4"/>
    </TTGlyph>
    <TTGlyph name="acute" xMin="223" yMin="1212" xMax="793" yMax="1478">
      <contour>
        <pt x="450" y="1478" on="1"/>
        <pt x="791" y="1478" on="1"/>
        <pt x="793" y="1472" on="1"/>
        <pt x="489" y="1212" on="1"/>
        <pt x="225" y="1212" on="1"/>
        <pt x="223" y="1217" on="1"/>
      </contour>
    </TTGlyph>
    <TTGlyph name="acutecomb" xMin="-636" yMin="1199" xMax="-205" yMax="1492">
      <contour>
        <pt x="-450" y="1492" on="1"/>
        <pt x="-208" y="1492" on="1"/>
        <pt x="-205" y="1487" on="1"/>
        <pt x="-442" y="1199" on="1"/>
        <pt x="-636" y="1199" on="1"/>
      </contour>
    </TTGlyph>
    <TTGlyph name="adieresis" xMin="-9" yMin="-21" xMax="1091" yMax="1483">
      <component glyphName="a" x="0" y="0" flags="0x204"/>
      <component glyphName="dieresis" x="23" y="27" flags="0x4"/>
    </TTGlyph>
    <TTGlyph name="ae" xMin="-12" yMin="-21" xMax="1655" yMax="1102">
      <contour>
        <pt x="1065" y="-21" on="1"/>
        <pt x="956" y="-21" on="0"/>
        <pt x="788" y="54" on="0"/>
        <pt x="737" y="125" on="1"/>
        <pt x="667" y="60" on="0"/>
        <pt x="470" y="-21" on="0"/>
        <pt x="349" y="-21" on="1"/>
        <pt x="170" y="-21" on="0"/>
        <pt x="-12" y="168" on="0"/>
        <pt x="19" y="324" on="1"/>
        <pt x="53" y="493" on="0"/>
        <pt x="330" y="655" on="0"/>
        <pt x="574" y="655" on="1"/>
        <pt x="712" y="655" on="1"/>
        <pt x="721" y="701" on="1"/>
        <pt x="735" y="771" on="0"/>
        <pt x="690" y="842" on="0"/>
        <pt x="636" y="842" on="1"/>
        <pt x="581" y="842" on="0"/>
        <pt x="499" y="783" on="0"/>
        <pt x="491" y="740" on="1"/>
        <pt x="172" y="758" on="1"/>
        <pt x="170" y="764" on="1"/>
        <pt x="196" y="920" on="0"/>
        <pt x="479" y="1102" on="0"/>
        <pt x="692" y="1102" on="1"/>
        <pt x="773" y="1102" on="0"/>
        <pt x="912" y="1059" on="0"/>
        <pt x="962" y="1019" on="1"/>
        <pt x="1028" y="1060" on="0"/>
        <pt x="1186" y="1102" on="0"/>
        <pt x="1279" y="1102" on="1"/>
        <pt x="1464" y="1102" on="0"/>
        <pt x="1655" y="833" on="0"/>
        <pt x="1611" y="612" on="1"/>
        <pt x="1576" y="435" on="1"/>
        <pt x="1009" y="435" on="1"/>
        <pt x="1006" y="430" on="1"/>
        <pt x="991" y="337" on="0"/>
        <pt x="1064" y="239" on="0"/>
        <pt x="1163" y="239" on="1"/>
        <pt x="1238" y="239" on="0"/>
        <pt x="1363" y="272" on="0"/>
        <pt x="1438" y="306" on="1"/>
        <pt x="1476" y="100" on="1"/>
        <pt x="1404" y="49" on="0"/>
        <pt x="1177" y="-21" on="0"/>
      </contour>
      <contour>
        <pt x="459" y="211" on="1"/>
        <pt x="497" y="211" on="0"/>
        <pt x="602" y="259" on="0"/>
        <pt x="639" y="292" on="1"/>
        <pt x="668" y="434" on="1"/>
        <pt x="668" y="437" on="0"/>
        <pt x="668" y="443" on="0"/>
        <pt x="670" y="451" on="1"/>
        <pt x="535" y="451" on="1"/>
        <pt x="466" y="451" on="0"/>
        <pt x="362" y="372" on="0"/>
        <pt x="352" y="320" on="1"/>
        <pt x="340" y="264" on="0"/>
        <pt x="392" y="211" on="0"/>
      </contour>
      <contour>
        <pt x="1227" y="842" on="1"/>
        <pt x="1158" y="842" on="0"/>
        <pt x="1072" y="741" on="0"/>
        <pt x="1050" y="651" on="1"/>
        <pt x="1053" y="646" on="1"/>
        <pt x="1293" y="646" on="1"/>
        <pt x="1298" y="672" on="1"/>
        <pt x="1315" y="757" on="0"/>
        <pt x="1278" y="842" on="0"/>
      </contour>
    </TTGlyph>
    <TTGlyph name="aeacute" xMin="-12" yMin="-21" xMax="1655" yMax="1506">
      <component glyphName="ae" x="0" y="0" flags="0x204"/>
      <component glyphName="acute" x="583" y="28" flags="0x4"/>
    </TTGlyph>
    <TTGlyph name="agrave" xMin="-9" yMin="-21" xMax="1031" yMax="1503">
      <component glyphName="a" x="0" y="0" flags="0x204"/>
      <component glyphName="grave" x="116" y="25" flags="0x4"/>
    </TTGlyph>
    <TTGlyph name="alpha" xMin="27" yMin="-21" xMax="1111" yMax="1102">
      <contour>
        <pt x="1111" y="1081" on="1"/>
        <pt x="969" y="370" on="1"/>
        <pt x="953" y="294" on="0"/>
        <pt x="970" y="241" on="0"/>
        <pt x="1003" y="241" on="1"/>
        <pt x="1007" y="241" on="0"/>
        <pt x="1013" y="242" on="0"/>
        <pt x="1015" y="244" on="1"/>
        <pt x="992" y="0" on="1"/>
        <pt x="958" y="-12" on="0"/>
        <pt x="904" y="-21" on="0"/>
        <pt x="868" y="-21" on="1"/>
        <pt x="779" y="-21" on="0"/>
        <pt x="656" y="63" on="0"/>
        <pt x="633" y="146" on="1"/>
        <pt x="575" y="65" on="0"/>
        <pt x="440" y="-21" on="0"/>
        <pt x="360" y="-21" on="1"/>
        <pt x="185" y="-21" on="0"/>
        <pt x="27" y="280" on="0"/>
        <pt x="75" y="518" on="1"/>
        <pt x="79" y="539" on="1"/>
        <pt x="132" y="808" on="0"/>
        <pt x="394" y="1102" on="0"/>
        <pt x="586" y="1102" on="1"/>
        <pt x="651" y="1102" on="0"/>
        <pt x="743" y="1027" on="0"/>
        <pt x="771" y="958" on="1"/>
        <pt x="819" y="1081" on="1"/>
      </contour>
      <contour>
        <pt x="411" y="518" on="1"/>
        <pt x="382" y="377" on="0"/>
        <pt x="417" y="239" on="0"/>
        <pt x="497" y="239" on="1"/>
        <pt x="534" y="239" on="0"/>
        <pt x="598" y="269" on="0"/>
        <pt x="623" y="300" on="1"/>
        <pt x="624" y="315" on="0"/>
        <pt x="629" y="349" on="0"/>
        <pt x="634" y="370" on="1"/>
        <pt x="716" y="783" on="1"/>
        <pt x="703" y="811" on="0"/>
        <pt x="654" y="842" on="0"/>
        <pt x="619" y="842" on="1"/>
        <pt x="548" y="842" on="0"/>
        <pt x="441" y="672" on="0"/>
        <pt x="415" y="539" on="1"/>
      </contour>
    </TTGlyph>
    <TTGlyph name="alpha.alt" xMin="27" yMin="-21" xMax="1172" yMax="1102">
      <contour>
        <pt x="683" y="124" on="1"/>
        <pt x="621" y="53" on="0"/>
        <pt x="472" y="-21" on="0"/>
        <pt x="383" y="-21" on="1"/>
        <pt x="198" y="-21" on="0"/>
        <pt x="27" y="280" on="0"/>
        <pt x="75" y="518" on="1"/>
        <pt x="79" y="539" on="1"/>
        <pt x="132" y="808" on="0"/>
        <pt x="406" y="1102" on="0"/>
        <pt x="609" y="1102" on="1"/>
        <pt x="691" y="1102" on="0"/>
        <pt x="806" y="1020" on="0"/>
        <pt x="841" y="945" on="1"/>
        <pt x="886" y="1082" on="1"/>
        <pt x="1172" y="1082" on="1"/>
        <pt x="962" y="540" on="1"/>
        <pt x="962" y="0" on="1"/>
        <pt x="676" y="0" on="1"/>
      </contour>
      <contour>
        <pt x="411" y="518" on="1"/>
        <pt x="382" y="377" on="0"/>
        <pt x="417" y="239" on="0"/>
        <pt x="497" y="239" on="1"/>
        <pt x="573" y="239" on="0"/>
        <pt x="679" y="380" on="0"/>
        <pt x="695" y="483" on="1"/>
        <pt x="710" y="562" on="1"/>
        <pt x="739" y="683" on="0"/>
        <pt x="698" y="842" on="0"/>
        <pt x="619" y="842" on="1"/>
        <pt x="548" y="842" on="0"/>
        <pt x="441" y="672" on="0"/>
        <pt x="415" y="539" on="1"/>
      </contour>
    </TTGlyph>
    <TTGlyph name="alphatonos" xMin="27" yMin="-21" xMax="1111" yMax="1539">
      <component glyphName="alpha" x="0" y="0" flags="0x204"/>
      <component glyphName="tonos" x="174" y="-79" flags="0x4"/>
    </TTGlyph>
    <TTGlyph name="amacron" xMin="-9" yMin="-21" xMax="1051" yMax="1454">
      <component glyphName="a" x="0" y="0" flags="0x204"/>
      <component glyphName="macron" x="38" y="-4" flags="0x4"/>
    </TTGlyph>
    <TTGlyph name="ampersand" xMin="20" yMin="-21" xMax="1228" yMax="1477">
      <contour>
        <pt x="346" y="767" on="1"/>
        <pt x="301" y="856" on="0"/>
        <pt x="265" y="1007" on="0"/>
        <pt x="278" y="1084" on="1"/>
        <pt x="307" y="1264" on="0"/>
        <pt x="552" y="1477" on="0"/>
        <pt x="731" y="1477" on="1"/>
        <pt x="875" y="1477" on="0"/>
        <pt x="1037" y="1270" on="0"/>
        <pt x="1014" y="1127" on="1"/>
        <pt x="998" y="1025" on="0"/>
        <pt x="888" y="861" on="0"/>
        <pt x="804" y="805" on="1"/>
        <pt x="718" y="748" on="1"/>
        <pt x="892" y="478" on="1"/>
        <pt x="930" y="532" on="0"/>
        <pt x="983" y="659" on="0"/>
        <pt x="994" y="728" on="1"/>
        <pt x="1228" y="728" on="1"/>
        <pt x="1204" y="581" on="0"/>
        <pt x="1110" y="351" on="0"/>
        <pt x="1032" y="262" on="1"/>
        <pt x="1201" y="0" on="1"/>
        <pt x="830" y="0" on="1"/>
        <pt x="778" y="80" on="1"/>
        <pt x="690" y="29" on="0"/>
        <pt x="524" y="-21" on="0"/>
        <pt x="430" y="-21" on="1"/>
        <pt x="233" y="-21" on="0"/>
        <pt x="20" y="210" on="0"/>
        <pt x="50" y="391" on="1"/>
        <pt x="69" y="512" on="0"/>
        <pt x="206" y="668" on="0"/>
        <pt x="343" y="765" on="1"/>
      </contour>
      <contour>
        <pt x="494" y="239" on="1"/>
        <pt x="531" y="239" on="0"/>
        <pt x="611" y="257" on="0"/>
        <pt x="651" y="275" on="1"/>
        <pt x="457" y="574" on="1"/>
        <pt x="454" y="572" on="1"/>
        <pt x="427" y="533" on="0"/>
        <pt x="395" y="458" on="0"/>
        <pt x="388" y="414" on="1"/>
        <pt x="375" y="335" on="0"/>
        <pt x="440" y="239" on="0"/>
      </contour>
      <contour>
        <pt x="567" y="1088" on="1"/>
        <pt x="560" y="1049" on="0"/>
        <pt x="581" y="972" on="0"/>
        <pt x="607" y="927" on="1"/>
        <pt x="657" y="958" on="1"/>
        <pt x="714" y="994" on="0"/>
        <pt x="759" y="1062" on="0"/>
        <pt x="766" y="1103" on="1"/>
        <pt x="773" y="1149" on="0"/>
        <pt x="732" y="1217" on="0"/>
        <pt x="689" y="1217" on="1"/>
        <pt x="642" y="1217" on="0"/>
        <pt x="575" y="1143" on="0"/>
      </contour>
    </TTGlyph>
    <TTGlyph name="anoteleia" xMin="174" yMin="539" xMax="561" yMax="823">
      <component glyphName="periodcentered" x="0" y="0" flags="0x4"/>
    </TTGlyph>
    <TTGlyph name="aogonek" xMin="-9" yMin="-417" xMax="1031" yMax="1102">
      <component glyphName="a" x="0" y="0" flags="0x204"/>
      <component glyphName="ogonek" x="482" y="0" flags="0x4"/>
    </TTGlyph>
    <TTGlyph name="approxequal" xMin="68" yMin="221" xMax="1132" yMax="1025">
      <contour>
        <pt x="198" y="877" on="1"/>
        <pt x="257" y="945" on="0"/>
        <pt x="387" y="1023" on="0"/>
        <pt x="448" y="1023" on="1"/>
        <pt x="513" y="1025" on="0"/>
        <pt x="605" y="990" on="0"/>
        <pt x="672" y="950" on="1"/>
        <pt x="731" y="914" on="0"/>
        <pt x="821" y="881" on="0"/>
        <pt x="884" y="881" on="1"/>
        <pt x="940" y="881" on="0"/>
        <pt x="1074" y="958" on="0"/>
        <pt x="1127" y="1023" on="1"/>
        <pt x="1132" y="1020" on="1"/>
        <pt x="1096" y="797" on="1"/>
        <pt x="1037" y="728" on="0"/>
        <pt x="907" y="651" on="0"/>
        <pt x="848" y="651" on="1"/>
        <pt x="789" y="651" on="0"/>
        <pt x="691" y="686" on="0"/>
        <pt x="636" y="720" on="1"/>
        <pt x="569" y="760" on="0"/>
        <pt x="477" y="795" on="0"/>
        <pt x="412" y="793" on="1"/>
        <pt x="355" y="793" on="0"/>
        <pt x="220" y="715" on="0"/>
        <pt x="168" y="651" on="1"/>
        <pt x="163" y="654" on="1"/>
      </contour>
      <contour>
        <pt x="103" y="447" on="1"/>
        <pt x="162" y="515" on="0"/>
        <pt x="292" y="593" on="0"/>
        <pt x="352" y="593" on="1"/>
        <pt x="418" y="595" on="0"/>
        <pt x="510" y="560" on="0"/>
        <pt x="577" y="520" on="1"/>
        <pt x="636" y="483" on="0"/>
        <pt x="725" y="451" on="0"/>
        <pt x="788" y="451" on="1"/>
        <pt x="844" y="451" on="0"/>
        <pt x="979" y="528" on="0"/>
        <pt x="1031" y="593" on="1"/>
        <pt x="1036" y="590" on="1"/>
        <pt x="1001" y="367" on="1"/>
        <pt x="942" y="298" on="0"/>
        <pt x="812" y="221" on="0"/>
        <pt x="752" y="221" on="1"/>
        <pt x="693" y="221" on="0"/>
        <pt x="596" y="255" on="0"/>
        <pt x="541" y="290" on="1"/>
        <pt x="472" y="330" on="0"/>
        <pt x="382" y="365" on="0"/>
        <pt x="316" y="363" on="1"/>
        <pt x="259" y="363" on="0"/>
        <pt x="125" y="285" on="0"/>
        <pt x="73" y="221" on="1"/>
        <pt x="68" y="224" on="1"/>
      </contour>
    </TTGlyph>
    <TTGlyph name="aring" xMin="-9" yMin="-21" xMax="1031" yMax="1612">
      <component glyphName="a" x="0" y="0" flags="0x204"/>
      <component glyphName="ring" x="210" y="125" flags="0x4"/>
    </TTGlyph>
    <TTGlyph name="aringacute" xMin="-9" yMin="-21" xMax="1161" yMax="1847">
      <component glyphName="a" x="0" y="0" flags="0x204"/>
      <component glyphName="ringacute" x="181" y="65" flags="0x4"/>
    </TTGlyph>
    <TTGlyph name="asciicircum" xMin="96" yMin="729" xMax="898" yMax="1456">
      <contour>
        <pt x="345" y="729" on="1"/>
        <pt x="96" y="729" on="1"/>
        <pt x="519" y="1456" on="1"/>
        <pt x="764" y="1456" on="1"/>
        <pt x="898" y="729" on="1"/>
        <pt x="648" y="729" on="1"/>
        <pt x="581" y="1142" on="1"/>
        <pt x="581" y="1146" on="1"/>
        <pt x="575" y="1147" on="1"/>
        <pt x="573" y="1142" on="1"/>
      </contour>
    </TTGlyph>
    <TTGlyph name="asciitilde" xMin="88" yMin="367" xMax="1167" yMax="836">
      <contour>
        <pt x="1167" y="769" on="1"/>
        <pt x="1137" y="587" on="0"/>
        <pt x="938" y="367" on="0"/>
        <pt x="807" y="367" on="1"/>
        <pt x="733" y="367" on="0"/>
        <pt x="608" y="429" on="0"/>
        <pt x="550" y="497" on="1"/>
        <pt x="514" y="540" on="0"/>
        <pt x="464" y="576" on="0"/>
        <pt x="427" y="576" on="1"/>
        <pt x="391" y="576" on="0"/>
        <pt x="321" y="475" on="0"/>
        <pt x="310" y="405" on="1"/>
        <pt x="88" y="435" on="1"/>
        <pt x="117" y="617" on="0"/>
        <pt x="315" y="836" on="0"/>
        <pt x="447" y="836" on="1"/>
        <pt x="518" y="836" on="0"/>
        <pt x="652" y="770" on="0"/>
        <pt x="706" y="707" on="1"/>
        <pt x="738" y="664" on="0"/>
        <pt x="790" y="628" on="0"/>
        <pt x="825" y="628" on="1"/>
        <pt x="861" y="628" on="0"/>
        <pt x="933" y="729" on="0"/>
        <pt x="945" y="800" on="1"/>
      </contour>
    </TTGlyph>
    <TTGlyph name="asterisk" xMin="154" yMin="565" xMax="958" yMax="1456">
      <contour>
        <pt x="416" y="958" on="1"/>
        <pt x="154" y="1048" on="1"/>
        <pt x="251" y="1236" on="1"/>
        <pt x="497" y="1106" on="1"/>
        <pt x="545" y="1456" on="1"/>
        <pt x="741" y="1456" on="1"/>
        <pt x="648" y="1106" on="1"/>
        <pt x="652" y="1102" on="1"/>
        <pt x="937" y="1226" on="1"/>
        <pt x="958" y="1036" on="1"/>
        <pt x="656" y="946" on="1"/>
        <pt x="791" y="682" on="1"/>
        <pt x="610" y="565" on="1"/>
        <pt x="513" y="858" on="1"/>
        <pt x="301" y="575" on="1"/>
        <pt x="164" y="687" on="1"/>
      </contour>
    </TTGlyph>
    <TTGlyph name="at" xMin="-49" yMin="-453" xMax="1725" yMax="1410">
      <contour>
        <pt x="1629" y="520" on="1"/>
        <pt x="1576" y="299" on="0"/>
        <pt x="1282" y="-21" on="0"/>
        <pt x="1051" y="-21" on="1"/>
        <pt x="979" y="-21" on="0"/>
        <pt x="886" y="73" on="0"/>
        <pt x="878" y="157" on="1"/>
        <pt x="824" y="70" on="0"/>
        <pt x="692" y="-17" on="0"/>
        <pt x="616" y="-17" on="1"/>
        <pt x="486" y="-17" on="0"/>
        <pt x="376" y="224" on="0"/>
        <pt x="434" y="416" on="1"/>
        <pt x="508" y="667" on="0"/>
        <pt x="793" y="969" on="0"/>
        <pt x="953" y="969" on="1"/>
        <pt x="1059" y="969" on="0"/>
        <pt x="1201" y="914" on="0"/>
        <pt x="1270" y="863" on="1"/>
        <pt x="1266" y="859" on="1"/>
        <pt x="1271" y="859" on="1"/>
        <pt x="1111" y="293" on="1"/>
        <pt x="1089" y="205" on="0"/>
        <pt x="1101" y="141" on="0"/>
        <pt x="1125" y="149" on="1"/>
        <pt x="1131" y="147" on="1"/>
        <pt x="1221" y="142" on="0"/>
        <pt x="1392" y="360" on="0"/>
        <pt x="1432" y="520" on="1"/>
        <pt x="1514" y="859" on="0"/>
        <pt x="1317" y="1238" on="0"/>
        <pt x="1033" y="1238" on="1"/>
        <pt x="773" y="1238" on="0"/>
        <pt x="348" y="824" on="0"/>
        <pt x="265" y="478" on="1"/>
        <pt x="181" y="135" on="0"/>
        <pt x="396" y="-263" on="0"/>
        <pt x="673" y="-263" on="1"/>
        <pt x="746" y="-263" on="0"/>
        <pt x="929" y="-225" on="0"/>
        <pt x="994" y="-198" on="1"/>
        <pt x="998" y="-364" on="1"/>
        <pt x="926" y="-406" on="0"/>
        <pt x="724" y="-453" on="0"/>
        <pt x="632" y="-453" on="1"/>
        <pt x="279" y="-453" on="0"/>
        <pt x="-49" y="53" on="0"/>
        <pt x="50" y="478" on="1"/>
        <pt x="152" y="907" on="0"/>
        <pt x="700" y="1410" on="0"/>
        <pt x="1071" y="1410" on="1"/>
        <pt x="1410" y="1410" on="0"/>
        <pt x="1725" y="924" on="0"/>
      </contour>
      <contour>
        <pt x="678" y="416" on="1"/>
        <pt x="646" y="297" on="0"/>
        <pt x="668" y="173" on="0"/>
        <pt x="720" y="173" on="1"/>
        <pt x="764" y="173" on="0"/>
        <pt x="851" y="233" on="0"/>
        <pt x="896" y="314" on="1"/>
        <pt x="1024" y="769" on="1"/>
        <pt x="1008" y="773" on="0"/>
        <pt x="973" y="778" on="0"/>
        <pt x="954" y="778" on="1"/>
        <pt x="866" y="778" on="0"/>
        <pt x="729" y="594" on="0"/>
      </contour>
    </TTGlyph>
    <TTGlyph name="atilde" xMin="-9" yMin="-21" xMax="1086" yMax="1590">
      <component glyphName="a" x="0" y="0" flags="0x204"/>
      <component glyphName="tilde" x="77" y="59" flags="0x4"/>
    </TTGlyph>
    <TTGlyph name="b" xMin="4" yMin="-21" xMax="1102" yMax="1560">
      <contour>
        <pt x="1048" y="498" on="1"/>
        <pt x="994" y="234" on="0"/>
        <pt x="768" y="-21" on="0"/>
        <pt x="571" y="-21" on="1"/>
        <pt x="493" y="-21" on="0"/>
        <pt x="371" y="45" on="0"/>
        <pt x="333" y="107" on="1"/>
        <pt x="294" y="0" on="1"/>
        <pt x="4" y="0" on="1"/>
        <pt x="316" y="1560" on="1"/>
        <pt x="650" y="1560" on="1"/>
        <pt x="539" y="1006" on="1"/>
        <pt x="587" y="1052" on="0"/>
        <pt x="696" y="1102" on="0"/>
        <pt x="756" y="1102" on="1"/>
        <pt x="939" y="1102" on="0"/>
        <pt x="1102" y="769" on="0"/>
        <pt x="1052" y="519" on="1"/>
      </contour>
      <contour>
        <pt x="719" y="519" on="1"/>
        <pt x="750" y="679" on="0"/>
        <pt x="728" y="842" on="0"/>
        <pt x="642" y="842" on="1"/>
        <pt x="598" y="842" on="0"/>
        <pt x="518" y="788" on="0"/>
        <pt x="486" y="740" on="1"/>
        <pt x="393" y="278" on="1"/>
        <pt x="409" y="257" on="0"/>
        <pt x="469" y="239" on="0"/>
        <pt x="516" y="239" on="1"/>
        <pt x="599" y="239" on="0"/>
        <pt x="688" y="366" on="0"/>
        <pt x="715" y="498" on="1"/>
      </contour>
    </TTGlyph>
    <TTGlyph name="backslash" xMin="191" yMin="-125" xMax="774" yMax="1456">
      <contour>
        <pt x="191" y="1456" on="1"/>
        <pt x="525" y="1456" on="1"/>
        <pt x="774" y="-125" on="1"/>
        <pt x="439" y="-125" on="1"/>
      </contour>
    </TTGlyph>
    <TTGlyph name="bar" xMin="51" yMin="-270" xMax="508" yMax="1456">
      <contour>
        <pt x="232" y="-270" on="1"/>
        <pt x="51" y="-270" on="1"/>
        <pt x="327" y="1456" on="1"/>
        <pt x="508" y="1456" on="1"/>
      </contour>
    </TTGlyph>
    <TTGlyph name="beta" xMin="-43" yMin="-415" xMax="1230" yMax="1477">
      <contour>
        <pt x="811" y="1477" on="1"/>
        <pt x="1011" y="1477" on="0"/>
        <pt x="1230" y="1269" on="0"/>
        <pt x="1193" y="1082" on="1"/>
        <pt x="1170" y="971" on="0"/>
        <pt x="1041" y="804" on="0"/>
        <pt x="946" y="757" on="1"/>
        <pt x="1047" y="713" on="0"/>
        <pt x="1138" y="533" on="0"/>
        <pt x="1114" y="408" on="1"/>
        <pt x="1069" y="189" on="0"/>
        <pt x="818" y="-21" on="0"/>
        <pt x="618" y="-21" on="1"/>
        <pt x="558" y="-21" on="0"/>
        <pt x="435" y="13" on="0"/>
        <pt x="384" y="48" on="1"/>
        <pt x="291" y="-415" on="1"/>
        <pt x="-43" y="-415" on="1"/>
        <pt x="244" y="1018" on="1"/>
        <pt x="287" y="1239" on="0"/>
        <pt x="603" y="1477" on="0"/>
      </contour>
      <contour>
        <pt x="589" y="626" on="1"/>
        <pt x="610" y="733" on="1"/>
        <pt x="635" y="857" on="1"/>
        <pt x="683" y="857" on="1"/>
        <pt x="747" y="857" on="0"/>
        <pt x="835" y="956" on="0"/>
        <pt x="854" y="1051" on="1"/>
        <pt x="868" y="1125" on="0"/>
        <pt x="821" y="1217" on="0"/>
        <pt x="759" y="1217" on="1"/>
        <pt x="698" y="1217" on="0"/>
        <pt x="596" y="1109" on="0"/>
        <pt x="578" y="1018" on="1"/>
        <pt x="429" y="273" on="1"/>
        <pt x="456" y="256" on="0"/>
        <pt x="533" y="239" on="0"/>
        <pt x="582" y="239" on="1"/>
        <pt x="652" y="239" on="0"/>
        <pt x="766" y="341" on="0"/>
        <pt x="782" y="415" on="1"/>
        <pt x="805" y="530" on="0"/>
        <pt x="738" y="626" on="0"/>
        <pt x="651" y="626" on="1"/>
      </contour>
    </TTGlyph>
    <TTGlyph name="braceleft" xMin="51" yMin="-360" xMax="741" yMax="1597">
      <contour>
        <pt x="394" y="-360" on="1"/>
        <pt x="220" y="-305" on="0"/>
        <pt x="103" y="-65" on="0"/>
        <pt x="131" y="106" on="1"/>
        <pt x="163" y="309" on="1"/>
        <pt x="178" y="405" on="0"/>
        <pt x="125" y="505" on="0"/>
        <pt x="51" y="505" on="1"/>
        <pt x="65" y="593" on="1"/>
        <pt x="87" y="732" on="1"/>
        <pt x="157" y="732" on="0"/>
        <pt x="247" y="836" on="0"/>
        <pt x="263" y="929" on="1"/>
        <pt x="295" y="1132" on="1"/>
        <pt x="323" y="1309" on="0"/>
        <pt x="514" y="1542" on="0"/>
        <pt x="708" y="1597" on="1"/>
        <pt x="741" y="1421" on="1"/>
        <pt x="674" y="1392" on="0"/>
        <pt x="602" y="1245" on="0"/>
        <pt x="584" y="1132" on="1"/>
        <pt x="552" y="929" on="1"/>
        <pt x="534" y="820" on="0"/>
        <pt x="421" y="660" on="0"/>
        <pt x="324" y="616" on="1"/>
        <pt x="404" y="568" on="0"/>
        <pt x="468" y="408" on="0"/>
        <pt x="452" y="309" on="1"/>
        <pt x="420" y="106" on="1"/>
        <pt x="401" y="-11" on="0"/>
        <pt x="425" y="-154" on="0"/>
        <pt x="485" y="-183" on="1"/>
      </contour>
    </TTGlyph>
    <TTGlyph name="braceright" xMin="-53" yMin="-360" xMax="637" yMax="1597">
      <contour>
        <pt x="-53" y="-183" on="1"/>
        <pt x="13" y="-154" on="0"/>
        <pt x="85" y="-7" on="0"/>
        <pt x="104" y="106" on="1"/>
        <pt x="136" y="309" on="1"/>
        <pt x="153" y="417" on="0"/>
        <pt x="267" y="577" on="0"/>
        <pt x="365" y="622" on="1"/>
        <pt x="284" y="668" on="0"/>
        <pt x="219" y="828" on="0"/>
        <pt x="236" y="929" on="1"/>
        <pt x="268" y="1132" on="1"/>
        <pt x="286" y="1249" on="0"/>
        <pt x="261" y="1392" on="0"/>
        <pt x="203" y="1421" on="1"/>
        <pt x="294" y="1597" on="1"/>
        <pt x="467" y="1542" on="0"/>
        <pt x="583" y="1303" on="0"/>
        <pt x="556" y="1132" on="1"/>
        <pt x="524" y="929" on="1"/>
        <pt x="507" y="832" on="0"/>
        <pt x="562" y="732" on="0"/>
        <pt x="637" y="732" on="1"/>
        <pt x="611" y="567" on="1"/>
        <pt x="610" y="567" on="1"/>
        <pt x="601" y="505" on="1"/>
        <pt x="529" y="505" on="0"/>
        <pt x="438" y="400" on="0"/>
        <pt x="424" y="309" on="1"/>
        <pt x="392" y="106" on="1"/>
        <pt x="363" y="-71" on="0"/>
        <pt x="173" y="-305" on="0"/>
        <pt x="-20" y="-360" on="1"/>
      </contour>
    </TTGlyph>
    <TTGlyph name="bracketleft" xMin="-26" yMin="-349" xMax="740" yMax="1706">
      <contour>
        <pt x="701" y="1460" on="1"/>
        <pt x="599" y="1460" on="1"/>
        <pt x="348" y="-104" on="1"/>
        <pt x="450" y="-104" on="1"/>
        <pt x="411" y="-349" on="1"/>
        <pt x="-26" y="-349" on="1"/>
        <pt x="303" y="1706" on="1"/>
        <pt x="740" y="1706" on="1"/>
      </contour>
    </TTGlyph>
    <TTGlyph name="bracketright" xMin="-106" yMin="-349" xMax="659" yMax="1706">
      <contour>
        <pt x="223" y="1706" on="1"/>
        <pt x="659" y="1706" on="1"/>
        <pt x="330" y="-349" on="1"/>
        <pt x="-106" y="-349" on="1"/>
        <pt x="-67" y="-104" on="1"/>
        <pt x="36" y="-104" on="1"/>
        <pt x="287" y="1460" on="1"/>
        <pt x="184" y="1460" on="1"/>
      </contour>
    </TTGlyph>
    <TTGlyph name="breve" xMin="231" yMin="1149" xMax="946" yMax="1456">
      <contour>
        <pt x="944" y="1456" on="1"/>
        <pt x="946" y="1450" on="1"/>
        <pt x="928" y="1312" on="0"/>
        <pt x="714" y="1149" on="0"/>
        <pt x="553" y="1149" on="1"/>
        <pt x="399" y="1149" on="0"/>
        <pt x="231" y="1319" on="0"/>
        <pt x="257" y="1450" on="1"/>
        <pt x="260" y="1456" on="1"/>
        <pt x="500" y="1456" on="1"/>
        <pt x="492" y="1407" on="0"/>
        <pt x="532" y="1349" on="0"/>
        <pt x="585" y="1349" on="1"/>
        <pt x="635" y="1349" on="0"/>
        <pt x="696" y="1410" on="0"/>
        <pt x="704" y="1456" on="1"/>
      </contour>
    </TTGlyph>
    <TTGlyph name="breveacutecomb" xMin="273" yMin="1194" xMax="984" yMax="1685">
      <contour>
        <pt x="982" y="1456" on="1"/>
        <pt x="984" y="1450" on="1"/>
        <pt x="966" y="1329" on="0"/>
        <pt x="754" y="1194" on="0"/>
        <pt x="592" y="1194" on="1"/>
        <pt x="443" y="1194" on="0"/>
        <pt x="273" y="1339" on="0"/>
        <pt x="301" y="1450" on="1"/>
        <pt x="303" y="1456" on="1"/>
        <pt x="543" y="1456" on="1"/>
        <pt x="534" y="1413" on="0"/>
        <pt x="573" y="1364" on="0"/>
        <pt x="626" y="1364" on="1"/>
        <pt x="674" y="1364" on="0"/>
        <pt x="736" y="1417" on="0"/>
        <pt x="744" y="1456" on="1"/>
      </contour>
      <contour>
        <pt x="723" y="1685" on="1"/>
        <pt x="946" y="1685" on="1"/>
        <pt x="948" y="1679" on="1"/>
        <pt x="749" y="1501" on="1"/>
        <pt x="573" y="1501" on="1"/>
        <pt x="571" y="1506" on="1"/>
      </contour>
    </TTGlyph>
    <TTGlyph name="brevegravecomb" xMin="272" yMin="1149" xMax="983" yMax="1748">
      <contour>
        <pt x="982" y="1456" on="1"/>
        <pt x="983" y="1450" on="1"/>
        <pt x="959" y="1308" on="0"/>
        <pt x="744" y="1149" on="0"/>
        <pt x="584" y="1149" on="1"/>
        <pt x="436" y="1149" on="0"/>
        <pt x="272" y="1320" on="0"/>
        <pt x="303" y="1450" on="1"/>
        <pt x="306" y="1456" on="1"/>
        <pt x="523" y="1456" on="1"/>
        <pt x="513" y="1407" on="0"/>
        <pt x="561" y="1349" on="0"/>
        <pt x="624" y="1349" on="1"/>
        <pt x="681" y="1349" on="0"/>
        <pt x="757" y="1411" on="0"/>
        <pt x="766" y="1456" on="1"/>
      </contour>
      <contour>
        <pt x="811" y="1524" on="1"/>
        <pt x="555" y="1524" on="1"/>
        <pt x="410" y="1748" on="1"/>
        <pt x="703" y="1748" on="1"/>
      </contour>
    </TTGlyph>
    <TTGlyph name="brevehookcomb" xMin="275" yMin="1212" xMax="1001" yMax="1814">
      <contour>
        <pt x="1000" y="1456" on="1"/>
        <pt x="1001" y="1450" on="1"/>
        <pt x="985" y="1338" on="0"/>
        <pt x="771" y="1212" on="0"/>
        <pt x="605" y="1212" on="1"/>
        <pt x="451" y="1212" on="0"/>
        <pt x="275" y="1347" on="0"/>
        <pt x="302" y="1450" on="1"/>
        <pt x="304" y="1456" on="1"/>
        <pt x="548" y="1456" on="1"/>
        <pt x="539" y="1416" on="0"/>
        <pt x="581" y="1371" on="0"/>
        <pt x="637" y="1371" on="1"/>
        <pt x="686" y="1371" on="0"/>
        <pt x="750" y="1419" on="0"/>
        <pt x="758" y="1456" on="1"/>
      </contour>
      <contour>
        <pt x="527" y="1501" on="1"/>
        <pt x="524" y="1600" on="1"/>
        <pt x="590" y="1602" on="0"/>
        <pt x="649" y="1622" on="0"/>
        <pt x="649" y="1645" on="1"/>
        <pt x="649" y="1651" on="1"/>
        <pt x="659" y="1678" on="0"/>
        <pt x="603" y="1700" on="0"/>
        <pt x="549" y="1700" on="1"/>
        <pt x="579" y="1814" on="1"/>
        <pt x="774" y="1814" on="0"/>
        <pt x="954" y="1738" on="0"/>
        <pt x="939" y="1660" on="1"/>
        <pt x="929" y="1611" on="0"/>
        <pt x="840" y="1555" on="0"/>
        <pt x="784" y="1549" on="1"/>
        <pt x="774" y="1501" on="1"/>
      </contour>
    </TTGlyph>
    <TTGlyph name="brevetildecomb" xMin="275" yMin="1212" xMax="986" yMax="1770">
      <contour>
        <pt x="984" y="1456" on="1"/>
        <pt x="986" y="1450" on="1"/>
        <pt x="969" y="1338" on="0"/>
        <pt x="758" y="1212" on="0"/>
        <pt x="596" y="1212" on="1"/>
        <pt x="446" y="1212" on="0"/>
        <pt x="275" y="1347" on="0"/>
        <pt x="302" y="1450" on="1"/>
        <pt x="304" y="1456" on="1"/>
        <pt x="543" y="1456" on="1"/>
        <pt x="534" y="1416" on="0"/>
        <pt x="574" y="1371" on="0"/>
        <pt x="628" y="1371" on="1"/>
        <pt x="676" y="1371" on="0"/>
        <pt x="737" y="1419" on="0"/>
        <pt x="745" y="1456" on="1"/>
      </contour>
      <contour>
        <pt x="972" y="1731" on="1"/>
        <pt x="956" y="1652" on="0"/>
        <pt x="850" y="1550" on="0"/>
        <pt x="785" y="1550" on="1"/>
        <pt x="739" y="1550" on="0"/>
        <pt x="613" y="1615" on="0"/>
        <pt x="576" y="1615" on="1"/>
        <pt x="555" y="1615" on="0"/>
        <pt x="513" y="1565" on="0"/>
        <pt x="506" y="1530" on="1"/>
        <pt x="380" y="1568" on="1"/>
        <pt x="395" y="1646" on="0"/>
        <pt x="500" y="1749" on="0"/>
        <pt x="567" y="1749" on="1"/>
        <pt x="601" y="1749" on="0"/>
        <pt x="737" y="1685" on="0"/>
        <pt x="776" y="1685" on="1"/>
        <pt x="796" y="1685" on="0"/>
        <pt x="837" y="1734" on="0"/>
        <pt x="845" y="1770" on="1"/>
      </contour>
    </TTGlyph>
    <TTGlyph name="brokenbar" xMin="-27" yMin="-270" xMax="606" yMax="1456">
      <contour>
        <pt x="-27" y="-270" on="1"/>
        <pt x="132" y="525" on="1"/>
        <pt x="420" y="525" on="1"/>
        <pt x="261" y="-270" on="1"/>
      </contour>
      <contour>
        <pt x="455" y="698" on="1"/>
        <pt x="167" y="698" on="1"/>
        <pt x="318" y="1456" on="1"/>
        <pt x="606" y="1456" on="1"/>
      </contour>
    </TTGlyph>
    <TTGlyph name="bullet" xMin="163" yMin="468" xMax="710" yMax="1054">
      <contour>
        <pt x="206" y="813" on="1"/>
        <pt x="228" y="926" on="0"/>
        <pt x="384" y="1054" on="0"/>
        <pt x="495" y="1054" on="1"/>
        <pt x="599" y="1054" on="0"/>
        <pt x="710" y="918" on="0"/>
        <pt x="690" y="813" on="1"/>
        <pt x="668" y="706" on="1"/>
        <pt x="645" y="592" on="0"/>
        <pt x="492" y="468" on="0"/>
        <pt x="379" y="468" on="1"/>
        <pt x="276" y="468" on="0"/>
        <pt x="163" y="602" on="0"/>
        <pt x="184" y="706" on="1"/>
      </contour>
    </TTGlyph>
    <TTGlyph name="c" xMin="19" yMin="-21" xMax="1016" yMax="1102">
      <contour>
        <pt x="493" y="239" on="1"/>
        <pt x="550" y="239" on="0"/>
        <pt x="615" y="313" on="0"/>
        <pt x="627" y="385" on="1"/>
        <pt x="931" y="385" on="1"/>
        <pt x="933" y="379" on="1"/>
        <pt x="907" y="194" on="0"/>
        <pt x="640" y="-21" on="0"/>
        <pt x="452" y="-21" on="1"/>
        <pt x="230" y="-21" on="0"/>
        <pt x="19" y="288" on="0"/>
        <pt x="58" y="529" on="1"/>
        <pt x="61" y="552" on="1"/>
        <pt x="101" y="804" on="0"/>
        <pt x="396" y="1102" on="0"/>
        <pt x="628" y="1102" on="1"/>
        <pt x="815" y="1102" on="0"/>
        <pt x="1016" y="870" on="0"/>
        <pt x="981" y="673" on="1"/>
        <pt x="978" y="668" on="1"/>
        <pt x="672" y="668" on="1"/>
        <pt x="684" y="750" on="0"/>
        <pt x="647" y="842" on="0"/>
        <pt x="587" y="842" on="1"/>
        <pt x="508" y="842" on="0"/>
        <pt x="414" y="682" on="0"/>
        <pt x="394" y="552" on="1"/>
        <pt x="391" y="529" on="1"/>
        <pt x="368" y="387" on="0"/>
        <pt x="407" y="239" on="0"/>
      </contour>
    </TTGlyph>
    <TTGlyph name="cacute" xMin="19" yMin="-21" xMax="1027" yMax="1505">
      <component glyphName="c" x="0" y="0" flags="0x204"/>
      <component glyphName="acute" x="234" y="27" flags="0x4"/>
    </TTGlyph>
    <TTGlyph name="caron" xMin="292" yMin="1252" xMax="1084" yMax="1528">
      <contour>
        <pt x="667" y="1412" on="1"/>
        <pt x="780" y="1528" on="1"/>
        <pt x="1084" y="1528" on="1"/>
        <pt x="1080" y="1512" on="1"/>
        <pt x="751" y="1252" on="1"/>
        <pt x="518" y="1252" on="1"/>
        <pt x="292" y="1514" on="1"/>
        <pt x="295" y="1528" on="1"/>
        <pt x="602" y="1528" on="1"/>
      </contour>
    </TTGlyph>
    <TTGlyph name="ccaron" xMin="19" yMin="-21" xMax="1080" yMax="1555">
      <component glyphName="c" x="0" y="0" flags="0x204"/>
      <component glyphName="caron" x="-4" y="27" flags="0x4"/>
    </TTGlyph>
    <TTGlyph name="ccedilla" xMin="19" yMin="-470" xMax="1016" yMax="1102">
      <component glyphName="c" x="0" y="0" flags="0x204"/>
      <component glyphName="cedilla" x="307" y="0" flags="0x4"/>
    </TTGlyph>
    <TTGlyph name="ccircumflex" xMin="19" yMin="-21" xMax="1018" yMax="1531">
      <component glyphName="c" x="0" y="0" flags="0x204"/>
      <component glyphName="circumflex" x="-29" y="13" flags="0x4"/>
    </TTGlyph>
    <TTGlyph name="cedilla" xMin="-40" yMin="-470" xMax="375" yMax="10">
      <contour>
        <pt x="281" y="10" on="1"/>
        <pt x="259" y="-51" on="1"/>
        <pt x="314" y="-62" on="0"/>
        <pt x="375" y="-145" on="0"/>
        <pt x="360" y="-224" on="1"/>
        <pt x="335" y="-345" on="0"/>
        <pt x="133" y="-470" on="0"/>
        <pt x="-35" y="-468" on="1"/>
        <pt x="-40" y="-465" on="1"/>
        <pt x="-11" y="-286" on="1"/>
        <pt x="20" y="-286" on="0"/>
        <pt x="66" y="-248" on="0"/>
        <pt x="74" y="-209" on="1"/>
        <pt x="81" y="-169" on="0"/>
        <pt x="35" y="-140" on="0"/>
        <pt x="-30" y="-136" on="1"/>
        <pt x="28" y="10" on="1"/>
      </contour>
    </TTGlyph>
    <TTGlyph name="cent" xMin="74" yMin="-245" xMax="1060" yMax="1318">
      <contour>
        <pt x="543" y="239" on="1"/>
        <pt x="600" y="239" on="0"/>
        <pt x="665" y="313" on="0"/>
        <pt x="677" y="385" on="1"/>
        <pt x="982" y="385" on="1"/>
        <pt x="984" y="379" on="1"/>
        <pt x="961" y="217" on="0"/>
        <pt x="744" y="7" on="0"/>
        <pt x="586" y="-15" on="1"/>
        <pt x="540" y="-245" on="1"/>
        <pt x="344" y="-245" on="1"/>
        <pt x="391" y="-9" on="1"/>
        <pt x="224" y="29" on="0"/>
        <pt x="74" y="322" on="0"/>
        <pt x="108" y="529" on="1"/>
        <pt x="111" y="552" on="1"/>
        <pt x="148" y="785" on="0"/>
        <pt x="408" y="1077" on="0"/>
        <pt x="612" y="1099" on="1"/>
        <pt x="657" y="1318" on="1"/>
        <pt x="853" y="1318" on="1"/>
        <pt x="806" y="1085" on="1"/>
        <pt x="935" y="1048" on="0"/>
        <pt x="1060" y="831" on="0"/>
        <pt x="1035" y="668" on="1"/>
        <pt x="722" y="668" on="1"/>
        <pt x="734" y="750" on="0"/>
        <pt x="697" y="842" on="0"/>
        <pt x="637" y="842" on="1"/>
        <pt x="558" y="842" on="0"/>
        <pt x="464" y="682" on="0"/>
        <pt x="444" y="552" on="1"/>
        <pt x="441" y="529" on="1"/>
        <pt x="418" y="387" on="0"/>
        <pt x="457" y="239" on="0"/>
      </contour>
    </TTGlyph>
    <TTGlyph name="chi" xMin="-135" yMin="-433" xMax="1171" yMax="1099">
      <contour>
        <pt x="302" y="1099" on="1"/>
        <pt x="445" y="1099" on="0"/>
        <pt x="573" y="933" on="0"/>
        <pt x="588" y="824" on="1"/>
        <pt x="604" y="740" on="1"/>
        <pt x="610" y="739" on="1"/>
        <pt x="833" y="1082" on="1"/>
        <pt x="1171" y="1082" on="1"/>
        <pt x="686" y="343" on="1"/>
        <pt x="766" y="-51" on="1"/>
        <pt x="769" y="-92" on="0"/>
        <pt x="806" y="-154" on="0"/>
        <pt x="839" y="-166" on="1"/>
        <pt x="846" y="-169" on="0"/>
        <pt x="874" y="-172" on="0"/>
        <pt x="888" y="-172" on="1"/>
        <pt x="822" y="-423" on="1"/>
        <pt x="781" y="-430" on="0"/>
        <pt x="689" y="-433" on="0"/>
        <pt x="646" y="-428" on="1"/>
        <pt x="543" y="-414" on="0"/>
        <pt x="459" y="-207" on="0"/>
        <pt x="443" y="-76" on="1"/>
        <pt x="437" y="-46" on="1"/>
        <pt x="431" y="-45" on="1"/>
        <pt x="188" y="-416" on="1"/>
        <pt x="-135" y="-416" on="1"/>
        <pt x="358" y="348" on="1"/>
        <pt x="279" y="748" on="1"/>
        <pt x="272" y="795" on="0"/>
        <pt x="194" y="838" on="0"/>
        <pt x="140" y="838" on="1"/>
        <pt x="127" y="838" on="0"/>
        <pt x="89" y="834" on="0"/>
        <pt x="79" y="832" on="1"/>
        <pt x="119" y="1073" on="1"/>
        <pt x="180" y="1087" on="0"/>
        <pt x="252" y="1099" on="0"/>
      </contour>
    </TTGlyph>
    <TTGlyph name="circumflex" xMin="279" yMin="1252" xMax="1047" yMax="1518">
      <contour>
        <pt x="1047" y="1274" on="1"/>
        <pt x="1042" y="1252" on="1"/>
        <pt x="782" y="1252" on="1"/>
        <pt x="684" y="1378" on="1"/>
        <pt x="535" y="1252" on="1"/>
        <pt x="279" y="1252" on="1"/>
        <pt x="285" y="1278" on="1"/>
        <pt x="619" y="1518" on="1"/>
        <pt x="806" y="1518" on="1"/>
      </contour>
    </TTGlyph>
    <TTGlyph name="circumflexacutecomb" xMin="240" yMin="1252" xMax="1502" yMax="1696">
      <contour>
        <pt x="574" y="1508" on="1"/>
        <pt x="849" y="1508" on="1"/>
        <pt x="1081" y="1257" on="1"/>
        <pt x="1079" y="1252" on="1"/>
        <pt x="790" y="1252" on="1"/>
        <pt x="687" y="1389" on="1"/>
        <pt x="529" y="1252" on="1"/>
        <pt x="242" y="1252" on="1"/>
        <pt x="240" y="1258" on="1"/>
      </contour>
      <contour>
        <pt x="1214" y="1696" on="1"/>
        <pt x="1499" y="1696" on="1"/>
        <pt x="1502" y="1690" on="1"/>
        <pt x="1246" y="1421" on="1"/>
        <pt x="1018" y="1421" on="1"/>
      </contour>
    </TTGlyph>
    <TTGlyph name="circumflexgravecomb" xMin="-11" yMin="1252" xMax="1081" yMax="1696">
      <contour>
        <pt x="1081" y="1258" on="1"/>
        <pt x="1078" y="1252" on="1"/>
        <pt x="789" y="1252" on="1"/>
        <pt x="687" y="1389" on="1"/>
        <pt x="527" y="1252" on="1"/>
        <pt x="241" y="1252" on="1"/>
        <pt x="239" y="1258" on="1"/>
        <pt x="573" y="1508" on="1"/>
        <pt x="847" y="1508" on="1"/>
      </contour>
      <contour>
        <pt x="367" y="1421" on="1"/>
        <pt x="141" y="1421" on="1"/>
        <pt x="-11" y="1696" on="1"/>
        <pt x="281" y="1696" on="1"/>
      </contour>
    </TTGlyph>
    <TTGlyph name="circumflexhookcomb" xMin="239" yMin="1252" xMax="1384" yMax="1721">
      <contour>
        <pt x="1081" y="1258" on="1"/>
        <pt x="1078" y="1252" on="1"/>
        <pt x="786" y="1252" on="1"/>
        <pt x="686" y="1388" on="1"/>
        <pt x="531" y="1252" on="1"/>
        <pt x="241" y="1252" on="1"/>
        <pt x="239" y="1258" on="1"/>
        <pt x="576" y="1508" on="1"/>
        <pt x="845" y="1508" on="1"/>
      </contour>
      <contour>
        <pt x="1009" y="1386" on="1"/>
        <pt x="1010" y="1492" on="1"/>
        <pt x="1066" y="1495" on="0"/>
        <pt x="1120" y="1518" on="0"/>
        <pt x="1126" y="1544" on="1"/>
        <pt x="1132" y="1575" on="0"/>
        <pt x="1082" y="1601" on="0"/>
        <pt x="1036" y="1601" on="1"/>
        <pt x="1067" y="1721" on="1"/>
        <pt x="1233" y="1721" on="0"/>
        <pt x="1384" y="1640" on="0"/>
        <pt x="1367" y="1557" on="1"/>
        <pt x="1356" y="1505" on="0"/>
        <pt x="1279" y="1445" on="0"/>
        <pt x="1232" y="1438" on="1"/>
        <pt x="1221" y="1386" on="1"/>
      </contour>
    </TTGlyph>
    <TTGlyph name="circumflextildecomb" xMin="243" yMin="1263" xMax="1069" yMax="1771">
      <contour>
        <pt x="1069" y="1269" on="1"/>
        <pt x="1067" y="1263" on="1"/>
        <pt x="781" y="1263" on="1"/>
        <pt x="678" y="1379" on="1"/>
        <pt x="529" y="1263" on="1"/>
        <pt x="244" y="1263" on="1"/>
        <pt x="243" y="1269" on="1"/>
        <pt x="561" y="1481" on="1"/>
        <pt x="835" y="1481" on="1"/>
      </contour>
      <contour>
        <pt x="1022" y="1724" on="1"/>
        <pt x="1007" y="1650" on="0"/>
        <pt x="916" y="1549" on="0"/>
        <pt x="856" y="1549" on="1"/>
        <pt x="814" y="1549" on="0"/>
        <pt x="674" y="1619" on="0"/>
        <pt x="638" y="1619" on="1"/>
        <pt x="619" y="1619" on="0"/>
        <pt x="592" y="1575" on="0"/>
        <pt x="585" y="1540" on="1"/>
        <pt x="469" y="1576" on="1"/>
        <pt x="484" y="1650" on="0"/>
        <pt x="571" y="1752" on="0"/>
        <pt x="631" y="1752" on="1"/>
        <pt x="664" y="1752" on="0"/>
        <pt x="815" y="1683" on="0"/>
        <pt x="850" y="1683" on="1"/>
        <pt x="867" y="1683" on="0"/>
        <pt x="896" y="1734" on="0"/>
        <pt x="904" y="1771" on="1"/>
      </contour>
    </TTGlyph>
    <TTGlyph name="colon" xMin="46" yMin="0" xMax="594" yMax="1082">
      <component glyphName="period" x="2" y="0" flags="0x204"/>
      <component glyphName="period" x="162" y="798" flags="0x4"/>
    </TTGlyph>
    <TTGlyph name="comma" xMin="-97" yMin="-326" xMax="373" yMax="254">
      <contour>
        <pt x="320" y="-8" on="1"/>
        <pt x="98" y="-326" on="1"/>
        <pt x="-97" y="-326" on="1"/>
        <pt x="33" y="1" on="1"/>
        <pt x="84" y="254" on="1"/>
        <pt x="373" y="254" on="1"/>
      </contour>
    </TTGlyph>
    <TTGlyph name="commaaccent" xMin="-75" yMin="-121" xMax="266" yMax="285">
      <contour>
        <pt x="232" y="114" on="1"/>
        <pt x="55" y="-121" on="1"/>
        <pt x="-75" y="-121" on="1"/>
        <pt x="32" y="124" on="1"/>
        <pt x="64" y="285" on="1"/>
        <pt x="266" y="285" on="1"/>
      </contour>
    </TTGlyph>
    <TTGlyph name="commaaccentrotate" xMin="233" yMin="1074" xMax="617" yMax="1529">
      <contour>
        <pt x="271" y="1264" on="1"/>
        <pt x="430" y="1529" on="1"/>
        <pt x="617" y="1529" on="1"/>
        <pt x="522" y="1254" on="1"/>
        <pt x="486" y="1074" on="1"/>
        <pt x="233" y="1074" on="1"/>
      </contour>
    </TTGlyph>
    <TTGlyph name="copyright" xMin="77" yMin="-21" xMax="1498" yMax="1476">
      <contour>
        <pt x="1058" y="596" on="1"/>
        <pt x="1060" y="590" on="1"/>
        <pt x="1039" y="434" on="0"/>
        <pt x="853" y="282" on="0"/>
        <pt x="703" y="282" on="1"/>
        <pt x="559" y="282" on="0"/>
        <pt x="411" y="497" on="0"/>
        <pt x="439" y="669" on="1"/>
        <pt x="458" y="788" on="1"/>
        <pt x="486" y="967" on="0"/>
        <pt x="694" y="1175" on="0"/>
        <pt x="846" y="1175" on="1"/>
        <pt x="988" y="1175" on="0"/>
        <pt x="1133" y="1014" on="0"/>
        <pt x="1106" y="866" on="1"/>
        <pt x="1104" y="861" on="1"/>
        <pt x="959" y="861" on="1"/>
        <pt x="974" y="958" on="0"/>
        <pt x="907" y="1040" on="0"/>
        <pt x="824" y="1040" on="1"/>
        <pt x="742" y="1040" on="0"/>
        <pt x="627" y="901" on="0"/>
        <pt x="609" y="789" on="1"/>
        <pt x="590" y="669" on="1"/>
        <pt x="570" y="550" on="0"/>
        <pt x="639" y="417" on="0"/>
        <pt x="725" y="417" on="1"/>
        <pt x="804" y="417" on="0"/>
        <pt x="900" y="501" on="0"/>
        <pt x="915" y="596" on="1"/>
      </contour>
      <contour>
        <pt x="246" y="729" on="1"/>
        <pt x="201" y="455" on="0"/>
        <pt x="459" y="104" on="0"/>
        <pt x="689" y="104" on="1"/>
        <pt x="905" y="104" on="0"/>
        <pt x="1287" y="468" on="0"/>
        <pt x="1330" y="729" on="1"/>
        <pt x="1373" y="1002" on="0"/>
        <pt x="1116" y="1351" on="0"/>
        <pt x="888" y="1351" on="1"/>
        <pt x="670" y="1351" on="0"/>
        <pt x="287" y="989" on="0"/>
      </contour>
      <contour>
        <pt x="128" y="729" on="1"/>
        <pt x="180" y="1056" on="0"/>
        <pt x="629" y="1476" on="0"/>
        <pt x="908" y="1476" on="1"/>
        <pt x="1171" y="1476" on="0"/>
        <pt x="1498" y="1040" on="0"/>
        <pt x="1449" y="729" on="1"/>
        <pt x="1396" y="401" on="0"/>
        <pt x="946" y="-21" on="0"/>
        <pt x="669" y="-21" on="1"/>
        <pt x="404" y="-21" on="0"/>
        <pt x="77" y="416" on="0"/>
      </contour>
    </TTGlyph>
    <TTGlyph name="crossbar" xMin="202" yMin="651" xMax="885" yMax="842">
      <contour>
        <pt x="847" y="651" on="1"/>
        <pt x="202" y="651" on="1"/>
        <pt x="240" y="842" on="1"/>
        <pt x="885" y="842" on="1"/>
      </contour>
    </TTGlyph>
    <TTGlyph name="currency" xMin="5" yMin="-27" xMax="1382" yMax="1265">
      <contour>
        <pt x="924" y="99" on="1"/>
        <pt x="842" y="41" on="0"/>
        <pt x="658" y="-20" on="0"/>
        <pt x="564" y="-20" on="1"/>
        <pt x="477" y="-20" on="0"/>
        <pt x="322" y="46" on="0"/>
        <pt x="263" y="108" on="1"/>
        <pt x="114" y="-26" on="1"/>
        <pt x="5" y="118" on="1"/>
        <pt x="164" y="260" on="1"/>
        <pt x="132" y="336" on="0"/>
        <pt x="116" y="512" on="0"/>
        <pt x="136" y="608" on="1"/>
        <pt x="157" y="715" on="0"/>
        <pt x="244" y="902" on="0"/>
        <pt x="306" y="978" on="1"/>
        <pt x="205" y="1120" on="1"/>
        <pt x="372" y="1264" on="1"/>
        <pt x="470" y="1127" on="1"/>
        <pt x="549" y="1179" on="0"/>
        <pt x="724" y="1234" on="0"/>
        <pt x="815" y="1234" on="1"/>
        <pt x="897" y="1234" on="0"/>
        <pt x="1047" y="1172" on="0"/>
        <pt x="1107" y="1115" on="1"/>
        <pt x="1272" y="1265" on="1"/>
        <pt x="1382" y="1120" on="1"/>
        <pt x="1210" y="965" on="1"/>
        <pt x="1243" y="887" on="0"/>
        <pt x="1261" y="706" on="0"/>
        <pt x="1242" y="608" on="1"/>
        <pt x="1221" y="506" on="0"/>
        <pt x="1141" y="327" on="0"/>
        <pt x="1085" y="254" on="1"/>
        <pt x="1182" y="118" on="1"/>
        <pt x="1014" y="-27" on="1"/>
      </contour>
      <contour>
        <pt x="318" y="608" on="1"/>
        <pt x="278" y="412" on="0"/>
        <pt x="443" y="173" on="0"/>
        <pt x="603" y="173" on="1"/>
        <pt x="747" y="173" on="0"/>
        <pt x="1024" y="427" on="0"/>
        <pt x="1061" y="608" on="1"/>
        <pt x="1099" y="803" on="0"/>
        <pt x="933" y="1042" on="0"/>
        <pt x="776" y="1042" on="1"/>
        <pt x="630" y="1042" on="0"/>
        <pt x="353" y="788" on="0"/>
      </contour>
    </TTGlyph>
    <TTGlyph name="cyrillicbreve" xMin="231" yMin="1149" xMax="946" yMax="1456">
      <component glyphName="breve" x="0" y="0" flags="0x204"/>
    </TTGlyph>
    <TTGlyph name="cyrillichook" xMin="-268" yMin="-437" xMax="416" yMax="297">
      <contour>
        <pt x="416" y="297" on="1"/>
        <pt x="354" y="-15" on="1"/>
        <pt x="310" y="-231" on="0"/>
        <pt x="68" y="-437" on="0"/>
        <pt x="-120" y="-437" on="1"/>
        <pt x="-158" y="-437" on="0"/>
        <pt x="-231" y="-429" on="0"/>
        <pt x="-268" y="-420" on="1"/>
        <pt x="-204" y="-165" on="1"/>
        <pt x="-177" y="-171" on="0"/>
        <pt x="-142" y="-177" on="0"/>
        <pt x="-113" y="-177" on="1"/>
        <pt x="-67" y="-177" on="0"/>
        <pt x="3" y="-93" on="0"/>
        <pt x="19" y="-15" on="1"/>
        <pt x="81" y="297" on="1"/>
      </contour>
    </TTGlyph>
    <TTGlyph name="cyrillichookleft" xMin="-123" yMin="-417" xMax="352" yMax="60">
      <contour>
        <pt x="234" y="60" on="1"/>
        <pt x="304" y="7" on="0"/>
        <pt x="352" y="-128" on="0"/>
        <pt x="337" y="-203" on="1"/>
        <pt x="315" y="-311" on="0"/>
        <pt x="155" y="-417" on="0"/>
        <pt x="44" y="-417" on="1"/>
        <pt x="-9" y="-417" on="0"/>
        <pt x="-95" y="-391" on="0"/>
        <pt x="-123" y="-373" on="1"/>
        <pt x="-54" y="-205" on="1"/>
        <pt x="-37" y="-213" on="0"/>
        <pt x="-2" y="-223" on="0"/>
        <pt x="23" y="-223" on="1"/>
        <pt x="66" y="-223" on="0"/>
        <pt x="106" y="-180" on="0"/>
        <pt x="108" y="-164" on="1"/>
        <pt x="117" y="-114" on="0"/>
        <pt x="98" y="-58" on="0"/>
        <pt x="66" y="0" on="1"/>
      </contour>
    </TTGlyph>
    <TTGlyph name="cyrillictic" xMin="-76" yMin="-356" xMax="373" yMax="223">
      <contour>
        <pt x="257" y="-356" on="1"/>
        <pt x="-76" y="-356" on="1"/>
        <pt x="40" y="223" on="1"/>
        <pt x="373" y="223" on="1"/>
      </contour>
    </TTGlyph>
    <TTGlyph name="d" xMin="22" yMin="-21" xMax="1220" yMax="1560">
      <contour>
        <pt x="74" y="559" on="1"/>
        <pt x="127" y="829" on="0"/>
        <pt x="366" y="1102" on="0"/>
        <pt x="557" y="1102" on="1"/>
        <pt x="622" y="1102" on="0"/>
        <pt x="732" y="1042" on="0"/>
        <pt x="772" y="988" on="1"/>
        <pt x="886" y="1560" on="1"/>
        <pt x="1220" y="1560" on="1"/>
        <pt x="908" y="0" on="1"/>
        <pt x="619" y="0" on="1"/>
        <pt x="621" y="109" on="1"/>
        <pt x="564" y="46" on="0"/>
        <pt x="436" y="-21" on="0"/>
        <pt x="369" y="-21" on="1"/>
        <pt x="195" y="-21" on="0"/>
        <pt x="22" y="301" on="0"/>
        <pt x="70" y="538" on="1"/>
      </contour>
      <contour>
        <pt x="405" y="538" on="1"/>
        <pt x="375" y="392" on="0"/>
        <pt x="405" y="239" on="0"/>
        <pt x="485" y="239" on="1"/>
        <pt x="526" y="239" on="0"/>
        <pt x="608" y="291" on="0"/>
        <pt x="642" y="337" on="1"/>
        <pt x="731" y="785" on="1"/>
        <pt x="715" y="814" on="0"/>
        <pt x="656" y="842" on="0"/>
        <pt x="614" y="842" on="1"/>
        <pt x="541" y="842" on="0"/>
        <pt x="434" y="689" on="0"/>
        <pt x="409" y="559" on="1"/>
      </contour>
    </TTGlyph>
    <TTGlyph name="dagger" xMin="110" yMin="0" xMax="1073" yMax="1456">
      <contour>
        <pt x="1030" y="812" on="1"/>
        <pt x="734" y="812" on="1"/>
        <pt x="604" y="0" on="1"/>
        <pt x="271" y="0" on="1"/>
        <pt x="401" y="812" on="1"/>
        <pt x="110" y="812" on="1"/>
        <pt x="153" y="1082" on="1"/>
        <pt x="444" y="1082" on="1"/>
        <pt x="504" y="1456" on="1"/>
        <pt x="837" y="1456" on="1"/>
        <pt x="777" y="1082" on="1"/>
        <pt x="1073" y="1082" on="1"/>
      </contour>
    </TTGlyph>
    <TTGlyph name="daggerdbl" xMin="32" yMin="-416" xMax="1125" yMax="1456">
      <contour>
        <pt x="952" y="0" on="1"/>
        <pt x="657" y="0" on="1"/>
        <pt x="591" y="-416" on="1"/>
        <pt x="257" y="-416" on="1"/>
        <pt x="323" y="0" on="1"/>
        <pt x="32" y="0" on="1"/>
        <pt x="74" y="260" on="1"/>
        <pt x="365" y="260" on="1"/>
        <pt x="455" y="822" on="1"/>
        <pt x="164" y="822" on="1"/>
        <pt x="205" y="1082" on="1"/>
        <pt x="497" y="1082" on="1"/>
        <pt x="557" y="1456" on="1"/>
        <pt x="891" y="1456" on="1"/>
        <pt x="831" y="1082" on="1"/>
        <pt x="1125" y="1082" on="1"/>
        <pt x="1084" y="822" on="1"/>
        <pt x="789" y="822" on="1"/>
        <pt x="699" y="260" on="1"/>
        <pt x="994" y="260" on="1"/>
      </contour>
    </TTGlyph>
    <TTGlyph name="dasiaoxia" xMin="256" yMin="1135" xMax="886" yMax="1477">
      <contour>
        <pt x="527" y="1164" on="1"/>
        <pt x="684" y="1477" on="1"/>
        <pt x="886" y="1477" on="1"/>
        <pt x="882" y="1456" on="1"/>
        <pt x="601" y="1137" on="1"/>
        <pt x="521" y="1137" on="1"/>
      </contour>
      <contour>
        <pt x="289" y="1298" on="1"/>
        <pt x="458" y="1476" on="1"/>
        <pt x="560" y="1476" on="1"/>
        <pt x="444" y="1272" on="1"/>
        <pt x="417" y="1135" on="1"/>
        <pt x="256" y="1135" on="1"/>
      </contour>
    </TTGlyph>
    <TTGlyph name="dcaron" xMin="22" yMin="-21" xMax="1545" yMax="1560">
      <component glyphName="d" x="0" y="0" flags="0x4"/>
      <component glyphName="commaaccent" x="1279" y="1274" flags="0x4"/>
    </TTGlyph>
    <TTGlyph name="dcroat" xMin="22" yMin="-21" xMax="1294" yMax="1560">
      <contour>
        <pt x="1256" y="1215" on="1"/>
        <pt x="1151" y="1215" on="1"/>
        <pt x="908" y="0" on="1"/>
        <pt x="619" y="0" on="1"/>
        <pt x="621" y="109" on="1"/>
        <pt x="564" y="46" on="0"/>
        <pt x="436" y="-21" on="0"/>
        <pt x="369" y="-21" on="1"/>
        <pt x="195" y="-21" on="0"/>
        <pt x="22" y="301" on="0"/>
        <pt x="70" y="538" on="1"/>
        <pt x="74" y="559" on="1"/>
        <pt x="127" y="829" on="0"/>
        <pt x="366" y="1102" on="0"/>
        <pt x="557" y="1102" on="1"/>
        <pt x="622" y="1102" on="0"/>
        <pt x="732" y="1042" on="0"/>
        <pt x="772" y="988" on="1"/>
        <pt x="817" y="1215" on="1"/>
        <pt x="611" y="1215" on="1"/>
        <pt x="649" y="1406" on="1"/>
        <pt x="855" y="1406" on="1"/>
        <pt x="886" y="1560" on="1"/>
        <pt x="1220" y="1560" on="1"/>
        <pt x="1189" y="1406" on="1"/>
        <pt x="1294" y="1406" on="1"/>
      </contour>
      <contour>
        <pt x="405" y="538" on="1"/>
        <pt x="375" y="392" on="0"/>
        <pt x="405" y="239" on="0"/>
        <pt x="485" y="239" on="1"/>
        <pt x="526" y="239" on="0"/>
        <pt x="608" y="291" on="0"/>
        <pt x="642" y="337" on="1"/>
        <pt x="731" y="785" on="1"/>
        <pt x="715" y="814" on="0"/>
        <pt x="656" y="842" on="0"/>
        <pt x="614" y="842" on="1"/>
        <pt x="541" y="842" on="0"/>
        <pt x="434" y="689" on="0"/>
        <pt x="409" y="559" on="1"/>
      </contour>
    </TTGlyph>
    <TTGlyph name="degree" xMin="250" yMin="920" xMax="818" yMax="1478">
      <contour>
        <pt x="273" y="1197" on="1"/>
        <pt x="298" y="1319" on="0"/>
        <pt x="484" y="1478" on="0"/>
        <pt x="595" y="1478" on="1"/>
        <pt x="694" y="1478" on="0"/>
        <pt x="818" y="1310" on="0"/>
        <pt x="796" y="1197" on="1"/>
        <pt x="771" y="1074" on="0"/>
        <pt x="591" y="920" on="0"/>
        <pt x="483" y="920" on="1"/>
        <pt x="380" y="920" on="0"/>
        <pt x="250" y="1083" on="0"/>
      </contour>
      <contour>
        <pt x="424" y="1197" on="1"/>
        <pt x="413" y="1141" on="0"/>
        <pt x="466" y="1073" on="0"/>
        <pt x="514" y="1073" on="1"/>
        <pt x="556" y="1073" on="0"/>
        <pt x="635" y="1144" on="0"/>
        <pt x="646" y="1197" on="1"/>
        <pt x="657" y="1254" on="0"/>
        <pt x="610" y="1325" on="0"/>
        <pt x="564" y="1325" on="1"/>
        <pt x="520" y="1325" on="0"/>
        <pt x="434" y="1250" on="0"/>
      </contour>
    </TTGlyph>
    <TTGlyph name="delta" xMin="18" yMin="-21" xMax="1143" yMax="1456">
      <contour>
        <pt x="1143" y="1456" on="1"/>
        <pt x="1091" y="1196" on="1"/>
        <pt x="765" y="1196" on="1"/>
        <pt x="896" y="1091" on="0"/>
        <pt x="1093" y="738" on="0"/>
        <pt x="1056" y="551" on="1"/>
        <pt x="1052" y="530" on="1"/>
        <pt x="999" y="269" on="0"/>
        <pt x="688" y="-21" on="0"/>
        <pt x="453" y="-21" on="1"/>
        <pt x="234" y="-21" on="0"/>
        <pt x="18" y="267" on="0"/>
        <pt x="63" y="490" on="1"/>
        <pt x="67" y="511" on="1"/>
        <pt x="108" y="718" on="0"/>
        <pt x="354" y="973" on="0"/>
        <pt x="514" y="1005" on="1"/>
        <pt x="475" y="1069" on="0"/>
        <pt x="378" y="1196" on="0"/>
        <pt x="326" y="1249" on="1"/>
        <pt x="367" y="1456" on="1"/>
      </contour>
      <contour>
        <pt x="405" y="530" on="1"/>
        <pt x="376" y="385" on="0"/>
        <pt x="415" y="239" on="0"/>
        <pt x="505" y="239" on="1"/>
        <pt x="585" y="239" on="0"/>
        <pt x="691" y="397" on="0"/>
        <pt x="718" y="530" on="1"/>
        <pt x="722" y="551" on="1"/>
        <pt x="743" y="657" on="0"/>
        <pt x="702" y="800" on="0"/>
        <pt x="654" y="836" on="1"/>
        <pt x="647" y="839" on="0"/>
        <pt x="632" y="842" on="0"/>
        <pt x="623" y="842" on="1"/>
        <pt x="543" y="842" on="0"/>
        <pt x="435" y="680" on="0"/>
        <pt x="409" y="551" on="1"/>
      </contour>
    </TTGlyph>
    <TTGlyph name="dieresis" xMin="272" yMin="1252" xMax="1068" yMax="1456">
      <contour>
        <pt x="1035" y="1252" on="1"/>
        <pt x="754" y="1252" on="1"/>
        <pt x="787" y="1456" on="1"/>
        <pt x="1068" y="1456" on="1"/>
      </contour>
      <contour>
        <pt x="553" y="1252" on="1"/>
        <pt x="272" y="1252" on="1"/>
        <pt x="305" y="1456" on="1"/>
        <pt x="586" y="1456" on="1"/>
      </contour>
    </TTGlyph>
    <TTGlyph name="dieresistonos" xMin="307" yMin="1252" xMax="1154" yMax="1770">
      <contour>
        <pt x="1113" y="1252" on="1"/>
        <pt x="842" y="1252" on="1"/>
        <pt x="883" y="1456" on="1"/>
        <pt x="1154" y="1456" on="1"/>
      </contour>
      <contour>
        <pt x="579" y="1252" on="1"/>
        <pt x="307" y="1252" on="1"/>
        <pt x="348" y="1456" on="1"/>
        <pt x="620" y="1456" on="1"/>
      </contour>
      <contour>
        <pt x="772" y="1770" on="1"/>
        <pt x="1069" y="1770" on="1"/>
        <pt x="1071" y="1765" on="1"/>
        <pt x="826" y="1484" on="1"/>
        <pt x="680" y="1484" on="1"/>
      </contour>
    </TTGlyph>
    <TTGlyph name="divide" xMin="87" yMin="158" xMax="1109" yMax="1206">
      <contour>
        <pt x="1061" y="563" on="1"/>
        <pt x="87" y="563" on="1"/>
        <pt x="135" y="807" on="1"/>
        <pt x="1109" y="807" on="1"/>
      </contour>
      <contour>
        <pt x="820" y="961" on="1"/>
        <pt x="488" y="961" on="1"/>
        <pt x="537" y="1206" on="1"/>
        <pt x="869" y="1206" on="1"/>
      </contour>
      <contour>
        <pt x="660" y="158" on="1"/>
        <pt x="328" y="158" on="1"/>
        <pt x="377" y="404" on="1"/>
        <pt x="709" y="404" on="1"/>
      </contour>
    </TTGlyph>
    <TTGlyph name="dollar" xMin="48" yMin="-218" xMax="1160" yMax="1685">
      <contour>
        <pt x="691" y="386" on="1"/>
        <pt x="703" y="467" on="0"/>
        <pt x="653" y="551" on="0"/>
        <pt x="577" y="594" on="1"/>
        <pt x="371" y="689" on="0"/>
        <pt x="199" y="881" on="0"/>
        <pt x="230" y="1068" on="1"/>
        <pt x="257" y="1243" on="0"/>
        <pt x="504" y="1457" on="0"/>
        <pt x="686" y="1474" on="1"/>
        <pt x="720" y="1685" on="1"/>
        <pt x="875" y="1685" on="1"/>
        <pt x="840" y="1469" on="1"/>
        <pt x="998" y="1440" on="0"/>
        <pt x="1160" y="1195" on="0"/>
        <pt x="1131" y="1006" on="1"/>
        <pt x="797" y="1006" on="1"/>
        <pt x="815" y="1119" on="0"/>
        <pt x="761" y="1222" on="0"/>
        <pt x="703" y="1222" on="1"/>
        <pt x="647" y="1222" on="0"/>
        <pt x="574" y="1133" on="0"/>
        <pt x="564" y="1066" on="1"/>
        <pt x="552" y="995" on="0"/>
        <pt x="601" y="912" on="0"/>
        <pt x="679" y="867" on="1"/>
        <pt x="880" y="768" on="0"/>
        <pt x="1053" y="571" on="0"/>
        <pt x="1024" y="388" on="1"/>
        <pt x="994" y="208" on="0"/>
        <pt x="759" y="1" on="0"/>
        <pt x="582" y="-17" on="1"/>
        <pt x="550" y="-218" on="1"/>
        <pt x="394" y="-218" on="1"/>
        <pt x="426" y="-16" on="1"/>
        <pt x="252" y="6" on="0"/>
        <pt x="48" y="242" on="0"/>
        <pt x="85" y="467" on="1"/>
        <pt x="418" y="467" on="1"/>
        <pt x="397" y="337" on="0"/>
        <pt x="469" y="234" on="0"/>
        <pt x="545" y="234" on="1"/>
        <pt x="603" y="234" on="0"/>
        <pt x="679" y="319" on="0"/>
      </contour>
    </TTGlyph>
    <TTGlyph name="dotaccent" xMin="290" yMin="1215" xMax="683" yMax="1475">
      <contour>
        <pt x="631" y="1215" on="1"/>
        <pt x="290" y="1215" on="1"/>
        <pt x="342" y="1475" on="1"/>
        <pt x="683" y="1475" on="1"/>
      </contour>
    </TTGlyph>
    <TTGlyph name="dotbelow" xMin="-896" yMin="-362" xMax="-470" yMax="-102">
      <contour>
        <pt x="-522" y="-362" on="1"/>
        <pt x="-896" y="-362" on="1"/>
        <pt x="-844" y="-102" on="1"/>
        <pt x="-470" y="-102" on="1"/>
      </contour>
    </TTGlyph>
    <TTGlyph name="dotlessi" xMin="30" yMin="0" xMax="582" yMax="1082">
      <contour>
        <pt x="366" y="0" on="1"/>
        <pt x="30" y="0" on="1"/>
        <pt x="246" y="1082" on="1"/>
        <pt x="582" y="1082" on="1"/>
      </contour>
    </TTGlyph>
    <TTGlyph name="e" xMin="40" yMin="-21" xMax="1037" yMax="1103">
      <contour>
        <pt x="484" y="-21" on="1"/>
        <pt x="267" y="-21" on="0"/>
        <pt x="40" y="281" on="0"/>
        <pt x="76" y="505" on="1"/>
        <pt x="82" y="543" on="1"/>
        <pt x="123" y="800" on="0"/>
        <pt x="410" y="1103" on="0"/>
        <pt x="639" y="1102" on="1"/>
        <pt x="838" y="1102" on="0"/>
        <pt x="1037" y="836" on="0"/>
        <pt x="1002" y="612" on="1"/>
        <pt x="974" y="435" on="1"/>
        <pt x="409" y="435" on="1"/>
        <pt x="407" y="430" on="1"/>
        <pt x="402" y="344" on="0"/>
        <pt x="484" y="239" on="0"/>
        <pt x="571" y="239" on="1"/>
        <pt x="654" y="239" on="0"/>
        <pt x="770" y="270" on="0"/>
        <pt x="857" y="306" on="1"/>
        <pt x="902" y="100" on="1"/>
        <pt x="828" y="48" on="0"/>
        <pt x="605" y="-21" on="0"/>
      </contour>
      <contour>
        <pt x="598" y="842" on="1"/>
        <pt x="537" y="842" on="0"/>
        <pt x="460" y="738" on="0"/>
        <pt x="440" y="651" on="1"/>
        <pt x="443" y="646" on="1"/>
        <pt x="681" y="646" on="1"/>
        <pt x="686" y="672" on="1"/>
        <pt x="699" y="758" on="0"/>
        <pt x="659" y="842" on="0"/>
      </contour>
    </TTGlyph>
    <TTGlyph name="eacute" xMin="40" yMin="-21" xMax="1037" yMax="1506">
      <component glyphName="e" x="0" y="0" flags="0x204"/>
      <component glyphName="acute" x="244" y="28" flags="0x4"/>
    </TTGlyph>
    <TTGlyph name="ebreve" xMin="40" yMin="-21" xMax="1037" yMax="1587">
      <component glyphName="e" x="0" y="0" flags="0x204"/>
      <component glyphName="breve" x="88" y="131" flags="0x4"/>
    </TTGlyph>
    <TTGlyph name="ecaron" xMin="40" yMin="-21" xMax="1088" yMax="1556">
      <component glyphName="e" x="0" y="0" flags="0x204"/>
      <component glyphName="caron" x="4" y="28" flags="0x4"/>
    </TTGlyph>
    <TTGlyph name="ecircumflex" xMin="40" yMin="-21" xMax="1037" yMax="1532">
      <component glyphName="e" x="0" y="0" flags="0x204"/>
      <component glyphName="circumflex" x="-19" y="14" flags="0x4"/>
    </TTGlyph>
    <TTGlyph name="edieresis" xMin="40" yMin="-21" xMax="1056" yMax="1484">
      <component glyphName="e" x="0" y="0" flags="0x204"/>
      <component glyphName="dieresis" x="-12" y="28" flags="0x4"/>
    </TTGlyph>
    <TTGlyph name="edotaccent" xMin="40" yMin="-21" xMax="1037" yMax="1541">
      <component glyphName="e" x="0" y="0" flags="0x204"/>
      <component glyphName="dotaccent" x="174" y="66" flags="0x4"/>
    </TTGlyph>
    <TTGlyph name="egrave" xMin="40" yMin="-21" xMax="1037" yMax="1504">
      <component glyphName="e" x="0" y="0" flags="0x204"/>
      <component glyphName="grave" x="79" y="26" flags="0x4"/>
    </TTGlyph>
    <TTGlyph name="eight" xMin="39" yMin="-21" xMax="1172" yMax="1477">
      <contour>
        <pt x="1134" y="1067" on="1"/>
        <pt x="1111" y="951" on="0"/>
        <pt x="976" y="786" on="0"/>
        <pt x="875" y="740" on="1"/>
        <pt x="965" y="687" on="0"/>
        <pt x="1049" y="512" on="0"/>
        <pt x="1028" y="401" on="1"/>
        <pt x="985" y="184" on="0"/>
        <pt x="689" y="-21" on="0"/>
        <pt x="471" y="-21" on="1"/>
        <pt x="272" y="-21" on="0"/>
        <pt x="39" y="201" on="0"/>
        <pt x="79" y="401" on="1"/>
        <pt x="103" y="524" on="0"/>
        <pt x="257" y="701" on="0"/>
        <pt x="371" y="749" on="1"/>
        <pt x="290" y="799" on="0"/>
        <pt x="217" y="964" on="0"/>
        <pt x="238" y="1067" on="1"/>
        <pt x="279" y="1275" on="0"/>
        <pt x="561" y="1477" on="0"/>
        <pt x="768" y="1477" on="1"/>
        <pt x="958" y="1477" on="0"/>
        <pt x="1172" y="1259" on="0"/>
      </contour>
      <contour>
        <pt x="701" y="428" on="1"/>
        <pt x="719" y="522" on="0"/>
        <pt x="662" y="615" on="0"/>
        <pt x="596" y="615" on="1"/>
        <pt x="535" y="615" on="0"/>
        <pt x="435" y="514" on="0"/>
        <pt x="419" y="428" on="1"/>
        <pt x="399" y="335" on="0"/>
        <pt x="456" y="239" on="0"/>
        <pt x="523" y="239" on="1"/>
        <pt x="583" y="239" on="0"/>
        <pt x="683" y="341" on="0"/>
      </contour>
      <contour>
        <pt x="798" y="1049" on="1"/>
        <pt x="814" y="1133" on="0"/>
        <pt x="774" y="1217" on="0"/>
        <pt x="716" y="1217" on="1"/>
        <pt x="663" y="1217" on="0"/>
        <pt x="585" y="1127" on="0"/>
        <pt x="570" y="1049" on="1"/>
        <pt x="552" y="963" on="0"/>
        <pt x="592" y="875" on="0"/>
        <pt x="650" y="875" on="1"/>
        <pt x="703" y="875" on="0"/>
        <pt x="781" y="969" on="0"/>
      </contour>
    </TTGlyph>
    <TTGlyph name="eight.lnum" xMin="25" yMin="-21" xMax="1198" yMax="1477">
      <contour>
        <pt x="1160" y="1067" on="1"/>
        <pt x="1137" y="951" on="0"/>
        <pt x="997" y="785" on="0"/>
        <pt x="891" y="739" on="1"/>
        <pt x="985" y="687" on="0"/>
        <pt x="1075" y="512" on="0"/>
        <pt x="1054" y="401" on="1"/>
        <pt x="1011" y="184" on="0"/>
        <pt x="704" y="-21" on="0"/>
        <pt x="477" y="-21" on="1"/>
        <pt x="269" y="-21" on="0"/>
        <pt x="25" y="201" on="0"/>
        <pt x="65" y="401" on="1"/>
        <pt x="89" y="525" on="0"/>
        <pt x="248" y="702" on="0"/>
        <pt x="367" y="750" on="1"/>
        <pt x="282" y="800" on="0"/>
        <pt x="204" y="964" on="0"/>
        <pt x="225" y="1067" on="1"/>
        <pt x="266" y="1275" on="0"/>
        <pt x="558" y="1477" on="0"/>
        <pt x="774" y="1477" on="1"/>
        <pt x="973" y="1477" on="0"/>
        <pt x="1198" y="1259" on="0"/>
      </contour>
      <contour>
        <pt x="726" y="428" on="1"/>
        <pt x="744" y="522" on="0"/>
        <pt x="677" y="615" on="0"/>
        <pt x="602" y="615" on="1"/>
        <pt x="533" y="615" on="0"/>
        <pt x="421" y="514" on="0"/>
        <pt x="405" y="428" on="1"/>
        <pt x="385" y="335" on="0"/>
        <pt x="453" y="239" on="0"/>
        <pt x="529" y="239" on="1"/>
        <pt x="597" y="239" on="0"/>
        <pt x="708" y="342" on="0"/>
      </contour>
      <contour>
        <pt x="823" y="1049" on="1"/>
        <pt x="839" y="1133" on="0"/>
        <pt x="790" y="1217" on="0"/>
        <pt x="722" y="1217" on="1"/>
        <pt x="660" y="1217" on="0"/>
        <pt x="571" y="1127" on="0"/>
        <pt x="556" y="1049" on="1"/>
        <pt x="538" y="963" on="0"/>
        <pt x="588" y="875" on="0"/>
        <pt x="656" y="875" on="1"/>
        <pt x="718" y="875" on="0"/>
        <pt x="806" y="969" on="0"/>
      </contour>
    </TTGlyph>
    <TTGlyph name="eight.smcp" xMin="15" yMin="-17" xMax="1089" yMax="1181">
      <contour>
        <pt x="1059" y="860" on="1"/>
        <pt x="1040" y="769" on="0"/>
        <pt x="914" y="637" on="0"/>
        <pt x="818" y="600" on="1"/>
        <pt x="910" y="558" on="0"/>
        <pt x="1002" y="417" on="0"/>
        <pt x="985" y="328" on="1"/>
        <pt x="949" y="155" on="0"/>
        <pt x="660" y="-17" on="0"/>
        <pt x="455" y="-17" on="1"/>
        <pt x="264" y="-17" on="0"/>
        <pt x="15" y="169" on="0"/>
        <pt x="48" y="328" on="1"/>
        <pt x="67" y="427" on="0"/>
        <pt x="218" y="569" on="0"/>
        <pt x="333" y="608" on="1"/>
        <pt x="251" y="648" on="0"/>
        <pt x="169" y="779" on="0"/>
        <pt x="186" y="860" on="1"/>
        <pt x="218" y="1023" on="0"/>
        <pt x="497" y="1181" on="0"/>
        <pt x="694" y="1181" on="1"/>
        <pt x="870" y="1181" on="0"/>
        <pt x="1089" y="1011" on="0"/>
      </contour>
      <contour>
        <pt x="656" y="356" on="1"/>
        <pt x="667" y="412" on="0"/>
        <pt x="608" y="474" on="0"/>
        <pt x="553" y="474" on="1"/>
        <pt x="497" y="474" on="0"/>
        <pt x="397" y="407" on="0"/>
        <pt x="387" y="356" on="1"/>
        <pt x="376" y="301" on="0"/>
        <pt x="445" y="241" on="0"/>
        <pt x="506" y="241" on="1"/>
        <pt x="556" y="241" on="0"/>
        <pt x="645" y="305" on="0"/>
      </contour>
      <contour>
        <pt x="720" y="832" on="1"/>
        <pt x="729" y="878" on="0"/>
        <pt x="685" y="924" on="0"/>
        <pt x="643" y="924" on="1"/>
        <pt x="600" y="924" on="0"/>
        <pt x="522" y="873" on="0"/>
        <pt x="514" y="832" on="1"/>
        <pt x="505" y="786" on="0"/>
        <pt x="559" y="733" on="0"/>
        <pt x="605" y="733" on="1"/>
        <pt x="643" y="733" on="0"/>
        <pt x="712" y="789" on="0"/>
      </contour>
    </TTGlyph>
    <TTGlyph name="eight.sup" xMin="19" yMin="-11" xMax="779" yMax="812">
      <contour>
        <pt x="758" y="592" on="1"/>
        <pt x="745" y="529" on="0"/>
        <pt x="656" y="438" on="0"/>
        <pt x="589" y="413" on="1"/>
        <pt x="655" y="384" on="0"/>
        <pt x="722" y="286" on="0"/>
        <pt x="710" y="226" on="1"/>
        <pt x="686" y="106" on="0"/>
        <pt x="481" y="-11" on="0"/>
        <pt x="335" y="-11" on="1"/>
        <pt x="197" y="-11" on="0"/>
        <pt x="19" y="116" on="0"/>
        <pt x="42" y="226" on="1"/>
        <pt x="55" y="294" on="0"/>
        <pt x="164" y="392" on="0"/>
        <pt x="246" y="418" on="1"/>
        <pt x="185" y="446" on="0"/>
        <pt x="125" y="535" on="0"/>
        <pt x="137" y="592" on="1"/>
        <pt x="159" y="703" on="0"/>
        <pt x="358" y="812" on="0"/>
        <pt x="498" y="812" on="1"/>
        <pt x="623" y="812" on="0"/>
        <pt x="779" y="695" on="0"/>
      </contour>
      <contour>
        <pt x="487" y="241" on="1"/>
        <pt x="495" y="284" on="0"/>
        <pt x="446" y="332" on="0"/>
        <pt x="402" y="332" on="1"/>
        <pt x="357" y="332" on="0"/>
        <pt x="276" y="280" on="0"/>
        <pt x="269" y="241" on="1"/>
        <pt x="261" y="199" on="0"/>
        <pt x="317" y="156" on="0"/>
        <pt x="368" y="156" on="1"/>
        <pt x="408" y="156" on="0"/>
        <pt x="479" y="203" on="0"/>
      </contour>
      <contour>
        <pt x="532" y="575" on="1"/>
        <pt x="539" y="610" on="0"/>
        <pt x="499" y="646" on="0"/>
        <pt x="465" y="646" on="1"/>
        <pt x="429" y="646" on="0"/>
        <pt x="367" y="608" on="0"/>
        <pt x="361" y="575" on="1"/>
        <pt x="353" y="538" on="0"/>
        <pt x="398" y="498" on="0"/>
        <pt x="437" y="498" on="1"/>
        <pt x="468" y="498" on="0"/>
        <pt x="525" y="541" on="0"/>
      </contour>
    </TTGlyph>
    <TTGlyph name="ellipsis" xMin="52" yMin="0" xMax="1365" yMax="284">
      <component glyphName="period" x="8" y="0" flags="0x4"/>
      <component glyphName="period" x="470" y="0" flags="0x4"/>
      <component glyphName="period" x="933" y="0" flags="0x4"/>
    </TTGlyph>
    <TTGlyph name="emacron" xMin="40" yMin="-21" xMax="1037" yMax="1455">
      <component glyphName="e" x="0" y="0" flags="0x204"/>
      <component glyphName="macron" x="1" y="-3" flags="0x4"/>
    </TTGlyph>
    <TTGlyph name="emdash" xMin="206" yMin="578" xMax="1529" yMax="842">
      <component glyphName="minus" x="-50" y="0" scalex="1.59997558594" scaley="1.0" flags="0x4"/>
    </TTGlyph>
    <TTGlyph name="endash" xMin="197" yMin="578" xMax="1272" yMax="842">
      <component glyphName="minus" x="-11" y="0" scalex="1.29998779297" scaley="1.0" flags="0x4"/>
    </TTGlyph>
    <TTGlyph name="eng" xMin="-2" yMin="-437" xMax="1093" yMax="1102">
      <contour>
        <pt x="511" y="941" on="1"/>
        <pt x="576" y="1019" on="0"/>
        <pt x="736" y="1102" on="0"/>
        <pt x="824" y="1102" on="1"/>
        <pt x="961" y="1102" on="0"/>
        <pt x="1093" y="882" on="0"/>
        <pt x="1047" y="651" on="1"/>
        <pt x="914" y="-15" on="1"/>
        <pt x="870" y="-231" on="0"/>
        <pt x="628" y="-437" on="0"/>
        <pt x="441" y="-437" on="1"/>
        <pt x="402" y="-437" on="0"/>
        <pt x="329" y="-429" on="0"/>
        <pt x="293" y="-420" on="1"/>
        <pt x="358" y="-165" on="1"/>
        <pt x="384" y="-172" on="0"/>
        <pt x="416" y="-177" on="0"/>
        <pt x="447" y="-177" on="1"/>
        <pt x="492" y="-177" on="0"/>
        <pt x="564" y="-93" on="0"/>
        <pt x="580" y="-15" on="1"/>
        <pt x="713" y="652" on="1"/>
        <pt x="735" y="762" on="0"/>
        <pt x="698" y="842" on="0"/>
        <pt x="643" y="842" on="1"/>
        <pt x="600" y="842" on="0"/>
        <pt x="519" y="803" on="0"/>
        <pt x="484" y="768" on="1"/>
        <pt x="331" y="0" on="1"/>
        <pt x="-2" y="0" on="1"/>
        <pt x="214" y="1082" on="1"/>
        <pt x="528" y="1082" on="1"/>
      </contour>
    </TTGlyph>
    <TTGlyph name="eogonek" xMin="40" yMin="-384" xMax="1037" yMax="1103">
      <component glyphName="e" x="0" y="0" flags="0x204"/>
      <component glyphName="ogonek" x="447" y="33" flags="0x4"/>
    </TTGlyph>
    <TTGlyph name="epsilon" xMin="36" yMin="-20" xMax="1123" yMax="1101">
      <contour>
        <pt x="66" y="306" on="1"/>
        <pt x="85" y="403" on="0"/>
        <pt x="210" y="530" on="0"/>
        <pt x="311" y="560" on="1"/>
        <pt x="237" y="597" on="0"/>
        <pt x="166" y="717" on="0"/>
        <pt x="180" y="786" on="1"/>
        <pt x="212" y="945" on="0"/>
        <pt x="502" y="1101" on="0"/>
        <pt x="723" y="1101" on="1"/>
        <pt x="897" y="1101" on="0"/>
        <pt x="1123" y="919" on="0"/>
        <pt x="1089" y="774" on="1"/>
        <pt x="1087" y="768" on="1"/>
        <pt x="762" y="768" on="1"/>
        <pt x="771" y="817" on="0"/>
        <pt x="712" y="861" on="0"/>
        <pt x="653" y="861" on="1"/>
        <pt x="594" y="861" on="0"/>
        <pt x="515" y="796" on="0"/>
        <pt x="507" y="755" on="1"/>
        <pt x="497" y="706" on="0"/>
        <pt x="557" y="657" on="0"/>
        <pt x="619" y="657" on="1"/>
        <pt x="783" y="657" on="1"/>
        <pt x="769" y="588" on="1"/>
        <pt x="770" y="588" on="1"/>
        <pt x="742" y="450" on="1"/>
        <pt x="578" y="450" on="1"/>
        <pt x="512" y="450" on="0"/>
        <pt x="415" y="395" on="0"/>
        <pt x="404" y="336" on="1"/>
        <pt x="394" y="286" on="0"/>
        <pt x="454" y="220" on="0"/>
        <pt x="524" y="220" on="1"/>
        <pt x="591" y="220" on="0"/>
        <pt x="679" y="276" on="0"/>
        <pt x="688" y="320" on="1"/>
        <pt x="1010" y="320" on="1"/>
        <pt x="1012" y="314" on="1"/>
        <pt x="982" y="140" on="0"/>
        <pt x="689" y="-20" on="0"/>
        <pt x="499" y="-20" on="1"/>
        <pt x="297" y="-20" on="0"/>
        <pt x="36" y="158" on="0"/>
      </contour>
    </TTGlyph>
    <TTGlyph name="epsilontonos" xMin="36" yMin="-20" xMax="1123" yMax="1538">
      <component glyphName="epsilon" x="0" y="0" flags="0x204"/>
      <component glyphName="tonos" x="164" y="-80" flags="0x4"/>
    </TTGlyph>
    <TTGlyph name="equal" xMin="97" yMin="293" xMax="1103" yMax="992">
      <contour>
        <pt x="1051" y="732" on="1"/>
        <pt x="184" y="732" on="1"/>
        <pt x="236" y="992" on="1"/>
        <pt x="1103" y="992" on="1"/>
      </contour>
      <contour>
        <pt x="964" y="293" on="1"/>
        <pt x="97" y="293" on="1"/>
        <pt x="149" y="553" on="1"/>
        <pt x="1016" y="553" on="1"/>
      </contour>
    </TTGlyph>
    <TTGlyph name="estimated" xMin="119" yMin="-20" xMax="1160" yMax="1102">
      <contour>
        <pt x="906" y="94" on="1"/>
        <pt x="814" y="39" on="0"/>
        <pt x="627" y="-20" on="0"/>
        <pt x="539" y="-20" on="1"/>
        <pt x="350" y="-20" on="0"/>
        <pt x="119" y="313" on="0"/>
        <pt x="164" y="541" on="1"/>
        <pt x="212" y="782" on="0"/>
        <pt x="571" y="1102" on="0"/>
        <pt x="763" y="1102" on="1"/>
        <pt x="943" y="1102" on="0"/>
        <pt x="1160" y="788" on="0"/>
        <pt x="1115" y="561" on="1"/>
        <pt x="1106" y="514" on="1"/>
        <pt x="392" y="514" on="1"/>
        <pt x="326" y="186" on="1"/>
        <pt x="368" y="133" on="0"/>
        <pt x="486" y="76" on="0"/>
        <pt x="558" y="76" on="1"/>
        <pt x="640" y="76" on="0"/>
        <pt x="834" y="137" on="0"/>
        <pt x="925" y="198" on="1"/>
      </contour>
      <contour>
        <pt x="745" y="1008" on="1"/>
        <pt x="681" y="1008" on="0"/>
        <pt x="530" y="942" on="0"/>
        <pt x="466" y="886" on="1"/>
        <pt x="411" y="609" on="1"/>
        <pt x="913" y="609" on="1"/>
        <pt x="970" y="895" on="1"/>
        <pt x="930" y="948" on="0"/>
        <pt x="814" y="1008" on="0"/>
      </contour>
    </TTGlyph>
    <TTGlyph name="eta" xMin="-2" yMin="-416" xMax="1093" yMax="1102">
      <contour>
        <pt x="511" y="941" on="1"/>
        <pt x="576" y="1019" on="0"/>
        <pt x="736" y="1102" on="0"/>
        <pt x="824" y="1102" on="1"/>
        <pt x="961" y="1102" on="0"/>
        <pt x="1093" y="882" on="0"/>
        <pt x="1047" y="651" on="1"/>
        <pt x="834" y="-416" on="1"/>
        <pt x="500" y="-416" on="1"/>
        <pt x="713" y="652" on="1"/>
        <pt x="735" y="762" on="0"/>
        <pt x="698" y="842" on="0"/>
        <pt x="643" y="842" on="1"/>
        <pt x="600" y="842" on="0"/>
        <pt x="519" y="803" on="0"/>
        <pt x="484" y="768" on="1"/>
        <pt x="331" y="0" on="1"/>
        <pt x="-2" y="0" on="1"/>
        <pt x="214" y="1082" on="1"/>
        <pt x="528" y="1082" on="1"/>
      </contour>
    </TTGlyph>
    <TTGlyph name="etatonos" xMin="-2" yMin="-416" xMax="1093" yMax="1539">
      <component glyphName="eta" x="0" y="0" flags="0x204"/>
      <component glyphName="tonos" x="137" y="-79" flags="0x4"/>
    </TTGlyph>
    <TTGlyph name="eth" xMin="0" yMin="-21" xMax="1209" yMax="1517">
      <contour>
        <pt x="1047" y="1281" on="1"/>
        <pt x="1130" y="1166" on="0"/>
        <pt x="1186" y="858" on="0"/>
        <pt x="1150" y="676" on="1"/>
        <pt x="1138" y="613" on="1"/>
        <pt x="1078" y="315" on="0"/>
        <pt x="707" y="-21" on="0"/>
        <pt x="471" y="-21" on="1"/>
        <pt x="252" y="-21" on="0"/>
        <pt x="0" y="264" on="0"/>
        <pt x="42" y="468" on="1"/>
        <pt x="89" y="708" on="0"/>
        <pt x="382" y="961" on="0"/>
        <pt x="612" y="961" on="1"/>
        <pt x="676" y="961" on="0"/>
        <pt x="788" y="920" on="0"/>
        <pt x="828" y="884" on="1"/>
        <pt x="833" y="889" on="1"/>
        <pt x="830" y="960" on="0"/>
        <pt x="787" y="1079" on="0"/>
        <pt x="751" y="1125" on="1"/>
        <pt x="531" y="1010" on="1"/>
        <pt x="479" y="1128" on="1"/>
        <pt x="648" y="1216" on="1"/>
        <pt x="621" y="1232" on="0"/>
        <pt x="560" y="1260" on="0"/>
        <pt x="526" y="1273" on="1"/>
        <pt x="679" y="1517" on="1"/>
        <pt x="759" y="1497" on="0"/>
        <pt x="898" y="1427" on="0"/>
        <pt x="957" y="1378" on="1"/>
        <pt x="1158" y="1484" on="1"/>
        <pt x="1209" y="1366" on="1"/>
      </contour>
      <contour>
        <pt x="527" y="239" on="1"/>
        <pt x="616" y="239" on="0"/>
        <pt x="771" y="451" on="0"/>
        <pt x="804" y="613" on="1"/>
        <pt x="811" y="651" on="1"/>
        <pt x="788" y="682" on="0"/>
        <pt x="697" y="720" on="0"/>
        <pt x="633" y="720" on="1"/>
        <pt x="536" y="720" on="0"/>
        <pt x="399" y="584" on="0"/>
        <pt x="376" y="468" on="1"/>
        <pt x="354" y="361" on="0"/>
        <pt x="435" y="239" on="0"/>
      </contour>
    </TTGlyph>
    <TTGlyph name="exclam" xMin="25" yMin="0" xMax="650" yMax="1456">
      <contour>
        <pt x="462" y="516" on="1"/>
        <pt x="126" y="516" on="1"/>
        <pt x="314" y="1456" on="1"/>
        <pt x="650" y="1456" on="1"/>
      </contour>
      <contour>
        <pt x="357" y="0" on="1"/>
        <pt x="25" y="0" on="1"/>
        <pt x="82" y="283" on="1"/>
        <pt x="414" y="283" on="1"/>
      </contour>
    </TTGlyph>
    <TTGlyph name="exclamdbl" xMin="25" yMin="0" xMax="1197" yMax="1456">
      <component glyphName="exclam" x="0" y="0" flags="0x4"/>
      <component glyphName="exclam" x="547" y="0" flags="0x4"/>
    </TTGlyph>
    <TTGlyph name="exclamdown" xMin="-26" yMin="-374" xMax="599" yMax="1082">
      <contour>
        <pt x="310" y="-374" on="1"/>
        <pt x="-26" y="-374" on="1"/>
        <pt x="162" y="566" on="1"/>
        <pt x="498" y="566" on="1"/>
      </contour>
      <contour>
        <pt x="543" y="799" on="1"/>
        <pt x="211" y="799" on="1"/>
        <pt x="267" y="1082" on="1"/>
        <pt x="599" y="1082" on="1"/>
      </contour>
    </TTGlyph>
    <TTGlyph name="f" xMin="70" yMin="0" xMax="949" yMax="1581">
      <contour>
        <pt x="70" y="0" on="1"/>
        <pt x="239" y="848" on="1"/>
        <pt x="97" y="848" on="1"/>
        <pt x="143" y="1082" on="1"/>
        <pt x="286" y="1082" on="1"/>
        <pt x="309" y="1194" on="1"/>
        <pt x="348" y="1392" on="0"/>
        <pt x="595" y="1581" on="0"/>
        <pt x="795" y="1581" on="1"/>
        <pt x="829" y="1581" on="0"/>
        <pt x="906" y="1569" on="0"/>
        <pt x="949" y="1560" on="1"/>
        <pt x="875" y="1311" on="1"/>
        <pt x="851" y="1316" on="0"/>
        <pt x="812" y="1321" on="0"/>
        <pt x="784" y="1321" on="1"/>
        <pt x="732" y="1321" on="0"/>
        <pt x="655" y="1254" on="0"/>
        <pt x="644" y="1194" on="1"/>
        <pt x="621" y="1082" on="1"/>
        <pt x="811" y="1082" on="1"/>
        <pt x="765" y="848" on="1"/>
        <pt x="574" y="848" on="1"/>
        <pt x="405" y="0" on="1"/>
      </contour>
    </TTGlyph>
    <TTGlyph name="fi" xMin="75" yMin="0" xMax="1265" yMax="1581">
      <contour>
        <pt x="75" y="0" on="1"/>
        <pt x="244" y="848" on="1"/>
        <pt x="101" y="848" on="1"/>
        <pt x="147" y="1082" on="1"/>
        <pt x="291" y="1082" on="1"/>
        <pt x="302" y="1134" on="1"/>
        <pt x="348" y="1364" on="0"/>
        <pt x="640" y="1581" on="0"/>
        <pt x="880" y="1581" on="1"/>
        <pt x="954" y="1581" on="0"/>
        <pt x="1113" y="1550" on="0"/>
        <pt x="1202" y="1523" on="1"/>
        <pt x="1102" y="1257" on="1"/>
        <pt x="1030" y="1279" on="0"/>
        <pt x="923" y="1301" on="0"/>
        <pt x="844" y="1301" on="1"/>
        <pt x="765" y="1301" on="0"/>
        <pt x="651" y="1213" on="0"/>
        <pt x="636" y="1134" on="1"/>
        <pt x="625" y="1082" on="1"/>
        <pt x="817" y="1082" on="1"/>
        <pt x="771" y="848" on="1"/>
        <pt x="578" y="848" on="1"/>
        <pt x="409" y="0" on="1"/>
      </contour>
      <contour>
        <pt x="1049" y="0" on="1"/>
        <pt x="714" y="0" on="1"/>
        <pt x="930" y="1082" on="1"/>
        <pt x="1265" y="1082" on="1"/>
      </contour>
    </TTGlyph>
    <TTGlyph name="five" xMin="38" yMin="-21" xMax="1154" yMax="1456">
      <contour>
        <pt x="139" y="640" on="1"/>
        <pt x="348" y="1456" on="1"/>
        <pt x="1154" y="1456" on="1"/>
        <pt x="1112" y="1194" on="1"/>
        <pt x="578" y="1194" on="1"/>
        <pt x="497" y="891" on="1"/>
        <pt x="535" y="920" on="0"/>
        <pt x="644" y="956" on="0"/>
        <pt x="702" y="958" on="1"/>
        <pt x="905" y="962" on="0"/>
        <pt x="1077" y="705" on="0"/>
        <pt x="1040" y="469" on="1"/>
        <pt x="1006" y="257" on="0"/>
        <pt x="718" y="-21" on="0"/>
        <pt x="486" y="-21" on="1"/>
        <pt x="297" y="-21" on="0"/>
        <pt x="38" y="211" on="0"/>
        <pt x="72" y="398" on="1"/>
        <pt x="74" y="403" on="1"/>
        <pt x="405" y="424" on="1"/>
        <pt x="390" y="334" on="0"/>
        <pt x="457" y="239" on="0"/>
        <pt x="527" y="239" on="1"/>
        <pt x="602" y="239" on="0"/>
        <pt x="691" y="370" on="0"/>
        <pt x="707" y="467" on="1"/>
        <pt x="726" y="592" on="0"/>
        <pt x="675" y="725" on="0"/>
        <pt x="593" y="725" on="1"/>
        <pt x="538" y="725" on="0"/>
        <pt x="456" y="666" on="0"/>
        <pt x="437" y="623" on="1"/>
      </contour>
    </TTGlyph>
    <TTGlyph name="five.lnum" xMin="31" yMin="-21" xMax="1196" yMax="1456">
      <contour>
        <pt x="148" y="640" on="1"/>
        <pt x="390" y="1456" on="1"/>
        <pt x="1196" y="1456" on="1"/>
        <pt x="1144" y="1194" on="1"/>
        <pt x="609" y="1194" on="1"/>
        <pt x="516" y="891" on="1"/>
        <pt x="555" y="920" on="0"/>
        <pt x="666" y="956" on="0"/>
        <pt x="725" y="958" on="1"/>
        <pt x="928" y="962" on="0"/>
        <pt x="1090" y="705" on="0"/>
        <pt x="1043" y="469" on="1"/>
        <pt x="999" y="253" on="0"/>
        <pt x="701" y="-21" on="0"/>
        <pt x="469" y="-21" on="1"/>
        <pt x="285" y="-21" on="0"/>
        <pt x="31" y="212" on="0"/>
        <pt x="73" y="398" on="1"/>
        <pt x="75" y="403" on="1"/>
        <pt x="407" y="424" on="1"/>
        <pt x="388" y="332" on="0"/>
        <pt x="451" y="239" on="0"/>
        <pt x="521" y="239" on="1"/>
        <pt x="594" y="239" on="0"/>
        <pt x="690" y="371" on="0"/>
        <pt x="709" y="467" on="1"/>
        <pt x="734" y="595" on="0"/>
        <pt x="688" y="725" on="0"/>
        <pt x="606" y="725" on="1"/>
        <pt x="553" y="725" on="0"/>
        <pt x="467" y="665" on="0"/>
        <pt x="446" y="623" on="1"/>
      </contour>
    </TTGlyph>
</ttFont>
